<?xml version="1.0" encoding="utf-8"?>
<!-- Generator: Adobe Illustrator 21.1.0, SVG Export Plug-In . SVG Version: 6.00 Build 0)  -->
<svg version="1.1" id="Layer_1" xmlns="http://www.w3.org/2000/svg" xmlns:xlink="http://www.w3.org/1999/xlink" x="0px" y="0px"
	 viewBox="0 0 8456 5240" style="enable-background:new 0 0 8456 5240;" xml:space="preserve">
<style type="text/css">
	.st0{opacity:0.5;clip-path:url(#SVGID_2_);}
	.st1{fill:#7785AC;}
	.st2{clip-path:url(#SVGID_2_);fill:#7785AC;}
	.st3{clip-path:url(#SVGID_2_);fill:none;}
	.st4{clip-path:url(#SVGID_2_);enable-background:new    ;}
	.st5{fill:#F18701;}
	.st6{font-family:'NunitoSans-ExtraBoldItalic';}
	.st7{font-size:300px;}
	.st8{clip-path:url(#SVGID_2_);fill:#F9F9F9;}
</style>
<g>
	<defs>
		<rect id="SVGID_1_" x="-3.2" y="-4.5" width="8459.2" height="5244.5"/>
	</defs>
	<clipPath id="SVGID_2_">
		<use xlink:href="#SVGID_1_"  style="overflow:visible;"/>
	</clipPath>
	<g class="st0">
		<path class="st1" d="M161,3836.9c-42.1,42.1-84.1,84.1-126.2,126.2c-3.9,3.9-8.4,9.3-13.7,5.6c-4.5-3.2-7-9.5-9.6-14.8
			c-0.9-1.9-0.1-5.2,0.8-7.5c10.9-29.9,19.4-60.9,37.6-87.7c16.2-23.8,34.6-45.5,58.5-61.8c12-8.2,24.8-13.9,40.3-13.5
			c5.4,0.1,11.6-4.8,16.4-8.8c21.1-17.6,41.5-36.1,62.9-53.5c13.1-10.7,27.2-20.2,41.2-29.6c6.5-4.4,13.7-3.7,20.2,1.4
			c5.1,3.9,5.6,8.5,2,13.4c-2.3,3.1-5.3,5.6-8,8.3C242.6,3755.3,201.8,3796.1,161,3836.9L161,3836.9z M229.4,3743.4
			c-0.4-0.4-0.7-0.8-1.1-1.2c-6.5,5.6-13,11.3-19.6,16.9c-14.5,12.3-28.9,24.7-43.8,36.6c-3.6,2.9-9,5.8-13.1,5.2
			c-13.8-2.1-24.9,3.4-35.2,10.9c-31,22.8-53.8,52.3-69.2,87.3c-5.4,12.3-9.3,25.3-13.8,38c0.4,0.2,0.9,0.5,1.3,0.7
			C99.7,3873.1,164.5,3808.3,229.4,3743.4z"/>
		<path class="st1" d="M649.3,3224.9c-2.6-4.9-4.1-11-7.9-14.6c-17.1-16.1-34.9-31.6-52.5-47.2c-2-1.8-4.3-3.3-6.3-5.1
			c-3.7-3.3-5.5-7.3-1.9-11.6c3.5-4.3,8-3.3,11.9-0.5c5.6,4,11.2,8.1,16.2,12.7c15.3,13.8,30.5,27.7,45.3,42
			c7.4,7.1,10.1,16.5,10.5,26.7c0.1,2.7,1.7,6.1,3.7,7.9c43.5,40.9,87.1,81.6,130.6,122.3c11.3,10.6,22.4,21.3,33.6,32
			c3,2.9,6.1,5.8,8.5,9.1c6.5,8.8,6.8,17.4,1.1,23.6c-6,6.6-16.5,8.4-24.9,3c-8.5-5.4-16.8-11.3-24.1-18
			c-45.6-41.5-90.8-83.3-136.2-124.9c-1.1-1-2.3-1.8-3.4-2.8c-9.6-9.4-18.4-14.4-33.7-8.4c-16.8,6.6-34.1,1.6-48-11.9
			c-14.6-14.1-30.1-27.4-45.1-41.2c-1.8-1.6-4.1-3.7-4.3-5.8c-0.4-3-0.1-7.4,1.8-9c1.8-1.6,6.7-1.6,9.1-0.3c4.4,2.5,8,6.4,11.9,9.8
			c14.2,12.8,28.3,25.7,42.6,38.4c6.5,5.8,18,7.4,26.7,4.2c-0.1-0.4,0.1-1.1-0.2-1.3c-20.4-19.2-40.7-38.4-61.1-57.5
			c-0.7-0.7-1.5-1.3-2.2-2c-4-3.8-7.3-8.2-2.9-13.4c4.5-5.3,9.2-2.6,13.3,1.3c18.1,17,36.1,34,54.2,50.9c5,4.7,10.1,9.2,16.1,14.6
			c1.6-1.5,4.4-3,5.3-5.2c0.5-1.1-2.1-3.9-3.8-5.5c-19.6-18.2-39.4-36.2-59.1-54.3c-2.3-2.2-4.5-4.5-6.8-6.8
			c-3.7-3.9-5-8.2-0.7-12.3c4-3.8,8.2-2.3,11.8,1c10.2,9.5,20.4,19.2,30.6,28.7c10.6,9.8,21.3,19.6,32.1,29.3
			c1.6,1.4,3.5,2.5,5.3,3.7C647.4,3226,648.3,3225.5,649.3,3224.9z M648.9,3254.8c7,5.8,13.3,10.8,19.3,16.2
			c45.1,41.3,90,82.6,135.1,123.9c5.4,5,11.4,9.3,17.3,13.6c2.2,1.6,4.9,2.3,8.3,3.8c-3.1-9.6-160.8-159.1-173.2-165
			C653.7,3249.5,651.6,3251.8,648.9,3254.8z"/>
		<path class="st1" d="M1297.1,3865.8c17.5-17.5,35.1-34.8,52.3-52.6c3.3-3.5,5-8.8,6.6-13.5c4.2-12.2,6.8-25.1,12.2-36.8
			c8.7-18.9,36.2-37.1,60.8-27.4c17.6,7,29.8,20,36.5,37.5c4.3,11.2,1.5,22.8-6.3,31.6c-8.1,9-17.5,16.9-27.1,24.4
			c-8.3,6.5-18.1,9-28.9,7.7c-2.6-0.3-6.3,1.3-8.4,3.3c-31.2,30.2-62.3,60.5-93.2,91.1c-29.4,29.1-58.2,58.9-87.9,87.7
			c-5.8,5.6-14.2,9.5-22,11.7c-13.7,3.8-24.2-6.7-19.5-20c3.7-10.5,10.1-20.6,17-29.5c10.1-13,21.5-24.9,32.8-36.9
			c24.8-26.4,49.8-52.5,74.8-78.7C1296.8,3865.5,1297,3865.7,1297.1,3865.8z M1186.9,4012.5c0.9,0.9,1.8,1.8,2.8,2.7
			c5-3.3,10.7-5.9,14.9-10c23.8-23.9,46.8-48.5,70.7-72.1c32.9-32.4,66.4-64.2,99.6-96.2c2.1-2,3.9-4.3,5.9-6.4
			c-3.6-5.1-7.9-9.9-2.7-15.2c4.9-5,9.2-0.6,14,1.6c8.5,3.9,18.2,6.5,26.5,0.9c9.7-6.4,19-13.8,26.7-22.4c3.7-4.1,5.8-12.9,4-17.8
			c-4.9-13.1-14.3-23.6-28.6-27.2c-5-1.3-11.1-0.7-16,1c-16.7,5.9-31.8,28.9-31.5,46.5c0,1.2,0.4,2.5,0.9,3.6
			c2.6,4.9,0.7,8.6-2.7,12.1c-9.2,9.5-18.1,19.3-27.5,28.6c-48.1,47.5-96.1,95.1-140.3,146.4
			C1197.3,3996,1192.4,4004.5,1186.9,4012.5z"/>
		<path class="st1" d="M2804.9,3873.5c4.8-2.5,10.7-4,14.2-7.7c15.7-16.7,30.8-34,46-51.1c1.7-2,3.2-4.2,5-6.1
			c3.2-3.6,7.1-5.3,11.3-1.8c4.2,3.4,3.2,7.8,0.4,11.6c-3.9,5.4-7.9,10.9-12.3,15.8c-13.5,14.9-27,29.7-40.9,44.2
			c-6.9,7.2-16,9.9-26,10.2c-2.6,0.1-5.9,1.6-7.7,3.6c-39.8,42.3-79.4,84.8-119.2,127.3c-10.3,11-20.7,21.8-31.2,32.7
			c-2.8,2.9-5.6,5.9-8.9,8.3c-8.6,6.4-17,6.6-22.9,1.1c-6.4-5.9-8.1-16-2.9-24.3c5.2-8.2,11-16.3,17.5-23.5
			c40.4-44.4,81.1-88.5,121.7-132.7c1-1.1,1.8-2.3,2.8-3.3c9.2-9.3,14.1-17.9,8.2-32.8c-6.5-16.4-1.5-33.2,11.6-46.8
			c13.8-14.2,26.7-29.3,40.1-43.9c1.6-1.7,3.6-3.9,5.6-4.2c2.9-0.4,7.2-0.1,8.8,1.7s1.6,6.5,0.3,8.8c-2.4,4.3-6.2,7.8-9.6,11.6
			c-12.5,13.9-25,27.6-37.4,41.5c-5.7,6.4-7.2,17.6-4.1,26.1c0.4-0.1,1,0.1,1.3-0.2c18.7-19.8,37.4-39.7,56-59.5
			c0.7-0.7,1.3-1.4,1.9-2.1c3.7-3.9,8-7.1,13-2.8c5.1,4.4,2.6,9-1.2,13c-16.5,17.6-33.1,35.2-49.6,52.8c-4.5,4.9-8.9,9.8-14.2,15.7
			c1.4,1.6,2.9,4.2,5.1,5.2c1.1,0.5,3.8-2,5.3-3.7c17.7-19.1,35.3-38.4,52.9-57.5c2.1-2.3,4.4-4.4,6.6-6.6c3.8-3.6,7.9-4.9,11.9-0.7
			c3.7,3.9,2.2,8-1,11.5c-9.3,10-18.7,19.8-28,29.8c-9.6,10.3-19.1,20.8-28.5,31.3c-1.4,1.5-2.4,3.4-3.6,5.1
			C2803.9,3871.7,2804.4,3872.6,2804.9,3873.5z M2775.8,3873.1c-5.7,6.8-10.5,13-15.8,18.8c-40.2,43.9-80.5,87.7-120.7,131.6
			c-4.8,5.3-9.1,11.1-13.3,16.9c-1.5,2.1-2.2,4.8-3.7,8.1c9.3-3.1,155-156.6,160.7-168.7C2781,3877.9,2778.7,3875.8,2775.8,3873.1z"
			/>
		<path class="st1" d="M1984.3,3295.2c-43.3-43.3-86.5-86.6-129.9-129.8c-4-4-9.5-8.7-5.7-14c3.3-4.6,9.7-7.2,15.2-9.9
			c2-1,5.3-0.1,7.7,0.8c30.8,11.2,62.6,20,90.2,38.7c24.5,16.6,46.9,35.6,63.6,60.2c8.4,12.3,14.3,25.5,13.9,41.4
			c-0.1,5.6,5,12,9,16.9c18.1,21.7,37.2,42.7,55.1,64.7c11,13.5,20.8,28,30.5,42.4c4.5,6.7,3.8,14.1-1.4,20.7
			c-4,5.2-8.8,5.8-13.8,2.1c-3.2-2.3-5.7-5.5-8.5-8.3C2068.3,3379.1,2026.3,3337.1,1984.3,3295.2
			C1984.3,3295.1,1984.3,3295.1,1984.3,3295.2z M2080.5,3365.5c0.4-0.4,0.8-0.7,1.3-1.1c-5.8-6.7-11.7-13.4-17.4-20.2
			c-12.6-14.9-25.5-29.8-37.7-45.1c-3-3.7-6-9.3-5.4-13.5c2.1-14.2-3.5-25.6-11.2-36.2c-23.4-31.9-53.8-55.3-89.8-71.2
			c-12.7-5.6-26.1-9.5-39.1-14.2c-0.2,0.4-0.5,0.9-0.7,1.3C1947.1,3232.1,2013.8,3298.8,2080.5,3365.5z"/>
		<path class="st1" d="M3365.9,3309.4c-18.1-18.1-36-36.4-54.4-54.1c-3.6-3.4-9.1-5.1-14-6.8c-12.6-4.4-26-7-38.1-12.6
			c-19.6-9-38.4-37.5-28.3-62.9c7.2-18.2,20.7-30.8,38.8-37.7c11.6-4.5,23.6-1.5,32.7,6.6c9.3,8.3,17.5,18.2,25.3,28.1
			c6.7,8.6,9.3,18.7,7.9,30c-0.3,2.7,1.4,6.6,3.4,8.6c31.3,32.3,62.6,64.5,94.2,96.4c30.2,30.4,61,60.3,90.8,91
			c5.8,6,9.8,14.7,12.1,22.8c3.9,14.2-7,25.1-20.7,20.2c-10.9-3.9-21.3-10.4-30.5-17.6c-13.4-10.5-25.8-22.3-38.2-34
			c-27.3-25.7-54.3-51.6-81.4-77.4C3365.5,3309.8,3365.7,3309.6,3365.9,3309.4z M3517.7,3423.5c0.9-1,1.9-1.9,2.8-2.9
			c-3.4-5.2-6.1-11.1-10.4-15.4c-24.7-24.6-50.2-48.4-74.6-73.2c-33.5-34-66.4-68.7-99.6-103c-2.1-2.2-4.4-4.1-6.7-6.1
			c-5.3,3.7-10.2,8.1-15.7,2.8c-5.2-5.1-0.7-9.5,1.6-14.5c4.1-8.8,6.7-18.8,1-27.5c-6.6-10-14.3-19.7-23.1-27.7
			c-4.2-3.8-13.3-6.1-18.4-4.2c-13.6,5.1-24.4,14.8-28.1,29.6c-1.3,5.1-0.7,11.5,1,16.6c6.1,17.3,29.9,33,48.1,32.6
			c1.2,0,2.6-0.4,3.7-1c5-2.7,8.9-0.7,12.5,2.8c9.8,9.5,20,18.7,29.6,28.5c49.2,49.8,98.4,99.5,151.5,145.2
			C3500.5,3412.7,3509.4,3417.8,3517.7,3423.5z"/>
		<path class="st1" d="M682.4,4588.1c2.5,4.8,4,10.6,7.7,14.1c16.6,15.6,33.8,30.6,50.8,45.7c1.9,1.7,4.1,3.2,6.1,5
			c3.5,3.2,5.3,7.1,1.8,11.2c-3.4,4.1-7.7,3.2-11.5,0.4c-5.4-3.9-10.8-7.8-15.7-12.3c-14.8-13.4-29.5-26.8-43.9-40.6
			c-7.2-6.9-9.8-15.9-10.1-25.9c-0.1-2.6-1.6-5.9-3.6-7.7c-42.1-39.6-84.3-79-126.5-118.4c-10.9-10.2-21.7-20.6-32.5-31
			c-2.9-2.8-5.9-5.6-8.3-8.8c-6.3-8.6-6.6-16.8-1.1-22.8c5.9-6.4,16-8.1,24.2-2.9c8.2,5.2,16.2,10.9,23.4,17.4
			c44.1,40.2,87.9,80.6,131.9,121c1,1,2.3,1.8,3.3,2.8c9.3,9.1,17.8,14,32.6,8.2c16.3-6.4,33-1.5,46.5,11.5
			c14.2,13.7,29.1,26.6,43.7,39.9c1.7,1.6,3.9,3.6,4.2,5.6c0.4,2.9,0.1,7.2-1.7,8.7s-6.5,1.6-8.8,0.3c-4.3-2.4-7.8-6.2-11.5-9.5
			c-13.8-12.4-27.4-24.9-41.3-37.2c-6.3-5.6-17.5-7.2-25.9-4c0.1,0.4-0.1,1,0.2,1.3c19.7,18.6,39.4,37.1,59.2,55.7
			c0.7,0.7,1.4,1.3,2.1,1.9c3.9,3.7,7.1,7.9,2.8,12.9c-4.4,5.1-8.9,2.5-12.9-1.2c-17.5-16.4-35-32.9-52.5-49.3
			c-4.8-4.5-9.8-8.9-15.6-14.1c-1.6,1.4-4.2,2.9-5.1,5.1c-0.5,1.1,2,3.8,3.6,5.3c19,17.6,38.1,35.1,57.2,52.6
			c2.3,2.1,4.4,4.3,6.5,6.6c3.6,3.7,4.9,7.9,0.7,11.9c-3.9,3.7-7.9,2.2-11.4-1c-9.9-9.2-19.7-18.6-29.7-27.8
			c-10.3-9.5-20.7-18.9-31.1-28.3c-1.5-1.4-3.4-2.4-5.1-3.6C684.2,4587,683.3,4587.6,682.4,4588.1z M682.8,4559.1
			c-6.7-5.7-12.9-10.5-18.7-15.7c-43.6-39.9-87.1-80-130.8-119.9c-5.2-4.8-11-9-16.8-13.2c-2.1-1.5-4.8-2.2-8.1-3.7
			c3,9.3,155.7,154,167.7,159.7C678.1,4564.3,680.2,4562,682.8,4559.1z"/>
		<path class="st1" d="M3316.4,4479.3c-42.2-42.2-84.4-84.4-126.6-126.6c-3.9-3.9-9.3-8.5-5.6-13.7c3.2-4.5,9.5-7,14.8-9.6
			c1.9-1,5.2-0.1,7.5,0.8c30,10.9,61.1,19.5,88,37.8c23.9,16.2,45.7,34.7,62.1,58.7c8.2,12,13.9,24.9,13.6,40.4
			c-0.1,5.4,4.8,11.7,8.8,16.4c17.7,21.2,36.3,41.7,53.7,63.1c10.7,13.1,20.3,27.3,29.7,41.4c4.4,6.5,3.7,13.7-1.4,20.2
			c-3.9,5.1-8.5,5.7-13.5,2c-3.1-2.3-5.6-5.3-8.3-8.1C3398.3,4561.2,3357.4,4520.2,3316.4,4479.3L3316.4,4479.3z M3410.2,4547.9
			c0.4-0.4,0.8-0.7,1.2-1.1c-5.7-6.6-11.4-13.1-17-19.7c-12.3-14.6-24.8-29-36.7-43.9c-2.9-3.6-5.9-9.1-5.2-13.2
			c2.1-13.9-3.4-25-11-35.3c-22.8-31.1-52.4-54-87.6-69.5c-12.4-5.4-25.4-9.3-38.2-13.9c-0.2,0.4-0.5,0.9-0.7,1.3
			C3280.1,4417.8,3345.2,4482.9,3410.2,4547.9z"/>
		<path class="st1" d="M1858.7,4524.8c-18.5-18.5-36.9-37.3-55.8-55.4c-3.7-3.5-9.3-5.3-14.3-7c-13-4.5-26.7-7.2-39-12.9
			c-20-9.2-39.4-38.4-29-64.5c7.4-18.7,21.3-31.6,39.7-38.7c11.9-4.6,24.2-1.6,33.5,6.7c9.6,8.6,18,18.6,25.9,28.8
			c6.9,8.8,9.6,19.2,8.1,30.7c-0.4,2.8,1.4,6.7,3.5,8.9c32.1,33.1,64.2,66.1,96.6,98.9c30.9,31.2,62.5,61.8,93,93.3
			c5.9,6.1,10,15,12.4,23.4c4,14.5-7.1,25.7-21.3,20.7c-11.2-4-21.8-10.7-31.3-18.1c-13.7-10.7-26.4-22.8-39.1-34.8
			c-28-26.3-55.6-52.9-83.4-79.3C1858.4,4525.2,1858.5,4525,1858.7,4524.8z M2014.3,4641.7c1-1,1.9-2,2.9-2.9
			c-3.5-5.3-6.2-11.4-10.6-15.8c-25.3-25.2-51.4-49.6-76.5-75c-34.4-34.9-68-70.4-102.1-105.6c-2.1-2.2-4.5-4.2-6.8-6.3
			c-5.4,3.8-10.5,8.3-16.1,2.9c-5.3-5.2-0.7-9.8,1.6-14.8c4.2-9.1,6.9-19.3,1-28.1c-6.8-10.2-14.6-20.2-23.7-28.4
			c-4.3-3.9-13.6-6.2-18.8-4.3c-13.9,5.2-25,15.1-28.8,30.3c-1.3,5.3-0.8,11.8,1.1,17c6.2,17.7,30.6,33.8,49.3,33.4
			c1.3,0,2.7-0.4,3.8-1c5.2-2.8,9.1-0.7,12.8,2.9c10.1,9.7,20.5,19.2,30.3,29.2c50.4,51,100.9,102,155.3,148.8
			C1996.7,4630.7,2005.8,4635.8,2014.3,4641.7z"/>
		<path class="st1" d="M4098,3898.8c-45.1,45.1-90.1,90.1-135.2,135.2c-4.2,4.2-9,9.9-14.6,6c-4.8-3.4-7.5-10.1-10.3-15.8
			c-1-2.1-0.1-5.5,0.8-8.1c11.7-32.1,20.8-65.2,40.3-93.9c17.3-25.5,37-48.8,62.7-66.2c12.9-8.7,26.6-14.9,43.1-14.5
			c5.8,0.1,12.5-5.2,17.6-9.4c22.6-18.9,44.5-38.7,67.3-57.3c14-11.4,29.1-21.6,44.1-31.7c7-4.7,14.6-3.9,21.6,1.5
			c5.4,4.2,6.1,9.1,2.2,14.4c-2.4,3.3-5.7,6-8.6,8.9C4185.4,3811.4,4141.7,3855.1,4098,3898.8L4098,3898.8z M4171.2,3798.6
			c-0.4-0.4-0.8-0.9-1.2-1.3c-7,6-14,12.1-21,18.1c-15.6,13.2-31,26.5-46.9,39.2c-3.8,3.1-9.7,6.2-14,5.6
			c-14.8-2.2-26.7,3.6-37.7,11.7c-33.2,24.4-57.6,56-74.2,93.5c-5.8,13.2-9.9,27.1-14.8,40.7c0.5,0.3,0.9,0.5,1.4,0.8
			C4032.3,3937.5,4101.8,3868.1,4171.2,3798.6z"/>
		<path class="st1" d="M4594.2,3221.5c-2.9-5.5-4.6-12.3-8.9-16.4c-19.2-18.1-39.1-35.4-58.8-53c-2.3-2-4.8-3.7-7-5.7
			c-4.1-3.7-6.1-8.2-2.1-13s9-3.7,13.3-0.5c6.2,4.5,12.5,9.1,18.2,14.2c17.1,15.5,34.2,31.1,50.9,47.1c8.3,8,11.4,18.5,11.8,30
			c0.1,3,1.9,6.8,4.1,8.9c48.7,45.8,97.7,91.4,146.5,137.2c12.7,11.9,25.1,23.9,37.6,35.9c3.4,3.2,6.8,6.5,9.6,10.2
			c7.3,9.9,7.6,19.5,1.3,26.4c-6.8,7.4-18.5,9.4-28,3.3c-9.5-6-18.8-12.6-27.1-20.2c-51.1-46.5-101.8-93.4-152.7-140.1
			c-1.2-1.1-2.6-2-3.8-3.2c-10.7-10.5-20.6-16.2-37.8-9.4c-18.9,7.4-38.2,1.8-53.9-13.4c-16.4-15.9-33.7-30.8-50.6-46.2
			c-2-1.8-4.5-4.1-4.8-6.5c-0.4-3.4-0.1-8.3,2-10.1s7.5-1.8,10.2-0.3c4.9,2.8,9,7.2,13.3,11c16,14.3,31.8,28.8,47.8,43.1
			c7.3,6.5,20.2,8.3,30,4.7c-0.1-0.5,0.1-1.2-0.2-1.5c-22.8-21.5-45.7-43-68.5-64.5c-0.8-0.8-1.6-1.5-2.4-2.2
			c-4.5-4.3-8.2-9.2-3.3-15c5.1-5.9,10.3-2.9,15,1.4c20.3,19,40.5,38.1,60.8,57.1c5.6,5.2,11.3,10.3,18,16.3c1.8-1.6,4.9-3.3,6-5.9
			c0.5-1.2-2.3-4.4-4.2-6.1c-22-20.4-44.2-40.6-66.2-60.9c-2.6-2.4-5.1-5-7.6-7.6c-4.1-4.3-5.6-9.1-0.8-13.7
			c4.5-4.3,9.2-2.6,13.2,1.2c11.5,10.7,22.8,21.5,34.3,32.2c11.9,11,23.9,21.9,36,32.8c1.8,1.6,3.9,2.8,5.9,4.1
			C4592.1,3222.7,4593.1,3222.1,4594.2,3221.5z M4593.7,3255c7.8,6.5,14.9,12.1,21.6,18.2c50.5,46.3,100.9,92.7,151.5,138.9
			c6.1,5.6,12.8,10.4,19.4,15.3c2.4,1.8,5.5,2.6,9.3,4.2c-3.5-10.7-180.3-178.4-194.2-185C4599.1,3249,4596.8,3251.6,4593.7,3255z"
			/>
		<path class="st1" d="M5217.1,3874.5c17.4-17.4,34.9-34.5,51.9-52.2c3.3-3.4,4.9-8.7,6.6-13.4c4.2-12.1,6.8-25,12.1-36.5
			c8.6-18.8,36-36.9,60.4-27.2c17.5,6.9,29.6,19.9,36.2,37.2c4.3,11.2,1.5,22.7-6.3,31.4c-8,9-17.4,16.8-26.9,24.3
			c-8.2,6.4-18,9-28.8,7.6c-2.6-0.3-6.3,1.3-8.3,3.3c-31,30-61.9,60.1-92.6,90.5c-29.2,28.9-57.8,58.5-87.4,87.1
			c-5.7,5.6-14.1,9.4-21.9,11.6c-13.6,3.8-24-6.7-19.4-19.9c3.7-10.5,10-20.5,16.9-29.3c10-12.9,21.4-24.7,32.6-36.7
			c24.6-26.2,49.5-52.1,74.3-78.1C5216.8,3874.2,5217,3874.3,5217.1,3874.5z M5107.6,4020.2c0.9,0.9,1.8,1.8,2.8,2.7
			c5-3.3,10.6-5.8,14.8-10c23.6-23.7,46.5-48.2,70.3-71.6c32.6-32.2,65.9-63.7,98.9-95.6c2.1-2,3.9-4.3,5.9-6.4
			c-3.6-5.1-7.8-9.8-2.7-15.1c4.9-5,9.1-0.6,13.9,1.5c8.5,3.9,18.1,6.4,26.4,0.9c9.6-6.4,18.9-13.7,26.6-22.2c3.6-4,5.8-12.8,4-17.6
			c-4.9-13-14.2-23.4-28.4-27c-4.9-1.2-11-0.7-15.9,1c-16.6,5.8-31.6,28.7-31.3,46.2c0,1.2,0.4,2.5,0.9,3.5c2.6,4.8,0.7,8.5-2.7,12
			c-9.1,9.5-18,19.2-27.3,28.4c-47.8,47.2-95.5,94.5-139.3,145.5C5118,4003.8,5113.1,4012.3,5107.6,4020.2z"/>
		<path class="st1" d="M6664,3896.3c5.1-2.7,11.4-4.3,15.1-8.2c16.7-17.8,32.7-36.2,49-54.4c1.9-2.1,3.4-4.4,5.3-6.5
			c3.5-3.8,7.6-5.7,12-2s3.4,8.3,0.5,12.3c-4.2,5.8-8.4,11.6-13.1,16.8c-14.3,15.8-28.7,31.6-43.5,47c-7.4,7.7-17.1,10.5-27.7,10.9
			c-2.8,0.1-6.3,1.7-8.2,3.8c-42.4,45.1-84.6,90.3-126.8,135.5c-11,11.7-22.1,23.3-33.2,34.8c-3,3.1-6,6.3-9.5,8.8
			c-9.2,6.8-18,7-24.4,1.2c-6.9-6.3-8.7-17.1-3.1-25.9c5.6-8.8,11.7-17.4,18.6-25c43-47.2,86.3-94.2,129.6-141.2
			c1-1.1,1.9-2.4,2.9-3.5c9.8-9.9,15-19.1,8.7-34.9c-6.9-17.5-1.6-35.3,12.4-49.8c14.7-15.2,28.4-31.2,42.7-46.8
			c1.7-1.8,3.8-4.2,6-4.5c3.1-0.4,7.7-0.1,9.4,1.8c1.7,1.9,1.7,6.9,0.3,9.4c-2.6,4.6-6.6,8.3-10.2,12.3
			c-13.3,14.8-26.7,29.4-39.9,44.2c-6,6.8-7.7,18.7-4.3,27.7c0.5-0.1,1.1,0.1,1.4-0.2c19.9-21.1,39.8-42.2,59.7-63.4
			c0.7-0.7,1.4-1.5,2.1-2.3c4-4.1,8.5-7.6,13.8-3c5.4,4.7,2.7,9.5-1.3,13.8c-17.6,18.7-35.2,37.5-52.8,56.2
			c-4.8,5.2-9.5,10.5-15.1,16.7c1.5,1.7,3.1,4.5,5.4,5.5c1.1,0.5,4.1-2.2,5.7-3.9c18.8-20.4,37.6-40.8,56.3-61.2
			c2.2-2.4,4.6-4.7,7-7c4-3.8,8.5-5.2,12.7-0.8c4,4.2,2.4,8.5-1.1,12.2c-9.9,10.6-19.9,21.1-29.8,31.8c-10.2,11-20.3,22.1-30.3,33.3
			c-1.5,1.6-2.6,3.6-3.8,5.5C6662.9,3894.4,6663.4,3895.3,6664,3896.3z M6633,3895.9c-6.1,7.2-11.2,13.8-16.8,20
			c-42.8,46.7-85.7,93.3-128.4,140.1c-5.1,5.6-9.6,11.8-14.1,18c-1.6,2.2-2.4,5.1-3.9,8.6c9.9-3.2,165-166.7,171.1-179.6
			C6638.5,3900.9,6636.1,3898.7,6633,3895.9z"/>
		<path class="st1" d="M5915.8,3297.5c-49.5-49.5-98.9-98.9-148.4-148.4c-4.6-4.6-10.9-9.9-6.5-16.1c3.7-5.3,11.1-8.2,17.4-11.3
			c2.3-1.1,6.1-0.1,8.8,0.9c35.2,12.8,71.6,22.9,103.1,44.3c28,19,53.6,40.7,72.7,68.8c9.6,14.1,16.3,29.2,15.9,47.3
			c-0.1,6.4,5.7,13.7,10.3,19.3c20.7,24.8,42.5,48.8,62.9,73.9c12.6,15.4,23.8,32,34.8,48.5c5.1,7.7,4.3,16.1-1.6,23.7
			c-4.6,5.9-10,6.6-15.8,2.4c-3.6-2.7-6.6-6.3-9.8-9.5C6011.8,3393.5,5963.8,3345.5,5915.8,3297.5L5915.8,3297.5z M6025.8,3377.9
			c0.5-0.4,1-0.9,1.4-1.3c-6.6-7.7-13.3-15.3-19.9-23.1c-14.5-17.1-29.1-34-43.1-51.5c-3.4-4.2-6.9-10.6-6.1-15.4
			c2.4-16.2-4-29.3-12.8-41.3c-26.8-36.4-61.5-63.2-102.7-81.4c-14.5-6.4-29.8-10.9-44.7-16.3c-0.3,0.5-0.6,1-0.8,1.5
			C5873.3,3225.4,5949.5,3301.7,6025.8,3377.9z"/>
		<path class="st1" d="M7130.6,3306c-18.7-18.7-37.2-37.6-56.3-56c-3.7-3.6-9.4-5.3-14.5-7.1c-13.1-4.5-26.9-7.3-39.4-13
			c-20.2-9.3-39.7-38.8-29.3-65.1c7.5-18.9,21.5-31.9,40.1-39c12-4.6,24.5-1.6,33.9,6.8c9.7,8.6,18.1,18.8,26.2,29
			c6.9,8.9,9.7,19.4,8.2,31c-0.4,2.8,1.4,6.8,3.5,8.9c32.4,33.4,64.8,66.8,97.5,99.8c31.2,31.5,63.1,62.3,93.9,94.2
			c6,6.2,10.1,15.2,12.5,23.6c4.1,14.6-7.2,25.9-21.5,20.9c-11.3-4-22-10.8-31.6-18.2c-13.9-10.8-26.7-23.1-39.5-35.1
			c-28.2-26.5-56.2-53.4-84.2-80.1C7130.2,3306.4,7130.4,3306.2,7130.6,3306z M7287.7,3424.1c1-1,2-2,2.9-3
			c-3.5-5.3-6.3-11.5-10.7-15.9c-25.5-25.4-51.9-50.1-77.2-75.8c-34.7-35.2-68.7-71.1-103-106.6c-2.2-2.2-4.6-4.2-6.9-6.3
			c-5.5,3.9-10.6,8.4-16.2,2.9c-5.4-5.2-0.7-9.9,1.7-15c4.2-9.1,6.9-19.5,1-28.4c-6.9-10.3-14.8-20.4-23.9-28.6
			c-4.3-3.9-13.8-6.3-19-4.3c-14,5.3-25.3,15.3-29.1,30.6c-1.3,5.3-0.8,11.9,1.1,17.1c6.3,17.9,30.9,34.1,49.8,33.7
			c1.3,0,2.7-0.4,3.8-1c5.2-2.8,9.2-0.7,12.9,2.9c10.2,9.8,20.6,19.4,30.6,29.5c50.9,51.5,101.9,102.9,156.8,150.2
			C7269.9,3412.9,7279.1,3418.1,7287.7,3424.1z"/>
		<path class="st1" d="M4699.3,4593.5c2.5,4.7,3.9,10.4,7.6,13.9c16.3,15.3,33.2,30,49.9,44.9c1.9,1.7,4.1,3.2,6,4.9
			c3.5,3.2,5.2,7,1.8,11c-3.4,4.1-7.6,3.1-11.3,0.4c-5.3-3.8-10.6-7.7-15.5-12c-14.5-13.1-29-26.4-43.1-39.9
			c-7.1-6.8-9.7-15.7-10-25.4c-0.1-2.6-1.6-5.8-3.5-7.6c-41.3-38.9-82.8-77.6-124.3-116.4c-10.7-10.1-21.3-20.3-31.9-30.5
			c-2.9-2.7-5.8-5.5-8.1-8.7c-6.2-8.4-6.4-16.6-1.1-22.4c5.8-6.3,15.7-8,23.7-2.8c8,5.1,15.9,10.7,23,17.1
			c43.3,39.5,86.4,79.2,129.6,118.9c1,0.9,2.2,1.7,3.2,2.7c9.1,8.9,17.5,13.7,32,8c16-6.3,32.4-1.5,45.7,11.3
			c13.9,13.5,28.6,26.1,42.9,39.2c1.7,1.5,3.9,3.5,4.1,5.5c0.3,2.9,0.1,7-1.7,8.6c-1.7,1.5-6.4,1.5-8.6,0.3
			c-4.2-2.4-7.6-6.1-11.3-9.4c-13.5-12.2-27-24.5-40.5-36.6c-6.2-5.5-17.1-7.1-25.4-4c0.1,0.4-0.1,1,0.2,1.2
			c19.4,18.3,38.8,36.5,58.1,54.7c0.7,0.6,1.4,1.2,2.1,1.9c3.8,3.6,7,7.8,2.8,12.7c-4.3,5-8.7,2.5-12.7-1.2
			c-17.2-16.2-34.4-32.3-51.6-48.4c-4.7-4.4-9.6-8.7-15.3-13.9c-1.5,1.4-4.1,2.8-5.1,5c-0.4,1.1,2,3.7,3.6,5.2
			c18.7,17.3,37.5,34.5,56.2,51.7c2.2,2.1,4.3,4.3,6.4,6.5c3.5,3.7,4.8,7.8,0.7,11.7c-3.8,3.7-7.8,2.2-11.2-1
			c-9.7-9.1-19.4-18.3-29.1-27.3c-10.1-9.4-20.3-18.6-30.5-27.8c-1.5-1.4-3.3-2.4-5-3.5C4701.1,4592.4,4700.2,4593,4699.3,4593.5z
			 M4699.7,4565c-6.6-5.6-12.7-10.3-18.3-15.4c-42.9-39.2-85.6-78.6-128.5-117.8c-5.1-4.7-10.8-8.8-16.5-13c-2-1.5-4.7-2.2-7.9-3.6
			c3,9.1,152.9,151.3,164.7,156.9C4695.1,4570.1,4697.1,4567.9,4699.7,4565z"/>
		<path class="st1" d="M7126.7,4479.8c-40-40-80-80.1-120.1-120.1c-3.7-3.7-8.8-8-5.3-13c3-4.3,9-6.7,14-9.1
			c1.8-0.9,4.9-0.1,7.2,0.7c28.5,10.4,57.9,18.5,83.4,35.8c22.6,15.4,43.3,32.9,58.8,55.7c7.8,11.4,13.2,23.6,12.9,38.3
			c-0.1,5.2,4.6,11.1,8.4,15.6c16.8,20.1,34.4,39.5,50.9,59.8c10.2,12.5,19.2,25.9,28.2,39.2c4.2,6.2,3.5,13-1.3,19.2
			c-3.7,4.8-8.1,5.4-12.8,1.9c-2.9-2.2-5.3-5.1-7.9-7.7C7204.3,4557.5,7165.5,4518.6,7126.7,4479.8L7126.7,4479.8z M7215.7,4544.9
			c0.4-0.3,0.8-0.7,1.2-1c-5.4-6.2-10.8-12.4-16.1-18.7c-11.7-13.8-23.5-27.5-34.8-41.7c-2.7-3.4-5.5-8.6-5-12.5
			c2-13.1-3.2-23.7-10.4-33.4c-21.7-29.5-49.7-51.2-83.1-65.9c-11.7-5.2-24.1-8.8-36.2-13.2c-0.2,0.4-0.4,0.8-0.7,1.2
			C7092.3,4421.5,7154,4483.2,7215.7,4544.9z"/>
		<path class="st1" d="M5915.8,4540.1c-18.3-18.3-36.4-36.8-55.1-54.7c-3.6-3.5-9.3-5.1-14.3-6.7c-13-4.2-26.8-6.6-39.2-12.1
			c-20.1-8.8-38.9-37.9-27.8-64.5c8-19.1,22.3-32.5,41.2-40.1c12.2-4.9,24.6-2.2,33.8,6c9.5,8.4,17.7,18.4,25.5,28.5
			c6.7,8.7,9.2,19.2,7.5,30.9c-0.4,2.9,1.2,6.8,3.3,8.9c31.6,32.7,63.3,65.4,95.3,97.7c30.5,30.8,61.7,61,91.9,92.1
			c5.9,6,9.8,15,11.9,23.4c3.7,14.6-7.9,26.2-22,21.4c-11.2-3.7-21.8-10.3-31.2-17.5c-13.6-10.5-26.2-22.5-38.8-34.3
			c-27.6-25.9-55-52.1-82.5-78.2C5915.4,4540.4,5915.6,4540.3,5915.8,4540.1z M6070.4,4654.6c1-1,2-2,3-3.1
			c-3.4-5.3-6-11.4-10.4-15.7c-25-24.9-50.8-49-75.6-74.1c-33.9-34.4-67.1-69.6-100.7-104.4c-2.1-2.2-4.5-4.1-6.8-6.2
			c-5.6,4-10.8,8.7-16.3,3.3c-5.3-5.1-0.5-9.9,2-15.1c4.4-9.3,7.4-19.7,1.7-28.5c-6.6-10.2-14.3-20.1-23.3-28.1
			c-4.3-3.8-13.7-5.9-19-3.8c-14.2,5.6-25.7,15.9-30,31.4c-1.5,5.4-1.1,11.9,0.7,17.2c5.8,17.8,30.2,33.4,49.1,32.6
			c1.3-0.1,2.7-0.5,3.9-1.1c5.3-2.9,9.2-0.9,12.9,2.6c10,9.6,20.2,18.9,30,28.8c49.8,50.4,99.6,100.7,153.5,146.8
			C6052.9,4643.8,6062,4648.8,6070.4,4654.6z"/>
		<path class="st1" d="M7078,1975.8c-44.8-44.8-89.7-89.7-134.5-134.5c-3-3-6.3-5.8-8.8-9.1c-4-5.4-3.3-10.4,2.2-14.7
			c7.1-5.5,15-6.3,22.1-1.5c15.4,10.4,30.9,20.8,45.3,32.6c23.4,19.1,45.8,39.4,69.1,58.8c5.2,4.4,12,9.8,18,9.7
			c17-0.4,31,5.9,44.2,14.9c26.3,17.9,46.6,41.8,64.3,68c20,29.4,29.4,63.5,41.4,96.3c0.9,2.6,1.9,6.1,0.8,8.3
			c-2.8,5.8-5.6,12.7-10.5,16.2c-5.7,4-10.7-1.8-15-6.1C7170.5,2068.3,7124.2,2022,7078,1975.8L7078,1975.8z M7216.7,2086.8
			c0.5-0.3,1-0.5,1.4-0.8c-5-14-9.2-28.3-15.2-41.8c-17-38.5-42-70.9-76.1-96c-11.3-8.3-23.5-14.3-38.6-12
			c-4.5,0.7-10.5-2.6-14.4-5.7c-16.3-13.1-32.2-26.7-48.1-40.2c-7.2-6.1-14.4-12.4-21.6-18.6c-0.4,0.4-0.8,0.9-1.2,1.3
			C7074.2,1944.3,7145.4,2015.6,7216.7,2086.8z"/>
		<path class="st1" d="M6602.3,1317c1.9-1.3,4.1-2.5,5.8-4.1c11.8-10.7,23.6-21.4,35.3-32.2c11.3-10.5,22.4-21.1,33.7-31.6
			c3.9-3.7,8.5-5.4,12.9-1.1c4.7,4.5,3.2,9.2-0.8,13.5c-2.4,2.5-4.8,5.1-7.4,7.5c-21.6,19.9-43.3,39.8-64.9,59.7
			c-1.8,1.7-4.6,4.8-4.1,6c1.1,2.5,4.1,4.2,5.8,5.8c6.6-5.9,12.2-10.9,17.7-16c19.9-18.6,39.8-37.3,59.6-56
			c4.5-4.3,9.7-7.2,14.7-1.4c4.9,5.7,1.2,10.5-3.2,14.7c-0.8,0.7-1.6,1.5-2.4,2.2c-22.4,21.1-44.8,42.2-67.2,63.3
			c-0.3,0.3-0.1,0.9-0.2,1.4c9.6,3.6,22.2,1.8,29.4-4.6c15.7-14,31.2-28.2,46.9-42.3c4.2-3.8,8.2-8.1,13-10.8
			c2.6-1.5,7.9-1.5,10,0.3s2.3,6.6,1.9,9.9c-0.3,2.3-2.8,4.5-4.7,6.3c-16.5,15.1-33.5,29.7-49.6,45.3
			c-15.4,14.9-34.3,20.4-52.8,13.1c-16.8-6.6-26.5-1.1-37,9.3c-1.2,1.1-2.5,2-3.7,3.1c-49.9,45.8-99.7,91.8-149.8,137.4
			c-8.1,7.4-17.3,13.9-26.6,19.8c-9.3,5.9-20.8,4-27.4-3.3c-6.2-6.8-5.9-16.2,1.3-25.9c2.7-3.7,6.1-6.9,9.4-10
			c12.2-11.8,24.5-23.6,36.9-35.2c47.9-44.8,95.9-89.6,143.6-134.5c2.2-2.1,3.9-5.7,4-8.7c0.4-11.3,3.4-21.6,11.5-29.4
			c16.4-15.7,33.1-31,49.9-46.2c5.6-5.1,11.7-9.5,17.9-13.9c4.3-3.1,9.2-4.2,13.1,0.5s1.9,9.1-2.1,12.8c-2.2,2-4.7,3.7-6.9,5.6
			c-19.3,17.2-38.9,34.2-57.7,51.9c-4.2,4-5.9,10.6-8.7,16C6600.3,1315.8,6601.3,1316.4,6602.3,1317z M6592.2,1339.9
			c-13.6,6.5-187,170.9-190.4,181.4c3.7-1.6,6.8-2.4,9.1-4.2c6.5-4.8,13.1-9.5,19.1-15c49.6-45.3,99-90.8,148.5-136.2
			c6.5-6,13.5-11.4,21.2-17.9C6596.7,1344.8,6594.4,1342.3,6592.2,1339.9z"/>
		<path class="st1" d="M6016.3,1975.8c24.3,25.6,48.8,51,73,76.8c11,11.7,22.2,23.4,32,36c6.8,8.7,13,18.5,16.6,28.8
			c4.6,13-5.7,23.3-19,19.6c-7.7-2.1-15.9-5.9-21.5-11.4c-29-28.1-57.1-57.2-85.8-85.6c-30.1-29.8-60.5-59.4-90.9-88.8
			c-2-1.9-5.6-3.5-8.2-3.2c-10.6,1.3-20.2-1.1-28.2-7.5c-9.3-7.3-18.6-15-26.5-23.8c-7.7-8.6-10.4-19.9-6.2-30.9
			c6.5-17,18.4-29.7,35.6-36.5c24-9.5,50.8,8.3,59.3,26.7c5.2,11.4,7.8,24,11.9,35.9c1.6,4.6,3.2,9.8,6.4,13.2
			c16.7,17.4,33.9,34.3,51,51.3C6015.9,1976.1,6016.1,1976,6016.3,1975.8z M6107,2096.1c-43.1-50.1-89.9-96.5-136.9-142.9
			c-9.2-9.1-17.9-18.6-26.9-27.9c-3.3-3.4-5.2-7-2.6-11.8c0.6-1,0.9-2.3,0.9-3.5c0.3-17.2-14.5-39.7-30.7-45.4
			c-4.8-1.7-10.8-2.2-15.6-1c-14,3.5-23.1,13.7-27.9,26.5c-1.8,4.8,0.4,13.4,3.9,17.3c7.5,8.4,16.7,15.6,26.1,21.8
			c8.1,5.4,17.6,2.9,25.9-0.9c4.7-2.1,8.9-6.4,13.6-1.5c5,5.2,0.9,9.8-2.7,14.8c1.9,2.1,3.7,4.3,5.8,6.3
			c32.4,31.3,65.1,62.3,97.1,93.9c23.4,23.1,45.8,47.1,69,70.4c4,4.1,9.6,6.6,14.5,9.8c0.9-0.9,1.8-1.8,2.7-2.7
			C6117.9,2111.6,6113.1,2103.3,6107,2096.1z"/>
		<path class="st1" d="M4559.1,1973.9c-1.2-1.8-2.3-3.8-3.8-5.4c-9.9-11-19.9-21.9-29.9-32.8c-9.7-10.5-19.6-20.8-29.3-31.3
			c-3.4-3.7-5-7.9-1.1-12c4.2-4.4,8.6-3,12.5,0.8c2.4,2.3,4.7,4.5,6.9,6.9c18.5,20.1,37,40.3,55.5,60.4c1.6,1.7,4.4,4.3,5.6,3.8
			c2.3-1,3.9-3.8,5.4-5.4c-5.5-6.1-10.1-11.3-14.9-16.4c-17.3-18.5-34.7-36.9-52-55.4c-4-4.2-6.7-9-1.3-13.6c5.3-4.5,9.8-1.1,13.6,3
			c0.7,0.7,1.3,1.5,2,2.2c19.6,20.8,39.2,41.7,58.8,62.5c0.2,0.3,0.9,0.1,1.3,0.2c3.3-8.9,1.7-20.7-4.3-27.3
			c-13-14.6-26.2-29-39.3-43.6c-3.5-3.9-7.5-7.6-10-12.1c-1.4-2.4-1.4-7.4,0.3-9.3c1.7-1.9,6.1-2.2,9.2-1.8c2.1,0.3,4.2,2.6,5.9,4.4
			c14,15.3,27.6,31.1,42.1,46.1c13.8,14.3,19,31.9,12.2,49.1c-6.2,15.6-1,24.6,8.6,34.4c1.1,1.1,1.9,2.3,2.9,3.5
			c42.6,46.4,85.3,92.6,127.7,139.2c6.9,7.6,12.9,16,18.4,24.7s3.7,19.3-3,25.5c-6.3,5.8-15,5.5-24.1-1.2c-3.4-2.5-6.4-5.7-9.3-8.7
			c-11-11.4-21.9-22.8-32.7-34.3c-41.7-44.5-83.2-89.1-125-133.5c-1.9-2-5.3-3.7-8.1-3.8c-10.5-0.3-20-3.1-27.3-10.7
			c-14.6-15.2-28.8-30.7-42.9-46.3c-4.7-5.2-8.8-10.9-12.9-16.6c-2.9-4-3.9-8.5,0.5-12.1s8.5-1.8,11.9,1.9c1.9,2,3.4,4.3,5.2,6.4
			c16,18,31.8,36.1,48.3,53.6c3.7,3.9,9.9,5.5,14.9,8.1C4558,1975.8,4558.6,1974.9,4559.1,1973.9z M4580.4,1983.3
			c6,12.7,158.8,173.8,168.6,176.9c-1.5-3.5-2.3-6.3-3.9-8.5c-4.4-6.1-8.9-12.2-13.9-17.7c-42.1-46.1-84.4-92-126.6-138
			c-5.6-6.1-10.6-12.6-16.6-19.7C4585,1979.2,4582.6,1981.3,4580.4,1983.3z"/>
		<path class="st1" d="M5269.6,1388.2c-46.3,46.3-92.7,92.7-139,139c-3.1,3.1-5.9,6.6-9.4,9.1c-5.6,4.1-10.8,3.4-15.2-2.3
			c-5.7-7.4-6.5-15.5-1.6-22.9c10.7-16,21.5-31.9,33.7-46.8c19.7-24.2,40.8-47.4,60.8-71.4c4.5-5.4,10.1-12.4,10-18.6
			c-0.4-17.5,6.1-32.1,15.4-45.7c18.5-27.2,43.2-48.1,70.3-66.5c30.4-20.7,65.6-30.4,99.6-42.8c2.7-1,6.3-1.9,8.5-0.9
			c6,2.9,13.2,5.8,16.8,10.9c4.2,5.9-1.9,11.1-6.3,15.5C5365.2,1292.6,5317.4,1340.4,5269.6,1388.2L5269.6,1388.2z M5384.4,1244.9
			c-0.3-0.5-0.5-1-0.8-1.5c-14.4,5.2-29.2,9.5-43.2,15.7c-39.8,17.5-73.3,43.5-99.2,78.6c-8.6,11.7-14.7,24.3-12.4,39.9
			c0.7,4.6-2.7,10.8-5.9,14.9c-13.5,16.9-27.6,33.2-41.6,49.8c-6.3,7.5-12.8,14.9-19.2,22.3c0.5,0.4,0.9,0.8,1.4,1.2
			C5237,1392.2,5310.7,1318.6,5384.4,1244.9z"/>
		<path class="st1" d="M4030.6,1404.3c-28.1,26.7-56,53.6-84.3,80.1c-12.8,12.1-25.6,24.3-39.5,35.2c-9.5,7.4-20.3,14.2-31.6,18.3
			c-14.3,5.1-25.5-6.2-21.5-20.9c2.3-8.4,6.5-17.4,12.5-23.6c30.9-31.8,62.8-62.7,94-94.2c32.7-33.1,65.2-66.4,97.5-99.8
			c2.1-2.2,3.9-6.1,3.5-9c-1.5-11.6,1.3-22.1,8.2-31c8-10.3,16.5-20.4,26.2-29.1c9.4-8.4,21.8-11.4,33.9-6.8
			c18.6,7.2,32.6,20.2,40.1,39.1c10.4,26.3-9.1,55.8-29.3,65.1c-12.5,5.8-26.3,8.5-39.4,13c-5.1,1.7-10.8,3.5-14.5,7.1
			c-19.1,18.3-37.6,37.3-56.3,56C4030.2,1403.9,4030.4,1404.1,4030.6,1404.3z M3898.5,1503.8c55-47.3,106-98.7,156.8-150.3
			c9.9-10.1,20.4-19.6,30.6-29.5c3.7-3.6,7.7-5.7,12.9-2.9c1.1,0.6,2.5,1,3.8,1c18.9,0.4,43.6-15.9,49.8-33.7
			c1.8-5.2,2.4-11.8,1.1-17.1c-3.9-15.3-15.1-25.4-29.1-30.6c-5.2-2-14.7,0.4-19,4.3c-9.2,8.3-17.1,18.3-23.9,28.6
			c-5.9,8.9-3.2,19.3,1,28.4c2.4,5.1,7.1,9.7,1.7,15c-5.7,5.5-10.8,0.9-16.2-2.9c-2.3,2.1-4.7,4.1-6.9,6.3
			c-34.3,35.6-68.4,71.4-103.1,106.6c-25.3,25.7-51.7,50.3-77.2,75.8c-4.5,4.4-7.2,10.6-10.7,15.9c1,1,2,2,2.9,3
			C3881.5,1515.8,3890.6,1510.6,3898.5,1503.8z"/>
		<path class="st1" d="M6522.4,2753.7c-2.1,1.4-4.3,2.7-6.2,4.3c-12.6,11.4-25.2,22.8-37.6,34.3c-12,11.1-23.9,22.5-35.9,33.6
			c-4.2,3.9-9.1,5.7-13.8,1.2c-5-4.8-3.5-9.8,0.9-14.4c2.6-2.7,5.2-5.4,7.9-8c23.1-21.2,46.2-42.4,69.2-63.7c1.9-1.8,5-5.1,4.4-6.4
			c-1.1-2.7-4.3-4.4-6.2-6.2c-7,6.3-13,11.6-18.9,17.1c-21.2,19.9-42.4,39.8-63.6,59.7c-4.8,4.6-10.3,7.6-15.6,1.5
			c-5.2-6-1.3-11.2,3.4-15.7c0.8-0.8,1.7-1.5,2.5-2.3c23.9-22.5,47.8-44.9,71.6-67.4c0.3-0.3,0.2-1,0.2-1.5
			c-10.2-3.8-23.7-1.9-31.3,4.9c-16.7,14.9-33.3,30.1-50,45.1c-4.5,4-8.7,8.6-13.9,11.5c-2.8,1.6-8.5,1.6-10.6-0.3
			c-2.2-1.9-2.5-7-2.1-10.6c0.3-2.4,3-4.8,5-6.7c17.6-16.1,35.7-31.7,52.8-48.3c16.4-15.8,36.6-21.7,56.3-14
			c17.9,7.1,28.3,1.2,39.5-9.9c1.2-1.2,2.7-2.2,4-3.3c53.2-48.8,106.2-97.8,159.6-146.4c8.7-7.9,18.4-14.8,28.3-21.1
			s22.1-4.3,29.2,3.5c6.6,7.2,6.3,17.2-1.3,27.6c-2.9,3.9-6.5,7.3-10,10.7c-13.1,12.6-26.1,25.1-39.3,37.5
			c-51,47.8-102.2,95.5-153.1,143.4c-2.3,2.2-4.2,6.1-4.3,9.3c-0.4,12-3.6,23-12.3,31.3c-17.4,16.7-35.2,33-53.1,49.2
			c-6,5.4-12.5,10.1-19,14.8c-4.6,3.3-9.8,4.5-13.9-0.5c-4.2-5-2.1-9.7,2.2-13.6c2.3-2.1,5-3.9,7.3-6c20.6-18.4,41.4-36.5,61.5-55.4
			c4.5-4.2,6.3-11.3,9.3-17.1C6524.5,2754.9,6523.5,2754.3,6522.4,2753.7z M6533.2,2729.3c14.5-6.9,199.3-182.1,202.9-193.4
			c-4,1.8-7.2,2.6-9.8,4.4c-7,5.1-14,10.2-20.3,16c-52.8,48.3-105.5,96.8-158.3,145.2c-7,6.4-14.4,12.2-22.6,19
			C6528.4,2724,6530.8,2726.7,6533.2,2729.3z"/>
		<path class="st1" d="M4011.4,2698.9c-46.8,46.8-93.6,93.6-140.5,140.4c-3.1,3.1-6,6.6-9.5,9.2c-5.6,4.2-10.9,3.5-15.4-2.3
			c-5.8-7.4-6.6-15.6-1.6-23.1c10.8-16.1,21.8-32.3,34-47.3c19.9-24.5,41.2-47.9,61.4-72.1c4.5-5.4,10.2-12.6,10.1-18.8
			c-0.4-17.7,6.2-32.4,15.5-46.2c18.7-27.5,43.7-48.6,71-67.2c30.8-20.9,66.3-30.7,100.6-43.2c2.7-1,6.4-2,8.6-0.9
			c6.1,3,13.3,5.9,16.9,11c4.2,6-1.9,11.2-6.4,15.7C4108,2602.4,4059.7,2650.7,4011.4,2698.9
			C4011.4,2699,4011.4,2698.9,4011.4,2698.9z M4127.4,2554.2c-0.3-0.5-0.5-1-0.8-1.5c-14.6,5.2-29.5,9.6-43.6,15.9
			c-40.2,17.7-74.1,43.9-100.2,79.5c-8.7,11.8-14.9,24.5-12.5,40.3c0.7,4.7-2.7,10.9-6,15c-13.6,17.1-27.9,33.6-42,50.3
			c-6.4,7.6-12.9,15-19.4,22.5c0.5,0.4,0.9,0.8,1.4,1.2C3978.5,2703,4053,2628.6,4127.4,2554.2z"/>
		<path class="st1" d="M5358.7,2701.8c-28.8,27.4-57.4,54.8-86.3,82c-13.2,12.4-26.3,24.9-40.5,36c-9.8,7.6-20.8,14.6-32.4,18.7
			c-14.6,5.2-26.2-6.4-22-21.4c2.4-8.6,6.7-17.9,12.8-24.2c31.6-32.6,64.3-64.2,96.2-96.5c33.5-33.9,66.7-68,99.9-102.2
			c2.2-2.2,4-6.3,3.6-9.2c-1.5-11.9,1.3-22.7,8.4-31.8c8.2-10.5,16.9-20.9,26.8-29.8c9.6-8.6,22.4-11.7,34.7-7
			c19.1,7.3,33.4,20.7,41.1,40c10.7,27-9.3,57.1-30,66.7c-12.8,5.9-26.9,8.7-40.4,13.4c-5.2,1.8-11,3.6-14.8,7.2
			c-19.5,18.8-38.5,38.2-57.7,57.3C5358.3,2701.5,5358.5,2701.7,5358.7,2701.8z M5223.4,2803.8c56.3-48.4,108.5-101.1,160.6-153.9
			c10.2-10.3,20.9-20.1,31.3-30.2c3.8-3.7,7.9-5.8,13.2-3c1.2,0.6,2.6,1,3.9,1c19.4,0.4,44.6-16.3,51-34.6
			c1.9-5.4,2.5-12.1,1.1-17.6c-4-15.7-15.4-26-29.8-31.4c-5.4-2-15,0.4-19.5,4.4c-9.4,8.5-17.5,18.7-24.5,29.3
			c-6.1,9.2-3.3,19.8,1,29.1c2.4,5.2,7.2,10,1.7,15.3c-5.8,5.6-11,1-16.6-3c-2.4,2.2-4.9,4.2-7.1,6.5
			c-35.2,36.4-70,73.2-105.6,109.2c-25.9,26.3-52.9,51.5-79.1,77.6c-4.6,4.5-7.4,10.8-11,16.3c1,1,2,2,3,3
			C5205.9,2816.1,5215.3,2810.8,5223.4,2803.8z"/>
		<path class="st1" d="M3309.1,2031.6c-44.9-44.9-89.8-89.8-134.7-134.7c-3-3-6.4-5.8-8.9-9.1c-4-5.4-3.3-10.5,2.2-14.8
			c7.1-5.5,15-6.3,22.2-1.5c15.5,10.4,30.9,20.9,45.4,32.6c23.5,19.1,45.9,39.5,69.2,58.9c5.2,4.4,12.1,9.8,18,9.7
			c17-0.4,31.1,5.9,44.3,14.9c26.4,17.9,46.6,41.9,64.4,68.1c20,29.5,29.4,63.6,41.4,96.5c0.9,2.6,1.9,6.1,0.8,8.3
			c-2.9,5.8-5.6,12.8-10.5,16.2c-5.7,4.1-10.7-1.8-15-6.1C3401.7,2124.2,3355.4,2077.9,3309.1,2031.6L3309.1,2031.6z M3447.9,2142.8
			c0.5-0.3,1-0.5,1.4-0.8c-5-14-9.2-28.3-15.2-41.9c-17-38.6-42.1-71.1-76.2-96.1c-11.3-8.3-23.5-14.3-38.7-12
			c-4.5,0.7-10.5-2.6-14.4-5.8c-16.4-13.1-32.2-26.8-48.2-40.3c-7.3-6.1-14.4-12.4-21.6-18.6c-0.4,0.4-0.8,0.9-1.2,1.3
			C3305.2,2000.1,3376.6,2071.4,3447.9,2142.8z"/>
		<path class="st1" d="M2740.3,1323.9c1.9-1.3,3.9-2.4,5.6-3.9c11.4-10.3,22.9-20.7,34.2-31.2c10.9-10.1,21.7-20.4,32.6-30.6
			c3.8-3.6,8.3-5.2,12.5-1.1c4.6,4.4,3.1,8.9-0.8,13.1c-2.3,2.5-4.7,4.9-7.2,7.2c-21,19.3-42,38.5-62.9,57.9c-1.8,1.6-4.5,4.6-4,5.8
			c1,2.4,4,4,5.7,5.6c6.4-5.8,11.8-10.6,17.1-15.5c19.3-18.1,38.5-36.2,57.8-54.3c4.4-4.1,9.4-6.9,14.2-1.3
			c4.7,5.5,1.1,10.2-3.1,14.2c-0.8,0.7-1.6,1.4-2.3,2.1c-21.7,20.4-43.4,40.8-65.1,61.3c-0.3,0.3-0.1,0.9-0.2,1.4
			c9.3,3.4,21.5,1.7,28.5-4.5c15.2-13.6,30.3-27.3,45.4-41c4.1-3.7,8-7.8,12.6-10.5c2.5-1.4,7.7-1.4,9.6,0.3c2,1.7,2.3,6.4,1.9,9.6
			c-0.3,2.2-2.7,4.4-4.6,6.1c-16,14.7-32.5,28.8-48,43.9c-14.9,14.4-33.3,19.8-51.2,12.7c-16.3-6.4-25.7-1.1-35.9,9
			c-1.1,1.1-2.4,2-3.6,3c-48.3,44.4-96.6,88.9-145.1,133.1c-7.9,7.2-16.7,13.4-25.7,19.2c-9,5.7-20.1,3.9-26.6-3.2
			c-6-6.6-5.7-15.7,1.2-25.1c2.6-3.6,5.9-6.7,9.1-9.7c11.9-11.4,23.7-22.9,35.8-34.1c46.4-43.4,92.9-86.8,139.2-130.3
			c2.1-2,3.8-5.6,3.9-8.5c0.4-10.9,3.2-20.9,11.2-28.5c15.8-15.2,32-30,48.3-44.7c5.4-4.9,11.4-9.2,17.3-13.5
			c4.2-3,8.9-4.1,12.7,0.5s1.9,8.8-2,12.4c-2.1,1.9-4.5,3.6-6.7,5.5c-18.7,16.7-37.7,33.2-55.9,50.3c-4.1,3.8-5.7,10.3-8.5,15.5
			C2738.3,1322.7,2739.3,1323.3,2740.3,1323.9z M2730.5,1346.1c-13.2,6.3-181.2,165.6-184.5,175.8c3.6-1.6,6.6-2.4,8.9-4
			c6.3-4.6,12.7-9.3,18.5-14.5c48-43.9,95.9-88,143.9-132c6.3-5.8,13.1-11.1,20.5-17.3C2734.9,1350.8,2732.6,1348.4,2730.5,1346.1z"
			/>
		<path class="st1" d="M2112.8,2052.3c27.1,28.5,54.4,56.9,81.3,85.6c12.3,13,24.7,26,35.7,40.1c7.6,9.7,14.5,20.6,18.5,32.1
			c5.1,14.5-6.3,25.9-21.2,21.8c-8.6-2.4-17.7-6.6-24-12.7c-32.3-31.3-63.7-63.7-95.7-95.4c-33.6-33.2-67.4-66.2-101.4-99
			c-2.2-2.1-6.2-3.9-9.1-3.6c-11.8,1.5-22.5-1.3-31.5-8.3c-10.4-8.1-20.7-16.7-29.5-26.6c-8.5-9.5-11.6-22.2-6.9-34.4
			c7.3-18.9,20.5-33.1,39.7-40.7c26.7-10.6,56.6,9.2,66.1,29.8c5.8,12.7,8.7,26.7,13.2,40c1.8,5.2,3.6,10.9,7.2,14.7
			c18.6,19.4,37.8,38.2,56.9,57.2C2112.4,2052.7,2112.6,2052.5,2112.8,2052.3z M2213.9,2186.5c-48-55.8-100.2-107.6-152.6-159.3
			c-10.2-10.1-19.9-20.7-29.9-31.1c-3.7-3.8-5.8-7.8-3-13.1c0.6-1.2,1-2.6,1-3.9c0.4-19.2-16.1-44.2-34.3-50.6
			c-5.3-1.9-12-2.5-17.4-1.1c-15.6,3.9-25.8,15.3-31.1,29.6c-2,5.3,0.4,14.9,4.4,19.3c8.4,9.3,18.6,17.4,29.1,24.3
			c9.1,6,19.6,3.3,28.9-1c5.2-2.4,9.9-7.2,15.2-1.7c5.6,5.8,0.9,10.9-3,16.5c2.2,2.4,4.2,4.8,6.4,7c36.1,34.9,72.5,69.4,108.3,104.7
			c26.1,25.7,51.1,52.5,77,78.4c4.5,4.5,10.7,7.3,16.2,10.9c1-1,2-2,3-3C2226.1,2203.7,2220.8,2194.4,2213.9,2186.5z"/>
		<path class="st1" d="M611.2,2068c-1.4-2-2.6-4.2-4.2-6c-11-12.2-22-24.3-33.2-36.4c-10.8-11.6-21.7-23.1-32.5-34.7
			c-3.8-4.1-5.5-8.8-1.2-13.4c4.6-4.9,9.5-3.3,13.9,0.8c2.6,2.5,5.3,5,7.7,7.7c20.5,22.3,41,44.7,61.6,67c1.7,1.9,4.9,4.8,6.2,4.3
			c2.6-1.1,4.3-4.2,6-6c-6.1-6.8-11.2-12.6-16.5-18.2c-19.2-20.5-38.5-41-57.7-61.5c-4.4-4.7-7.4-10-1.4-15.1
			c5.8-5,10.8-1.2,15.1,3.3c0.8,0.8,1.5,1.7,2.3,2.5c21.7,23.1,43.5,46.2,65.2,69.3c0.3,0.3,1,0.2,1.5,0.2
			c3.7-9.9,1.8-22.9-4.7-30.3c-14.4-16.2-29.1-32.2-43.6-48.3c-3.9-4.3-8.3-8.5-11.1-13.5c-1.5-2.7-1.5-8.2,0.3-10.3
			c1.8-2.1,6.8-2.4,10.2-2c2.3,0.3,4.7,2.9,6.5,4.9c15.6,17,30.7,34.5,46.7,51.1c15.3,15.8,21,35.4,13.5,54.5
			c-6.8,17.3-1.1,27.3,9.5,38.2c1.2,1.2,2.1,2.6,3.2,3.8c47.2,51.4,94.6,102.8,141.6,154.4c7.6,8.4,14.3,17.8,20.4,27.4
			c6.1,9.6,4.1,21.4-3.4,28.3c-7,6.4-16.7,6.1-26.7-1.3c-3.8-2.8-7.1-6.3-10.4-9.7c-12.2-12.6-24.3-25.3-36.3-38.1
			c-46.2-49.4-92.3-98.8-138.7-148.1c-2.1-2.3-5.9-4.1-9-4.2c-11.6-0.4-22.2-3.5-30.3-11.9c-16.2-16.9-31.9-34.1-47.6-51.4
			c-5.2-5.8-9.8-12.1-14.4-18.4c-3.2-4.4-4.3-9.5,0.5-13.5c4.9-4,9.4-2,13.2,2.1c2.1,2.3,3.8,4.8,5.8,7.1
			c17.8,19.9,35.3,40.1,53.6,59.5c4.1,4.3,11,6.1,16.5,9C609.9,2070.1,610.5,2069,611.2,2068z M634.8,2078.4
			c6.7,14,176.2,192.8,187,196.3c-1.7-3.8-2.5-7-4.3-9.4c-4.9-6.7-9.8-13.5-15.5-19.7c-46.7-51.1-93.7-102.1-140.4-153.1
			c-6.2-6.7-11.8-14-18.4-21.8C639.8,2073.8,637.2,2076.1,634.8,2078.4z"/>
		<path class="st1" d="M1332.7,1380c-41.5,41.5-83,83-124.4,124.4c-2.8,2.8-5.3,5.9-8.4,8.2c-5,3.7-9.7,3.1-13.6-2.1
			c-5.1-6.6-5.8-13.9-1.4-20.5c9.6-14.3,19.3-28.6,30.1-41.9c17.7-21.7,36.5-42.4,54.4-63.9c4-4.8,9.1-11.1,8.9-16.7
			c-0.4-15.7,5.5-28.7,13.8-40.9c16.6-24.4,38.7-43.1,62.9-59.5c27.2-18.5,58.7-27.2,89.1-38.3c2.4-0.9,5.7-1.7,7.6-0.8
			c5.4,2.6,11.8,5.2,15,9.7c3.7,5.3-1.7,9.9-5.7,13.9C1418.2,1294.5,1375.5,1337.3,1332.7,1380L1332.7,1380z M1435.4,1251.7
			c-0.2-0.4-0.5-0.9-0.7-1.3c-12.9,4.6-26.1,8.5-38.7,14.1c-35.6,15.7-65.7,38.9-88.8,70.4c-7.7,10.4-13.2,21.7-11.1,35.7
			c0.6,4.1-2.4,9.7-5.3,13.3c-12.1,15.1-24.7,29.8-37.2,44.5c-5.7,6.7-11.5,13.3-17.2,20c0.4,0.4,0.8,0.7,1.2,1.1
			C1303.6,1383.6,1369.5,1317.7,1435.4,1251.7z"/>
		<path class="st1" d="M41.3,1394.3c-25.1,23.9-50,47.8-75.2,71.5c-11.5,10.8-22.9,21.7-35.3,31.4c-8.5,6.6-18.1,12.7-28.2,16.3
			c-12.7,4.5-22.8-5.6-19.2-18.6c2.1-7.5,5.8-15.6,11.2-21.1c27.6-28.4,56-56,83.9-84.1c29.2-29.5,58.2-59.3,87.1-89.1
			c1.9-1.9,3.4-5.5,3.1-8c-1.3-10.4,1.1-19.8,7.3-27.7c7.2-9.2,14.7-18.2,23.4-25.9c8.4-7.5,19.5-10.2,30.2-6.1
			c16.6,6.4,29.1,18,35.8,34.9c9.3,23.5-8.1,49.8-26.2,58.1c-11.1,5.1-23.5,7.6-35.2,11.6c-4.5,1.6-9.6,3.1-12.9,6.3
			c-17,16.4-33.6,33.3-50.3,50C41,1394,41.2,1394.1,41.3,1394.3z M-76.6,1483.2c49.1-42.2,94.6-88.1,140-134.1
			c8.9-9,18.2-17.5,27.3-26.3c3.3-3.2,6.9-5.1,11.5-2.6c1,0.5,2.3,0.9,3.4,0.9c16.9,0.3,38.9-14.2,44.5-30.1
			c1.6-4.7,2.2-10.5,1-15.3c-3.4-13.7-13.5-22.7-26-27.4c-4.7-1.8-13.1,0.3-17,3.8c-8.2,7.4-15.3,16.3-21.4,25.6
			c-5.3,8-2.9,17.2,0.9,25.4c2.1,4.6,6.3,8.7,1.5,13.4c-5.1,4.9-9.6,0.8-14.5-2.6c-2.1,1.9-4.2,3.7-6.2,5.7
			c-30.7,31.7-61,63.8-92,95.2c-22.6,22.9-46.1,44.9-69,67.7c-4,4-6.4,9.4-9.6,14.2c0.9,0.9,1.7,1.8,2.6,2.7
			C-91.8,1493.9-83.6,1489.3-76.6,1483.2z"/>
		<path class="st1" d="M2681,2749.4c-2,1.3-4.1,2.5-5.8,4.1c-11.8,10.7-23.7,21.4-35.4,32.3c-11.3,10.5-22.5,21.1-33.8,31.7
			c-4,3.7-8.6,5.4-13,1.1c-4.7-4.5-3.3-9.3,0.8-13.5c2.4-2.5,4.9-5.1,7.4-7.5c21.7-20,43.5-39.9,65.1-59.9c1.8-1.7,4.7-4.8,4.1-6
			c-1.1-2.5-4.1-4.2-5.9-5.8c-6.6,6-12.2,10.9-17.7,16.1c-20,18.7-39.9,37.4-59.8,56.1c-4.6,4.3-9.7,7.2-14.7,1.4
			c-4.9-5.7-1.2-10.5,3.2-14.7c0.8-0.7,1.6-1.5,2.4-2.2c22.5-21.1,44.9-42.3,67.4-63.4c0.3-0.3,0.1-0.9,0.2-1.4
			c-9.6-3.6-22.3-1.8-29.5,4.6c-15.8,14-31.3,28.3-47,42.4c-4.2,3.8-8.2,8.1-13.1,10.8c-2.6,1.5-8,1.5-10-0.3
			c-2.1-1.8-2.3-6.6-1.9-10c0.3-2.3,2.8-4.6,4.7-6.3c16.6-15.2,33.6-29.8,49.7-45.4c15.4-14.9,34.4-20.5,53-13.1
			c16.8,6.6,26.6,1.1,37.1-9.3c1.2-1.1,2.5-2,3.7-3.1c50-46,100-92,150.2-137.8c8.1-7.4,17.3-13.9,26.6-19.8
			c9.3-5.9,20.8-4,27.5,3.3c6.2,6.8,5.9,16.2-1.3,26c-2.7,3.7-6.1,6.9-9.4,10.1c-12.3,11.8-24.6,23.7-37,35.3
			c-48,45-96.1,89.8-144,134.9c-2.2,2.1-4,5.8-4.1,8.8c-0.4,11.3-3.4,21.6-11.6,29.5c-16.4,15.7-33.2,31-50,46.3
			c-5.6,5.1-11.8,9.5-17.9,14c-4.3,3.1-9.2,4.2-13.1-0.5c-3.9-4.7-2-9.1,2.1-12.8c2.2-2,4.7-3.7,6.9-5.7
			c19.4-17.3,39-34.3,57.9-52.1c4.2-4,5.9-10.7,8.8-16.1C2683,2750.5,2682,2750,2681,2749.4z M2691.1,2726.4
			c13.7-6.5,187.5-171.4,191-181.9c-3.7,1.7-6.8,2.4-9.2,4.2c-6.5,4.8-13.2,9.6-19.1,15c-49.7,45.5-99.3,91.1-149,136.6
			c-6.5,6-13.6,11.5-21.2,17.9C2686.6,2721.5,2688.9,2724,2691.1,2726.4z"/>
		<path class="st1" d="M27.6,2720.8c-43.1,43.1-86.1,86.1-129.2,129.2c-2.9,2.9-5.5,6.1-8.8,8.5c-5.2,3.8-10,3.2-14.2-2.1
			c-5.3-6.8-6.1-14.4-1.4-21.3c10-14.8,20-29.7,31.3-43.5c18.3-22.5,37.9-44,56.5-66.4c4.2-5,9.4-11.6,9.3-17.3
			c-0.4-16.3,5.7-29.8,14.3-42.5c17.2-25.3,40.2-44.7,65.3-61.8c28.3-19.2,61-28.2,92.5-39.7c2.5-0.9,5.9-1.8,7.9-0.8
			c5.6,2.7,12.2,5.4,15.6,10.1c3.9,5.5-1.8,10.3-5.9,14.4C116.4,2632,72,2676.4,27.6,2720.8L27.6,2720.8z M134.2,2587.7
			c-0.2-0.5-0.5-0.9-0.7-1.4c-13.4,4.8-27.1,8.9-40.1,14.6c-37,16.3-68.2,40.4-92.2,73.1c-8,10.8-13.7,22.5-11.5,37.1
			c0.6,4.3-2.5,10.1-5.5,13.8c-12.5,15.7-25.7,30.9-38.7,46.2c-5.9,7-11.9,13.8-17.9,20.7c0.4,0.4,0.9,0.8,1.3,1.1
			C-2.7,2724.6,65.8,2656.1,134.2,2587.7z"/>
		<path class="st1" d="M1426.8,2723.1c-26.8,25.5-53.4,51-80.3,76.3c-12.2,11.5-24.4,23.2-37.7,33.5c-9.1,7.1-19.3,13.6-30.1,17.4
			c-13.6,4.8-24.3-5.9-20.5-19.9c2.2-8,6.2-16.6,11.9-22.5c29.4-30.3,59.8-59.7,89.5-89.8c31.2-31.5,62.1-63.3,92.9-95.1
			c2-2.1,3.7-5.8,3.3-8.5c-1.4-11,1.2-21.1,7.8-29.5c7.6-9.8,15.7-19.5,24.9-27.7c9-8,20.8-10.9,32.3-6.5
			c17.8,6.8,31.1,19.2,38.2,37.2c10,25.1-8.6,53.2-27.9,62c-11.9,5.5-25.1,8.1-37.5,12.4c-4.8,1.7-10.3,3.4-13.8,6.7
			c-18.2,17.5-35.8,35.5-53.7,53.3C1426.4,2722.8,1426.6,2722.9,1426.8,2723.1z M1300.9,2818c52.4-45,101-94.1,149.5-143.2
			c9.5-9.6,19.5-18.7,29.2-28.1c3.6-3.4,7.4-5.4,12.3-2.8c1.1,0.6,2.4,0.9,3.6,1c18,0.4,41.5-15.1,47.5-32.2c1.8-5,2.3-11.3,1-16.3
			c-3.7-14.6-14.4-24.2-27.8-29.2c-5-1.9-14,0.4-18.1,4.1c-8.7,7.9-16.3,17.4-22.8,27.3c-5.6,8.5-3.1,18.4,0.9,27.1
			c2.2,4.9,6.7,9.3,1.6,14.3c-5.4,5.2-10.3,0.9-15.5-2.8c-2.2,2-4.5,3.9-6.6,6c-32.7,33.9-65.1,68.1-98.2,101.6
			c-24.1,24.5-49.3,48-73.6,72.2c-4.2,4.2-6.9,10.1-10.2,15.2c0.9,0.9,1.9,1.9,2.8,2.8C1284.7,2829.5,1293.4,2824.5,1300.9,2818z"/>
		<path class="st1" d="M135,57.9C92.9,100,50.9,142.1,8.8,184.2c-3.9,3.9-8.4,9.3-13.7,5.6c-4.5-3.2-7-9.5-9.6-14.8
			c-0.9-1.9-0.1-5.2,0.8-7.5c10.9-30,19.5-60.9,37.7-87.7C40.1,56,58.6,34.2,82.5,17.9c12-8.2,24.8-13.9,40.3-13.5
			c5.4,0.1,11.6-4.8,16.4-8.8C160.3-22,180.7-40.5,202-57.9c13.1-10.7,27.2-20.2,41.2-29.6c6.5-4.4,13.7-3.7,20.2,1.4
			c5.1,3.9,5.6,8.5,2,13.4c-2.3,3.1-5.3,5.6-8,8.3C216.6-23.7,175.8,17.1,135,57.9L135,57.9z M203.4-35.6c-0.4-0.4-0.7-0.8-1.1-1.2
			c-6.5,5.6-13,11.3-19.6,16.9c-14.5,12.3-28.9,24.7-43.8,36.6c-3.6,2.9-9,5.8-13.1,5.2c-13.8-2.1-24.9,3.4-35.2,10.9
			c-31,22.8-53.8,52.3-69.2,87.3c-5.4,12.3-9.3,25.3-13.8,38c0.4,0.2,0.9,0.5,1.3,0.7C73.7,94.1,138.5,29.3,203.4-35.6z"/>
		<path class="st1" d="M1271.1,86.8c17.5-17.5,35.1-34.8,52.3-52.6c3.3-3.5,5-8.8,6.6-13.5c4.2-12.2,6.8-25.1,12.2-36.8
			c8.7-18.9,36.2-37.1,60.8-27.4c17.6,7,29.8,20,36.5,37.5c4.3,11.2,1.5,22.8-6.3,31.6c-8.1,9-17.5,16.9-27.1,24.4
			c-8.3,6.5-18.1,9-28.9,7.7c-2.6-0.3-6.3,1.3-8.4,3.3c-31.2,30.2-62.3,60.5-93.2,91.1c-29.4,29.1-58.2,58.9-87.9,87.7
			c-5.8,5.6-14.2,9.5-22,11.7c-13.7,3.8-24.2-6.7-19.5-20c3.7-10.5,10.1-20.6,17-29.5c10.1-13,21.5-24.9,32.8-36.9
			c24.8-26.4,49.8-52.5,74.8-78.7C1270.8,86.5,1271,86.7,1271.1,86.8z M1160.9,233.5c0.9,0.9,1.8,1.8,2.8,2.7
			c5-3.3,10.7-5.9,14.9-10c23.8-23.9,46.8-48.5,70.7-72.1c32.9-32.4,66.4-64.2,99.6-96.2c2.1-2,3.9-4.3,5.9-6.4
			c-3.6-5.1-7.9-9.9-2.7-15.2c4.9-5,9.2-0.6,14,1.6c8.5,3.9,18.2,6.5,26.5,0.9c9.7-6.4,19-13.8,26.7-22.4c3.7-4.1,5.8-12.9,4-17.8
			c-4.9-13.1-14.3-23.6-28.6-27.2c-5-1.3-11.1-0.7-16,1c-16.7,5.9-31.8,28.9-31.5,46.5c0,1.2,0.4,2.5,0.9,3.6
			c2.6,4.9,0.7,8.6-2.7,12.1c-9.2,9.5-18.1,19.3-27.5,28.6c-48.1,47.5-96.1,95.1-140.3,146.4C1171.3,217,1166.4,225.5,1160.9,233.5z
			"/>
		<path class="st1" d="M2778.9,94.5c4.8-2.5,10.7-4,14.2-7.7c15.7-16.7,30.8-34,46-51.1c1.7-2,3.2-4.2,5-6.1
			c3.2-3.6,7.1-5.3,11.3-1.8c4.2,3.4,3.2,7.8,0.4,11.6c-3.9,5.4-7.9,10.9-12.3,15.8c-13.5,14.9-27,29.7-40.9,44.2
			c-6.9,7.2-16,9.9-26,10.2c-2.6,0.1-5.9,1.6-7.7,3.6c-39.8,42.3-79.4,84.8-119.2,127.3c-10.3,11-20.7,21.8-31.2,32.7
			c-2.8,2.9-5.6,5.9-8.9,8.3c-8.6,6.4-17,6.6-22.9,1.1c-6.4-5.9-8.1-16-2.9-24.3c5.2-8.2,11-16.3,17.5-23.5
			c40.4-44.4,81.1-88.5,121.7-132.7c1-1.1,1.8-2.3,2.8-3.3c9.2-9.3,14.1-17.9,8.2-32.8c-6.5-16.4-1.5-33.2,11.6-46.8
			c13.8-14.2,26.7-29.3,40.1-43.9c1.6-1.7,3.6-3.9,5.6-4.2c2.9-0.4,7.2-0.1,8.8,1.7c1.6,1.8,1.6,6.5,0.3,8.8
			c-2.4,4.3-6.2,7.8-9.6,11.6c-12.5,13.9-25,27.6-37.4,41.5c-5.7,6.4-7.2,17.6-4.1,26.1c0.4-0.1,1,0.1,1.3-0.2
			c18.7-19.8,37.4-39.7,56-59.5c0.7-0.7,1.3-1.4,1.9-2.1c3.7-3.9,8-7.1,13-2.8c5.1,4.4,2.6,9-1.2,13c-16.5,17.6-33.1,35.2-49.6,52.8
			c-4.5,4.9-8.9,9.8-14.2,15.7c1.4,1.6,2.9,4.2,5.1,5.2c1.1,0.5,3.8-2,5.3-3.7c17.7-19.1,35.3-38.4,52.9-57.5
			c2.1-2.3,4.4-4.4,6.6-6.6c3.8-3.6,7.9-4.9,11.9-0.7c3.7,3.9,2.2,8-1,11.5c-9.3,10-18.7,19.8-28,29.8
			c-9.6,10.3-19.1,20.8-28.5,31.3c-1.4,1.5-2.4,3.4-3.6,5.1C2777.9,92.7,2778.4,93.6,2778.9,94.5z M2749.8,94.1
			c-5.7,6.8-10.5,13-15.8,18.8c-40.2,43.9-80.5,87.7-120.7,131.6c-4.8,5.3-9.1,11.1-13.3,16.9c-1.5,2.1-2.2,4.8-3.7,8.1
			c9.3-3,155-156.6,160.7-168.7C2755,98.9,2752.7,96.8,2749.8,94.1z"/>
		<path class="st1" d="M656.4,809.1c2.5,4.8,4,10.6,7.7,14.1c16.6,15.6,33.8,30.6,50.8,45.7c1.9,1.7,4.1,3.2,6.1,5
			c3.5,3.2,5.3,7.1,1.8,11.2c-3.4,4.1-7.7,3.2-11.5,0.4c-5.4-3.9-10.8-7.8-15.7-12.3c-14.8-13.4-29.5-26.8-43.9-40.6
			c-7.2-6.9-9.8-15.9-10.1-25.9c-0.1-2.6-1.6-5.9-3.6-7.7c-42.1-39.6-84.3-79-126.5-118.4c-10.9-10.2-21.7-20.6-32.5-31
			c-2.9-2.8-5.9-5.6-8.3-8.8c-6.3-8.6-6.6-16.8-1.1-22.8c5.9-6.4,16-8.1,24.2-2.9c8.2,5.2,16.2,10.9,23.4,17.4
			c44.1,40.2,87.9,80.6,131.9,121c1,1,2.3,1.8,3.3,2.8c9.3,9.1,17.8,14,32.6,8.2c16.3-6.4,33-1.5,46.5,11.5
			c14.2,13.7,29.1,26.6,43.7,39.9c1.7,1.6,3.9,3.6,4.2,5.6c0.4,2.9,0.1,7.2-1.7,8.7s-6.5,1.6-8.8,0.3c-4.3-2.4-7.8-6.2-11.5-9.5
			c-13.8-12.4-27.4-24.9-41.3-37.2c-6.3-5.6-17.5-7.2-25.9-4c0.1,0.4-0.1,1,0.2,1.3c19.7,18.6,39.4,37.1,59.2,55.7
			c0.7,0.7,1.4,1.3,2.1,1.9c3.9,3.7,7.1,7.9,2.8,12.9c-4.4,5.1-8.9,2.5-12.9-1.2c-17.5-16.4-35-32.9-52.5-49.3
			c-4.8-4.5-9.8-8.9-15.6-14.1c-1.6,1.4-4.2,2.9-5.1,5.1c-0.5,1.1,2,3.8,3.6,5.3c19,17.6,38.1,35.1,57.2,52.6
			c2.3,2.1,4.4,4.3,6.5,6.6c3.6,3.7,4.9,7.9,0.7,11.9c-3.9,3.7-7.9,2.2-11.4-1c-9.9-9.2-19.7-18.6-29.7-27.8
			c-10.3-9.5-20.7-18.9-31.1-28.3c-1.5-1.4-3.4-2.4-5.1-3.6C658.2,808,657.3,808.6,656.4,809.1z M656.8,780.1
			c-6.7-5.7-12.9-10.5-18.7-15.7c-43.6-39.9-87.1-80-130.8-119.9c-5.2-4.8-11-9-16.8-13.2c-2.1-1.5-4.8-2.2-8.1-3.7
			c3,9.3,155.7,154,167.7,159.7C652.1,785.3,654.2,783,656.8,780.1z"/>
		<path class="st1" d="M3290.4,700.3c-42.2-42.2-84.4-84.4-126.6-126.6c-3.9-3.9-9.3-8.5-5.6-13.7c3.2-4.5,9.5-7,14.8-9.6
			c1.9-1,5.2-0.1,7.5,0.8c30,10.9,61.1,19.5,88,37.8c23.9,16.2,45.7,34.7,62.1,58.7c8.2,12,13.9,24.9,13.6,40.4
			c-0.1,5.4,4.8,11.7,8.8,16.4c17.7,21.2,36.3,41.7,53.7,63.1c10.7,13.1,20.3,27.3,29.7,41.4c4.4,6.5,3.7,13.7-1.4,20.2
			c-3.9,5.1-8.5,5.7-13.5,2c-3.1-2.3-5.6-5.3-8.3-8.1C3372.3,782.2,3331.4,741.2,3290.4,700.3L3290.4,700.3z M3384.2,768.9
			c0.4-0.4,0.8-0.7,1.2-1.1c-5.7-6.6-11.4-13.1-17-19.7c-12.3-14.6-24.8-29-36.7-43.9c-2.9-3.6-5.9-9.1-5.2-13.2
			c2.1-13.9-3.4-25-11-35.3c-22.8-31.1-52.4-54-87.6-69.5c-12.4-5.4-25.4-9.3-38.2-13.9c-0.2,0.4-0.5,0.9-0.7,1.3
			C3254.1,638.8,3319.2,703.9,3384.2,768.9z"/>
		<path class="st1" d="M1832.7,745.8c-18.5-18.5-36.9-37.3-55.8-55.4c-3.7-3.5-9.3-5.3-14.3-7c-13-4.5-26.7-7.2-39-12.9
			c-20-9.2-39.4-38.4-29-64.5c7.4-18.7,21.3-31.6,39.7-38.7c11.9-4.6,24.2-1.6,33.5,6.7c9.6,8.6,18,18.6,25.9,28.8
			c6.9,8.8,9.6,19.2,8.1,30.7c-0.4,2.8,1.4,6.7,3.5,8.9c32.1,33.1,64.2,66.1,96.6,98.9c30.9,31.2,62.5,61.8,93,93.3
			c5.9,6.1,10,15,12.4,23.4c4,14.5-7.1,25.7-21.3,20.7c-11.2-4-21.8-10.7-31.3-18.1c-13.7-10.7-26.4-22.8-39.1-34.8
			c-28-26.3-55.6-52.9-83.4-79.3C1832.4,746.2,1832.5,746,1832.7,745.8z M1988.3,862.7c1-1,1.9-2,2.9-2.9
			c-3.5-5.3-6.2-11.4-10.6-15.8c-25.3-25.2-51.4-49.6-76.5-75c-34.4-34.9-68-70.4-102.1-105.6c-2.1-2.2-4.5-4.2-6.8-6.3
			c-5.4,3.8-10.5,8.3-16.1,2.9c-5.3-5.2-0.7-9.8,1.6-14.8c4.2-9.1,6.9-19.3,1-28.1c-6.8-10.2-14.6-20.2-23.7-28.4
			c-4.3-3.9-13.6-6.2-18.8-4.3c-13.9,5.2-25,15.1-28.8,30.3c-1.3,5.3-0.8,11.8,1.1,17c6.2,17.7,30.6,33.8,49.3,33.4
			c1.3,0,2.7-0.4,3.8-1c5.2-2.8,9.1-0.7,12.8,2.9c10.1,9.7,20.5,19.2,30.3,29.2c50.4,51,100.9,102,155.3,148.8
			C1970.7,851.7,1979.8,856.8,1988.3,862.7z"/>
		<path class="st1" d="M4072,119.8c-45.1,45.1-90.1,90.1-135.2,135.2c-4.2,4.2-9,9.9-14.6,6c-4.8-3.4-7.5-10.1-10.3-15.8
			c-1-2.1-0.1-5.5,0.8-8.1c11.7-32.1,20.8-65.2,40.3-93.9c17.3-25.5,37-48.8,62.7-66.2c12.9-8.7,26.6-14.9,43.1-14.5
			c5.8,0.1,12.5-5.2,17.5-9.4c22.6-18.9,44.5-38.7,67.3-57.3c14-11.4,29.1-21.6,44.1-31.7c7-4.7,14.6-3.9,21.6,1.5
			c5.4,4.2,6.1,9.1,2.2,14.4c-2.4,3.3-5.7,6-8.6,8.9C4159.4,32.4,4115.7,76.1,4072,119.8L4072,119.8z M4145.2,19.6
			c-0.4-0.4-0.8-0.9-1.2-1.3c-7,6-14,12.1-21,18.1c-15.6,13.2-31,26.5-46.9,39.2c-3.8,3.1-9.7,6.2-14,5.6
			c-14.8-2.2-26.7,3.6-37.7,11.7c-33.2,24.4-57.6,56-74.2,93.5c-5.8,13.2-9.9,27.1-14.8,40.7c0.5,0.3,0.9,0.5,1.4,0.8
			C4006.3,158.5,4075.8,89.1,4145.2,19.6z"/>
		<path class="st1" d="M5191.1,95.5c17.4-17.4,34.9-34.5,51.9-52.2c3.3-3.4,4.9-8.7,6.6-13.4c4.2-12.1,6.8-25,12.1-36.5
			c8.6-18.8,36-36.9,60.4-27.2c17.5,6.9,29.6,19.9,36.2,37.2c4.3,11.2,1.5,22.7-6.3,31.4c-8,9-17.4,16.8-26.9,24.3
			c-8.2,6.4-18,9-28.8,7.6c-2.6-0.3-6.3,1.3-8.3,3.3c-31,30-61.9,60.1-92.6,90.5c-29.2,28.9-57.8,58.5-87.4,87.1
			c-5.7,5.6-14.1,9.4-21.9,11.6c-13.6,3.8-24-6.7-19.4-19.9c3.7-10.5,10-20.5,16.9-29.3c10-12.9,21.4-24.7,32.6-36.7
			c24.6-26.2,49.5-52.1,74.3-78.1C5190.8,95.2,5191,95.3,5191.1,95.5z M5081.6,241.2c0.9,0.9,1.8,1.8,2.8,2.7
			c5-3.3,10.6-5.8,14.8-10c23.6-23.7,46.5-48.2,70.3-71.6c32.6-32.2,65.9-63.7,98.9-95.6c2.1-2,3.9-4.3,5.9-6.4
			c-3.6-5.1-7.8-9.8-2.7-15.1c4.9-5,9.1-0.6,13.9,1.5c8.5,3.9,18.1,6.4,26.4,0.9c9.6-6.4,18.9-13.7,26.6-22.2c3.6-4,5.8-12.8,4-17.6
			c-4.9-13-14.2-23.4-28.4-27c-4.9-1.2-11-0.7-15.9,1c-16.6,5.8-31.6,28.7-31.3,46.2c0,1.2,0.4,2.5,0.9,3.5c2.6,4.8,0.7,8.5-2.7,12
			c-9.1,9.5-18,19.2-27.3,28.4c-47.8,47.2-95.5,94.5-139.3,145.5C5092,224.8,5087.1,233.3,5081.6,241.2z"/>
		<path class="st1" d="M6638,117.3c5.1-2.7,11.4-4.3,15.1-8.2c16.7-17.8,32.7-36.2,49-54.4c1.9-2.1,3.4-4.4,5.3-6.5
			c3.5-3.8,7.6-5.7,12-2s3.4,8.3,0.5,12.3c-4.2,5.8-8.4,11.6-13.1,16.8c-14.3,15.8-28.7,31.6-43.5,47c-7.4,7.7-17.1,10.5-27.7,10.9
			c-2.8,0.1-6.3,1.7-8.2,3.8c-42.4,45.1-84.6,90.3-126.8,135.5c-11,11.7-22.1,23.3-33.2,34.8c-3,3.1-6,6.3-9.5,8.8
			c-9.2,6.8-18,7-24.4,1.2c-6.9-6.3-8.7-17.1-3.1-25.9s11.7-17.4,18.6-25c43-47.2,86.3-94.2,129.6-141.2c1-1.1,1.9-2.4,2.9-3.5
			c9.8-9.9,15-19.1,8.7-34.9c-6.9-17.5-1.6-35.3,12.4-49.8c14.7-15.2,28.4-31.2,42.7-46.8c1.7-1.8,3.8-4.2,6-4.5
			c3.1-0.4,7.7-0.1,9.4,1.8c1.7,1.9,1.7,6.9,0.3,9.4c-2.6,4.6-6.6,8.3-10.2,12.3c-13.3,14.8-26.7,29.4-39.9,44.2
			c-6,6.8-7.7,18.7-4.3,27.7c0.5-0.1,1.1,0.1,1.4-0.2c19.9-21.1,39.8-42.2,59.7-63.4c0.7-0.7,1.4-1.5,2.1-2.3c4-4.1,8.5-7.6,13.8-3
			c5.4,4.7,2.7,9.5-1.3,13.8c-17.6,18.7-35.2,37.5-52.8,56.2c-4.8,5.2-9.5,10.5-15.1,16.7c1.5,1.7,3.1,4.5,5.4,5.5
			c1.1,0.5,4.1-2.2,5.7-3.9c18.8-20.4,37.6-40.8,56.3-61.2c2.2-2.4,4.6-4.7,7-7c4-3.8,8.5-5.2,12.7-0.8c4,4.2,2.4,8.5-1.1,12.2
			c-9.9,10.6-19.9,21.1-29.8,31.8c-10.2,11-20.3,22.1-30.3,33.3c-1.5,1.6-2.6,3.6-3.8,5.5C6636.9,115.4,6637.4,116.3,6638,117.3z
			 M6607,116.9c-6.1,7.2-11.2,13.8-16.8,20c-42.8,46.7-85.7,93.3-128.4,140.1c-5.1,5.6-9.6,11.8-14.1,18c-1.6,2.2-2.4,5.1-3.9,8.6
			c9.9-3.2,165-166.7,171.1-179.6C6612.5,121.9,6610.1,119.7,6607,116.9z"/>
		<path class="st1" d="M4673.3,814.5c2.5,4.7,3.9,10.4,7.6,13.9c16.3,15.3,33.2,30,49.9,44.9c1.9,1.7,4.1,3.2,6,4.9
			c3.5,3.2,5.2,7,1.8,11c-3.4,4.1-7.6,3.1-11.3,0.4c-5.3-3.8-10.6-7.7-15.5-12c-14.5-13.1-29-26.4-43.1-39.9
			c-7.1-6.8-9.7-15.7-10-25.4c-0.1-2.6-1.6-5.8-3.5-7.6c-41.3-38.9-82.8-77.6-124.3-116.4c-10.7-10.1-21.3-20.3-31.9-30.5
			c-2.9-2.7-5.8-5.5-8.1-8.7c-6.2-8.4-6.4-16.6-1.1-22.4c5.8-6.3,15.7-8,23.7-2.8c8,5.1,15.9,10.7,23,17.1
			c43.3,39.5,86.4,79.2,129.6,118.9c1,0.9,2.2,1.7,3.2,2.7c9.1,8.9,17.5,13.7,32,8c16-6.3,32.4-1.5,45.7,11.3
			c13.9,13.5,28.6,26.1,42.9,39.2c1.7,1.5,3.9,3.5,4.1,5.5c0.3,2.9,0.1,7-1.7,8.6c-1.7,1.5-6.4,1.5-8.6,0.3
			c-4.2-2.4-7.6-6.1-11.3-9.4c-13.5-12.2-27-24.5-40.5-36.6c-6.2-5.5-17.1-7.1-25.4-4c0.1,0.4-0.1,1,0.2,1.2
			c19.4,18.3,38.8,36.5,58.1,54.7c0.7,0.6,1.4,1.2,2.1,1.9c3.8,3.6,7,7.8,2.8,12.7c-4.3,5-8.7,2.5-12.7-1.2
			c-17.2-16.2-34.4-32.3-51.6-48.4c-4.7-4.4-9.6-8.7-15.3-13.9c-1.5,1.4-4.1,2.8-5.1,5c-0.4,1.1,2,3.7,3.6,5.2
			c18.7,17.3,37.5,34.5,56.2,51.7c2.2,2.1,4.3,4.3,6.4,6.5c3.5,3.7,4.8,7.8,0.7,11.7c-3.8,3.7-7.8,2.2-11.2-1
			c-9.7-9.1-19.4-18.3-29.1-27.3c-10.1-9.4-20.3-18.6-30.5-27.8c-1.5-1.4-3.3-2.4-5-3.5C4675.1,813.4,4674.2,814,4673.3,814.5z
			 M4673.7,786c-6.6-5.6-12.7-10.3-18.3-15.4c-42.9-39.2-85.6-78.6-128.5-117.8c-5.1-4.7-10.8-8.8-16.5-13c-2-1.5-4.7-2.2-7.9-3.6
			c3,9.1,152.9,151.3,164.7,156.9C4669.1,791.1,4671.1,788.9,4673.7,786z"/>
		<path class="st1" d="M7100.7,700.8c-40-40-80-80.1-120.1-120.1c-3.7-3.7-8.8-8-5.3-13c3-4.3,9-6.7,14-9.1c1.8-0.9,4.9-0.1,7.2,0.7
			c28.5,10.4,57.9,18.5,83.4,35.8c22.6,15.4,43.3,32.9,58.8,55.7c7.8,11.4,13.2,23.6,12.9,38.3c-0.1,5.2,4.6,11.1,8.4,15.6
			c16.8,20.1,34.4,39.5,50.9,59.8c10.2,12.5,19.2,25.9,28.2,39.2c4.2,6.2,3.5,13-1.3,19.2c-3.7,4.8-8.1,5.4-12.8,1.9
			c-2.9-2.2-5.3-5.1-7.9-7.7C7178.3,778.5,7139.5,739.6,7100.7,700.8L7100.7,700.8z M7189.7,765.9c0.4-0.3,0.8-0.7,1.2-1
			c-5.4-6.2-10.8-12.4-16.1-18.7c-11.7-13.8-23.5-27.5-34.8-41.7c-2.7-3.4-5.5-8.6-5-12.5c2-13.1-3.2-23.7-10.4-33.4
			c-21.7-29.5-49.7-51.2-83.1-65.9c-11.7-5.2-24.1-8.8-36.2-13.2c-0.2,0.4-0.4,0.8-0.7,1.2C7066.3,642.5,7128,704.2,7189.7,765.9z"
			/>
		<path class="st1" d="M5889.8,761.1c-18.3-18.3-36.4-36.8-55.1-54.7c-3.6-3.5-9.3-5.1-14.3-6.7c-13-4.2-26.8-6.6-39.2-12.1
			c-20.1-8.8-38.9-37.9-27.8-64.5c8-19.1,22.3-32.5,41.2-40.1c12.2-4.9,24.6-2.2,33.8,6c9.5,8.4,17.7,18.4,25.5,28.5
			c6.7,8.7,9.2,19.2,7.5,30.9c-0.4,2.9,1.2,6.8,3.3,8.9c31.6,32.7,63.3,65.4,95.3,97.7c30.5,30.8,61.7,61,91.9,92.1
			c5.9,6,9.8,15,11.9,23.4c3.7,14.6-7.9,26.2-22,21.4c-11.2-3.7-21.8-10.3-31.2-17.5c-13.6-10.5-26.2-22.5-38.8-34.3
			c-27.6-25.9-55-52.1-82.5-78.2C5889.4,761.4,5889.6,761.3,5889.8,761.1z M6044.4,875.6c1-1,2-2,3-3.1c-3.4-5.3-6-11.4-10.4-15.7
			c-25-24.9-50.8-49-75.6-74.1c-33.9-34.4-67.1-69.6-100.7-104.4c-2.1-2.2-4.5-4.1-6.8-6.2c-5.6,4-10.8,8.7-16.3,3.3
			c-5.3-5.1-0.5-9.9,2-15.1c4.4-9.3,7.4-19.7,1.7-28.5c-6.6-10.2-14.3-20.1-23.3-28.1c-4.3-3.8-13.7-5.9-19-3.8
			c-14.2,5.6-25.7,15.9-30,31.4c-1.5,5.4-1.1,11.9,0.7,17.2c5.8,17.8,30.2,33.4,49.1,32.6c1.3-0.1,2.7-0.5,3.9-1.1
			c5.3-2.9,9.2-0.9,12.9,2.6c10,9.6,20.2,18.9,30,28.8c49.8,50.4,99.6,100.7,153.5,146.8C6026.9,864.8,6036,869.8,6044.4,875.6z"/>
		<path class="st1" d="M7958,3888.9c-42.1,42.1-84.1,84.1-126.2,126.2c-3.9,3.9-8.4,9.3-13.7,5.6c-4.5-3.2-7-9.5-9.6-14.8
			c-0.9-1.9-0.1-5.2,0.8-7.5c10.9-29.9,19.4-60.9,37.6-87.7c16.2-23.8,34.6-45.5,58.5-61.8c12-8.2,24.8-13.9,40.3-13.5
			c5.4,0.1,11.6-4.8,16.4-8.8c21.1-17.6,41.5-36.1,62.9-53.5c13.1-10.7,27.2-20.2,41.2-29.6c6.5-4.4,13.7-3.7,20.2,1.4
			c5.1,3.9,5.6,8.5,2,13.4c-2.3,3.1-5.3,5.6-8,8.3C8039.6,3807.3,7998.8,3848.1,7958,3888.9L7958,3888.9z M8026.4,3795.4
			c-0.4-0.4-0.7-0.8-1.1-1.2c-6.5,5.6-13,11.3-19.6,16.9c-14.5,12.3-28.9,24.7-43.8,36.6c-3.6,2.9-9,5.8-13.1,5.2
			c-13.8-2.1-24.9,3.4-35.2,10.9c-31,22.8-53.8,52.3-69.2,87.3c-5.4,12.3-9.3,25.3-13.8,38c0.4,0.2,0.9,0.5,1.3,0.7
			C7896.7,3925.1,7961.5,3860.3,8026.4,3795.4z"/>
		<path class="st1" d="M8446.3,3276.9c-2.6-4.9-4.1-11-7.9-14.6c-17.1-16.1-34.9-31.6-52.5-47.2c-2-1.8-4.3-3.3-6.3-5.1
			c-3.7-3.3-5.5-7.3-1.9-11.6c3.5-4.3,8-3.3,11.9-0.5c5.6,4,11.2,8.1,16.2,12.7c15.3,13.8,30.5,27.7,45.3,42
			c7.4,7.1,10.1,16.5,10.5,26.7c0.1,2.7,1.7,6.1,3.7,7.9c43.5,40.9,87.1,81.6,130.6,122.3c11.3,10.6,22.4,21.3,33.6,32
			c3,2.9,6.1,5.8,8.5,9.1c6.5,8.8,6.8,17.4,1.1,23.6c-6,6.6-16.5,8.4-24.9,3c-8.5-5.4-16.8-11.3-24.1-18
			c-45.6-41.5-90.8-83.3-136.2-124.9c-1.1-1-2.3-1.8-3.4-2.8c-9.6-9.4-18.4-14.4-33.7-8.4c-16.8,6.6-34.1,1.6-48-11.9
			c-14.6-14.1-30.1-27.4-45.1-41.2c-1.8-1.6-4.1-3.7-4.3-5.8c-0.4-3-0.1-7.4,1.8-9c1.8-1.6,6.7-1.6,9.1-0.3c4.4,2.5,8,6.4,11.9,9.8
			c14.2,12.8,28.3,25.7,42.6,38.4c6.5,5.8,18,7.4,26.7,4.2c-0.1-0.4,0.1-1.1-0.2-1.3c-20.4-19.2-40.7-38.4-61.1-57.5
			c-0.7-0.7-1.5-1.3-2.2-2c-4-3.8-7.3-8.2-2.9-13.4c4.5-5.3,9.2-2.6,13.3,1.3c18.1,17,36.1,34,54.2,50.9c5,4.7,10.1,9.2,16.1,14.6
			c1.6-1.5,4.4-3,5.3-5.2c0.5-1.1-2.1-3.9-3.8-5.5c-19.6-18.2-39.4-36.2-59.1-54.3c-2.3-2.2-4.5-4.5-6.8-6.8
			c-3.7-3.9-5-8.2-0.7-12.3c4-3.8,8.2-2.3,11.8,1c10.2,9.5,20.4,19.2,30.6,28.7c10.6,9.8,21.3,19.6,32.1,29.3
			c1.6,1.4,3.5,2.5,5.3,3.7C8444.4,3278,8445.3,3277.5,8446.3,3276.9z M8445.9,3306.8c7,5.8,13.3,10.8,19.3,16.2
			c45.1,41.3,90,82.6,135.1,123.9c5.4,5,11.4,9.3,17.3,13.6c2.2,1.6,4.9,2.3,8.3,3.8c-3.1-9.6-160.8-159.1-173.2-165
			C8450.7,3301.5,8448.6,3303.8,8445.9,3306.8z"/>
		<path class="st1" d="M9094.1,3917.8c17.5-17.5,35.1-34.8,52.3-52.6c3.3-3.5,5-8.8,6.6-13.5c4.2-12.2,6.8-25.1,12.2-36.8
			c8.7-18.9,36.2-37.1,60.8-27.4c17.6,7,29.8,20,36.5,37.5c4.3,11.2,1.5,22.8-6.3,31.6c-8.1,9-17.5,16.9-27.1,24.4
			c-8.3,6.5-18.1,9-28.9,7.7c-2.6-0.3-6.3,1.3-8.4,3.3c-31.2,30.2-62.3,60.5-93.2,91.1c-29.4,29.1-58.2,58.9-87.9,87.7
			c-5.8,5.6-14.2,9.5-22,11.7c-13.7,3.8-24.2-6.7-19.5-20c3.7-10.5,10.1-20.6,17-29.5c10.1-13,21.5-24.9,32.8-36.9
			c24.8-26.4,49.8-52.5,74.8-78.7C9093.8,3917.5,9094,3917.7,9094.1,3917.8z M8983.9,4064.5c0.9,0.9,1.8,1.8,2.8,2.7
			c5-3.3,10.7-5.9,14.9-10c23.8-23.9,46.8-48.5,70.7-72.1c32.9-32.4,66.4-64.2,99.6-96.2c2.1-2,3.9-4.3,5.9-6.4
			c-3.6-5.1-7.9-9.9-2.7-15.2c4.9-5,9.2-0.6,14,1.6c8.5,3.9,18.2,6.5,26.5,0.9c9.7-6.4,19-13.8,26.7-22.4c3.7-4.1,5.8-12.9,4-17.8
			c-4.9-13.1-14.3-23.6-28.6-27.2c-5-1.3-11.1-0.7-16,1c-16.7,5.9-31.8,28.9-31.5,46.5c0,1.2,0.4,2.5,0.9,3.6
			c2.6,4.9,0.7,8.6-2.7,12.1c-9.2,9.5-18.1,19.3-27.5,28.6c-48.1,47.5-96.1,95.1-140.3,146.4
			C8994.3,4048,8989.4,4056.5,8983.9,4064.5z"/>
		<path class="st1" d="M8479.4,4640.1c2.5,4.8,4,10.6,7.7,14.1c16.6,15.6,33.8,30.6,50.8,45.7c1.9,1.7,4.1,3.2,6.1,5
			c3.5,3.2,5.3,7.1,1.8,11.2c-3.4,4.1-7.7,3.2-11.5,0.4c-5.4-3.9-10.8-7.8-15.7-12.3c-14.8-13.4-29.5-26.8-43.9-40.6
			c-7.2-6.9-9.8-15.9-10.1-25.9c-0.1-2.6-1.6-5.9-3.6-7.7c-42.1-39.6-84.3-79-126.5-118.4c-10.9-10.2-21.7-20.6-32.5-31
			c-2.9-2.8-5.9-5.6-8.3-8.8c-6.3-8.6-6.6-16.8-1.1-22.8c5.9-6.4,16-8.1,24.2-2.9s16.2,10.9,23.4,17.4
			c44.1,40.2,87.9,80.6,131.9,121c1,1,2.3,1.8,3.3,2.8c9.3,9.1,17.8,14,32.6,8.2c16.3-6.4,33-1.5,46.5,11.5
			c14.2,13.7,29.1,26.6,43.7,39.9c1.7,1.6,3.9,3.6,4.2,5.6c0.4,2.9,0.1,7.2-1.7,8.7s-6.5,1.6-8.8,0.3c-4.3-2.4-7.8-6.2-11.5-9.5
			c-13.8-12.4-27.4-24.9-41.3-37.2c-6.3-5.6-17.5-7.2-25.9-4c0.1,0.4-0.1,1,0.2,1.3c19.7,18.6,39.4,37.1,59.2,55.7
			c0.7,0.7,1.4,1.3,2.1,1.9c3.9,3.7,7.1,7.9,2.8,12.9c-4.4,5.1-8.9,2.5-12.9-1.2c-17.5-16.4-35-32.9-52.5-49.3
			c-4.8-4.5-9.8-8.9-15.6-14.1c-1.6,1.4-4.2,2.9-5.1,5.1c-0.5,1.1,2,3.8,3.6,5.3c19,17.6,38.1,35.1,57.2,52.6
			c2.3,2.1,4.4,4.3,6.5,6.6c3.6,3.7,4.9,7.9,0.7,11.9c-3.9,3.7-7.9,2.2-11.4-1c-9.9-9.2-19.7-18.6-29.7-27.8
			c-10.3-9.5-20.7-18.9-31.1-28.3c-1.5-1.4-3.4-2.4-5.1-3.6C8481.2,4639,8480.3,4639.6,8479.4,4640.1z M8479.8,4611.1
			c-6.7-5.7-12.9-10.5-18.7-15.7c-43.6-39.9-87.1-80-130.8-119.9c-5.2-4.8-11-9-16.8-13.2c-2.1-1.5-4.8-2.2-8.1-3.7
			c3,9.3,155.7,154,167.7,159.7C8475.1,4616.3,8477.2,4614,8479.8,4611.1z"/>
		<path class="st1" d="M8408.2,2120c-1.4-2-2.6-4.2-4.2-6c-11-12.2-22-24.3-33.2-36.4c-10.8-11.6-21.7-23.1-32.5-34.7
			c-3.8-4.1-5.5-8.8-1.2-13.4c4.6-4.9,9.5-3.3,13.9,0.8c2.6,2.5,5.3,5,7.7,7.7c20.5,22.3,41,44.7,61.6,67c1.7,1.9,4.9,4.8,6.2,4.3
			c2.6-1.1,4.3-4.2,6-6c-6.1-6.8-11.2-12.6-16.5-18.2c-19.2-20.5-38.5-41-57.7-61.5c-4.4-4.7-7.4-10-1.4-15.1
			c5.8-5,10.8-1.2,15.1,3.3c0.8,0.8,1.5,1.7,2.3,2.5c21.7,23.1,43.5,46.2,65.2,69.3c0.3,0.3,1,0.2,1.5,0.2
			c3.7-9.9,1.8-22.9-4.7-30.3c-14.4-16.2-29.1-32.2-43.6-48.3c-3.9-4.3-8.3-8.5-11.1-13.5c-1.5-2.7-1.5-8.2,0.3-10.3
			c1.8-2.1,6.8-2.4,10.2-2c2.3,0.3,4.7,2.9,6.5,4.9c15.6,17,30.7,34.5,46.7,51.1c15.3,15.8,21,35.4,13.5,54.5
			c-6.8,17.3-1.1,27.3,9.5,38.2c1.2,1.2,2.1,2.6,3.2,3.8c47.2,51.4,94.6,102.8,141.6,154.4c7.6,8.4,14.3,17.8,20.4,27.4
			c6.1,9.6,4.1,21.4-3.4,28.3c-7,6.4-16.7,6.1-26.7-1.3c-3.8-2.8-7.1-6.3-10.4-9.7c-12.2-12.6-24.3-25.3-36.3-38.1
			c-46.2-49.4-92.3-98.8-138.7-148.1c-2.1-2.3-5.9-4.1-9-4.2c-11.6-0.4-22.2-3.5-30.3-11.9c-16.2-16.9-31.9-34.1-47.6-51.4
			c-5.2-5.8-9.8-12.1-14.4-18.4c-3.2-4.4-4.3-9.5,0.5-13.5c4.9-4,9.4-2,13.2,2.1c2.1,2.3,3.8,4.8,5.8,7.1
			c17.8,19.9,35.3,40.1,53.6,59.5c4.1,4.3,11,6.1,16.5,9C8406.9,2122.1,8407.5,2121,8408.2,2120z M8431.8,2130.4
			c6.7,14,176.2,192.8,187,196.3c-1.7-3.8-2.5-7-4.3-9.4c-4.9-6.7-9.8-13.5-15.5-19.7c-46.7-51.1-93.7-102.1-140.4-153.1
			c-6.2-6.7-11.8-14-18.4-21.8C8436.8,2125.8,8434.2,2128.1,8431.8,2130.4z"/>
		<path class="st1" d="M9129.7,1432c-41.5,41.5-83,83-124.4,124.4c-2.8,2.8-5.3,5.9-8.4,8.2c-5,3.7-9.7,3.1-13.6-2.1
			c-5.1-6.6-5.8-13.9-1.4-20.5c9.6-14.3,19.3-28.6,30.1-41.9c17.7-21.7,36.5-42.4,54.4-63.9c4-4.8,9.1-11.1,8.9-16.7
			c-0.4-15.7,5.5-28.7,13.8-40.9c16.6-24.4,38.7-43.1,62.9-59.5c27.2-18.5,58.7-27.2,89.1-38.3c2.4-0.9,5.7-1.7,7.6-0.8
			c5.4,2.6,11.8,5.2,15,9.7c3.7,5.3-1.7,9.9-5.7,13.9C9215.2,1346.5,9172.5,1389.3,9129.7,1432L9129.7,1432z M9232.4,1303.7
			c-0.2-0.4-0.5-0.9-0.7-1.3c-12.9,4.6-26.1,8.5-38.7,14.1c-35.6,15.7-65.6,38.9-88.8,70.4c-7.7,10.4-13.2,21.7-11.1,35.7
			c0.6,4.1-2.4,9.7-5.3,13.3c-12.1,15.1-24.7,29.8-37.2,44.5c-5.7,6.7-11.5,13.3-17.2,20c0.4,0.4,0.8,0.7,1.2,1.1
			C9100.6,1435.6,9166.5,1369.7,9232.4,1303.7z"/>
		<path class="st1" d="M7838.3,1446.3c-25.1,23.9-50,47.8-75.2,71.5c-11.5,10.8-22.9,21.7-35.3,31.4c-8.5,6.6-18.1,12.7-28.2,16.3
			c-12.7,4.5-22.8-5.6-19.2-18.6c2.1-7.5,5.8-15.6,11.2-21.1c27.6-28.4,56-56,83.9-84.1c29.2-29.5,58.2-59.3,87.1-89.1
			c1.9-1.9,3.4-5.5,3.1-8c-1.3-10.4,1.1-19.8,7.3-27.7c7.2-9.2,14.7-18.2,23.4-25.9c8.4-7.5,19.5-10.2,30.2-6.1
			c16.6,6.4,29.1,18,35.8,34.9c9.3,23.5-8.1,49.8-26.2,58.1c-11.1,5.1-23.5,7.6-35.2,11.6c-4.5,1.6-9.6,3.1-12.9,6.3
			c-17,16.4-33.6,33.3-50.3,50C7838,1446,7838.2,1446.1,7838.3,1446.3z M7720.4,1535.2c49.1-42.2,94.6-88.1,140-134.1
			c8.9-9,18.2-17.5,27.3-26.3c3.3-3.2,6.9-5.1,11.5-2.6c1,0.5,2.3,0.9,3.4,0.9c16.9,0.3,38.9-14.2,44.5-30.1
			c1.6-4.7,2.2-10.5,1-15.3c-3.4-13.7-13.5-22.7-26-27.4c-4.7-1.8-13.1,0.3-17,3.8c-8.2,7.4-15.3,16.3-21.4,25.6
			c-5.3,8-2.9,17.2,0.9,25.4c2.1,4.6,6.3,8.7,1.5,13.4c-5.1,4.9-9.6,0.8-14.5-2.6c-2.1,1.9-4.2,3.7-6.2,5.7
			c-30.7,31.7-61,63.8-92,95.2c-22.6,22.9-46.1,44.9-69,67.7c-4,4-6.4,9.4-9.6,14.2c0.9,0.9,1.7,1.8,2.6,2.7
			C7705.2,1545.9,7713.4,1541.3,7720.4,1535.2z"/>
		<path class="st1" d="M7824.6,2772.8c-43.1,43.1-86.1,86.1-129.2,129.2c-2.9,2.9-5.5,6.1-8.8,8.5c-5.2,3.8-10,3.2-14.2-2.1
			c-5.3-6.8-6.1-14.4-1.4-21.3c10-14.8,20-29.7,31.3-43.5c18.3-22.5,37.9-44,56.5-66.4c4.2-5,9.4-11.6,9.3-17.3
			c-0.4-16.3,5.7-29.8,14.3-42.5c17.2-25.3,40.2-44.7,65.3-61.8c28.3-19.2,61-28.2,92.5-39.7c2.5-0.9,5.9-1.8,7.9-0.8
			c5.6,2.7,12.2,5.4,15.6,10.1c3.9,5.5-1.8,10.3-5.9,14.4C7913.4,2684,7869,2728.4,7824.6,2772.8L7824.6,2772.8z M7931.2,2639.7
			c-0.2-0.5-0.5-0.9-0.7-1.4c-13.4,4.8-27.1,8.9-40.1,14.6c-37,16.3-68.2,40.4-92.2,73.1c-8,10.8-13.7,22.5-11.5,37.1
			c0.6,4.3-2.5,10.1-5.5,13.8c-12.5,15.7-25.7,30.9-38.7,46.2c-5.9,7-11.9,13.8-17.9,20.7c0.4,0.4,0.9,0.8,1.3,1.1
			C7794.3,2776.6,7862.8,2708.1,7931.2,2639.7z"/>
		<path class="st1" d="M9223.8,2775.1c-26.8,25.5-53.4,51-80.3,76.3c-12.2,11.5-24.4,23.2-37.7,33.5c-9.1,7.1-19.3,13.6-30.1,17.4
			c-13.6,4.8-24.3-5.9-20.5-19.9c2.2-8,6.2-16.6,11.9-22.5c29.4-30.3,59.8-59.7,89.5-89.8c31.2-31.5,62.1-63.3,92.9-95.1
			c2-2.1,3.7-5.8,3.3-8.5c-1.4-11,1.2-21.1,7.8-29.5c7.6-9.8,15.7-19.5,24.9-27.7c9-8,20.8-10.9,32.3-6.5
			c17.8,6.8,31.1,19.2,38.2,37.2c10,25.1-8.6,53.2-27.9,62c-11.9,5.5-25.1,8.1-37.5,12.4c-4.8,1.7-10.3,3.4-13.8,6.7
			c-18.2,17.5-35.8,35.5-53.7,53.3C9223.4,2774.8,9223.6,2774.9,9223.8,2775.1z M9097.9,2870c52.4-45,101-94.1,149.5-143.2
			c9.5-9.6,19.5-18.7,29.2-28.1c3.6-3.4,7.4-5.4,12.3-2.8c1.1,0.6,2.4,0.9,3.6,1c18,0.4,41.5-15.1,47.5-32.2c1.8-5,2.3-11.3,1-16.3
			c-3.7-14.6-14.4-24.2-27.8-29.2c-5-1.9-14,0.4-18.1,4.1c-8.7,7.9-16.3,17.4-22.8,27.3c-5.6,8.5-3.1,18.4,0.9,27.1
			c2.2,4.9,6.7,9.3,1.6,14.3c-5.4,5.2-10.3,0.9-15.5-2.8c-2.2,2-4.5,3.9-6.6,6c-32.7,33.9-65.1,68.1-98.2,101.6
			c-24.1,24.5-49.3,48-73.6,72.2c-4.2,4.2-6.9,10.1-10.2,15.2c0.9,0.9,1.9,1.9,2.8,2.8C9081.7,2881.5,9090.4,2876.5,9097.9,2870z"/>
		<path class="st1" d="M7932,109.9c-42.1,42.1-84.1,84.1-126.2,126.2c-3.9,3.9-8.4,9.3-13.7,5.6c-4.5-3.2-7-9.5-9.6-14.8
			c-0.9-1.9-0.1-5.2,0.8-7.5c10.9-29.9,19.4-60.9,37.6-87.7c16.2-23.8,34.6-45.5,58.5-61.8c12-8.2,24.8-13.9,40.3-13.5
			c5.4,0.1,11.6-4.8,16.4-8.8c21.1-17.6,41.5-36.1,62.9-53.5c13.1-10.7,27.2-20.2,41.2-29.6c6.5-4.4,13.7-3.7,20.2,1.4
			c5.1,3.9,5.6,8.5,2,13.4c-2.3,3.1-5.3,5.6-8,8.3C8013.6,28.3,7972.8,69.1,7932,109.9L7932,109.9z M8000.4,16.4
			c-0.4-0.4-0.7-0.8-1.1-1.2c-6.5,5.6-13,11.3-19.6,16.9c-14.5,12.3-28.9,24.7-43.8,36.6c-3.6,2.9-9,5.8-13.1,5.2
			c-13.8-2.1-24.9,3.4-35.2,10.9c-31,22.8-53.8,52.3-69.2,87.3c-5.4,12.3-9.3,25.3-13.8,38c0.4,0.2,0.9,0.5,1.3,0.7
			C7870.7,146.1,7935.5,81.3,8000.4,16.4z"/>
		<path class="st1" d="M9068.1,138.8c17.5-17.5,35.1-34.8,52.3-52.6c3.3-3.5,5-8.8,6.6-13.5c4.2-12.2,6.8-25.1,12.2-36.8
			c8.7-18.9,36.2-37.1,60.8-27.4c17.6,7,29.8,20,36.5,37.5c4.3,11.2,1.5,22.8-6.3,31.6c-8.1,9-17.5,16.9-27.1,24.4
			c-8.3,6.5-18.1,9-28.9,7.7c-2.6-0.3-6.3,1.3-8.4,3.3c-31.2,30.2-62.3,60.5-93.2,91.1c-29.4,29.1-58.2,58.9-87.9,87.7
			c-5.8,5.6-14.2,9.5-22,11.7c-13.7,3.8-24.2-6.7-19.5-20c3.7-10.5,10.1-20.6,17-29.5c10.1-13,21.5-24.9,32.8-36.9
			c24.8-26.4,49.8-52.5,74.8-78.7C9067.8,138.5,9068,138.7,9068.1,138.8z M8957.9,285.5c0.9,0.9,1.8,1.8,2.8,2.7
			c5-3.3,10.7-5.9,14.9-10c23.8-23.9,46.8-48.5,70.7-72.1c32.9-32.4,66.4-64.2,99.6-96.2c2.1-2,3.9-4.3,5.9-6.4
			c-3.6-5.1-7.9-9.9-2.7-15.2c4.9-5,9.2-0.6,14,1.6c8.5,3.9,18.2,6.5,26.5,0.9c9.7-6.4,19-13.8,26.7-22.4c3.7-4.1,5.8-12.9,4-17.8
			c-4.9-13.1-14.3-23.6-28.6-27.2c-5-1.3-11.1-0.7-16,1c-16.7,5.9-31.8,28.9-31.5,46.5c0,1.2,0.4,2.5,0.9,3.6
			c2.6,4.9,0.7,8.6-2.7,12.1c-9.2,9.5-18.1,19.3-27.5,28.6c-48.1,47.5-96.1,95.1-140.3,146.4C8968.3,269,8963.4,277.5,8957.9,285.5z
			"/>
		<path class="st1" d="M8448.7,884.6c-7.2-6.9-9.8-15.9-10.1-25.9c-0.1-2.6-1.6-5.9-3.6-7.7c-42.1-39.6-84.3-79-126.5-118.4
			c-10.9-10.2-21.7-20.6-32.5-31c-2.9-2.8-5.9-5.6-8.3-8.8c-6.3-8.6-6.6-16.8-1.1-22.8c5.9-6.4,16-8.1,24.2-2.9
			c8.2,5.2,16.2,10.9,23.4,17.4c44.1,40.2,87.9,80.6,131.9,121c1,1,2.3,1.8,3.3,2.8 M8449.4,808.3c9.3,9.1,17.8,14,32.6,8.2
			c16.3-6.4,33-1.5,46.5,11.5c14.2,13.7,29.1,26.6,43.7,39.9c1.7,1.6,3.9,3.6,4.2,5.6c0.4,2.9,0.1,7.2-1.7,8.7s-6.5,1.6-8.8,0.3
			c-4.3-2.4-7.8-6.2-11.5-9.5c-13.8-12.4-27.4-24.9-41.3-37.2c-6.3-5.6-17.5-7.2-25.9-4c0.1,0.4-0.1,1,0.2,1.3
			c19.7,18.6,39.4,37.1,59.2,55.7c0.7,0.7,1.4,1.3,2.1,1.9c3.9,3.7,7.1,7.9,2.8,12.9c-4.4,5.1-8.9,2.5-12.9-1.2
			c-17.5-16.4-35-32.9-52.5-49.3c-4.8-4.5-9.8-8.9-15.6-14.1c-1.6,1.4-4.2,2.9-5.1,5.1c-0.5,1.1,2,3.8,3.6,5.3
			c19,17.6,38.1,35.1,57.2,52.6c2.3,2.1,4.4,4.3,6.5,6.6c3.6,3.7,4.9,7.9,0.7,11.9c-3.9,3.7-7.9,2.2-11.4-1
			c-9.9-9.2-19.7-18.6-29.7-27.8c-10.3-9.5-20.7-18.9-31.1-28.3c-1.5-1.4-3.4-2.4-5.1-3.6c-0.9,0.2-1.8,0.8-2.7,1.3
			c2.5,4.8,4,10.6,7.7,14.1c16.6,15.6,33.8,30.6,50.8,45.7c1.9,1.7,4.1,3.2,6.1,5c3.5,3.2,5.3,7.1,1.8,11.2
			c-3.4,4.1-7.7,3.2-11.5,0.4c-5.4-3.9-10.8-7.8-15.7-12.3c-14.8-13.4-29.5-26.8-43.9-40.6 M8453.8,832.1
			c-6.7-5.7-12.9-10.5-18.7-15.7c-43.6-39.9-87.1-80-130.8-119.9c-5.2-4.8-11-9-16.8-13.2c-2.1-1.5-4.8-2.2-8.1-3.7
			c3,9.3,155.7,154,167.7,159.7C8449.1,837.3,8451.2,835,8453.8,832.1z"/>
	</g>
	<path class="st2" d="M10372,1003c40.7,455.7,81.3,911.3,122,1367"/>
	<rect x="2793.9" y="1969.3" class="st3" width="3327.1" height="347.7"/>
	<g class="st4">
		<text transform="matrix(1 0 0 1 2793.8564 2180.8354)" class="st5 st6 st7">eating out made simple</text>
	</g>
	<g style="opacity:0.75;clip-path:url(#SVGID_2_);enable-background:new    ;">
		
			<image style="overflow:visible;" width="1723" height="682" xlink:href="../4C8852041E81B360.png"  transform="matrix(0.4132 0 0 0.4132 -31.0163 1398.4386)">
		</image>
	</g>
	<g style="opacity:0.75;clip-path:url(#SVGID_2_);enable-background:new    ;">
		
			<image style="overflow:visible;" width="1723" height="682" xlink:href="../4C8852041E81B360.png"  transform="matrix(0.4132 0 0 0.4132 656.2545 1398.4386)">
		</image>
	</g>
	<g style="opacity:0.75;clip-path:url(#SVGID_2_);enable-background:new    ;">
		
			<image style="overflow:visible;" width="1723" height="682" xlink:href="../4C8852041E81B360.png"  transform="matrix(0.4132 0 0 0.4132 1335.2085 1394.0222)">
		</image>
	</g>
	<g style="opacity:0.75;clip-path:url(#SVGID_2_);enable-background:new    ;">
		
			<image style="overflow:visible;" width="1723" height="682" xlink:href="../4C8852041E81B360.png"  transform="matrix(0.4132 0 0 0.4132 2013.9569 1396.2305)">
		</image>
	</g>
	<g style="opacity:0.75;clip-path:url(#SVGID_2_);enable-background:new    ;">
		
			<image style="overflow:visible;" width="1723" height="682" xlink:href="../4C8852041E81B360.png"  transform="matrix(0.4132 0 0 0.4132 2701.2275 1396.2305)">
		</image>
	</g>
	<g style="opacity:0.75;clip-path:url(#SVGID_2_);enable-background:new    ;">
		
			<image style="overflow:visible;" width="1723" height="682" xlink:href="../4C8852041E81B360.png"  transform="matrix(0.4132 0 0 0.4132 3380.1816 1391.814)">
		</image>
	</g>
	<g style="opacity:0.75;clip-path:url(#SVGID_2_);enable-background:new    ;">
		
			<image style="overflow:visible;" width="1723" height="682" xlink:href="../4C8852041E81B360.png"  transform="matrix(0.4132 0 0 0.4132 4062.0598 1396.2305)">
		</image>
	</g>
	<g style="opacity:0.75;clip-path:url(#SVGID_2_);enable-background:new    ;">
		
			<image style="overflow:visible;" width="1723" height="682" xlink:href="../4C8852041E81B360.png"  transform="matrix(0.4132 0 0 0.4132 4749.3306 1396.2305)">
		</image>
	</g>
	<g style="opacity:0.75;clip-path:url(#SVGID_2_);enable-background:new    ;">
		
			<image style="overflow:visible;" width="1723" height="682" xlink:href="../4C8852041E81B360.png"  transform="matrix(0.4132 0 0 0.4132 5428.2847 1391.814)">
		</image>
	</g>
	<g style="opacity:0.75;clip-path:url(#SVGID_2_);enable-background:new    ;">
		
			<image style="overflow:visible;" width="1723" height="682" xlink:href="../4C8852041E81B360.png"  transform="matrix(0.4132 0 0 0.4132 6110.8662 1395.0222)">
		</image>
	</g>
	<g transform="matrix(1 0 0 1 -4.882812e-04 0)" style="opacity:0.75;clip-path:url(#SVGID_2_);enable-background:new    ;">
		
			<image style="overflow:visible;" width="1723" height="682" xlink:href="../4C8852041E81B360.png"  transform="matrix(0.4132 0 0 0.4132 6798.1372 1395.0222)">
		</image>
	</g>
	<g style="opacity:0.75;clip-path:url(#SVGID_2_);enable-background:new    ;">
		
			<image style="overflow:visible;" width="1723" height="682" xlink:href="../4C8852041E81B360.png"  transform="matrix(0.4132 0 0 0.4132 7477.0913 1390.6057)">
		</image>
	</g>
	<g transform="matrix(1 0 0 1 4.882812e-04 0)" style="opacity:0.75;clip-path:url(#SVGID_2_);enable-background:new    ;">
		
			<image style="overflow:visible;" width="1723" height="682" xlink:href="../4C8852041E81B360.png"  transform="matrix(0.4132 0 0 0.4132 8167.4961 1401.9486)">
		</image>
	</g>
	<g style="opacity:0.75;clip-path:url(#SVGID_2_);enable-background:new    ;">
		
			<image style="overflow:visible;" width="1723" height="682" xlink:href="../4C8852041E81B360.png"  transform="matrix(0.4132 0 0 0.4132 8854.7666 1401.9486)">
		</image>
	</g>
	<g style="opacity:0.75;clip-path:url(#SVGID_2_);enable-background:new    ;">
		
			<image style="overflow:visible;" width="1723" height="682" xlink:href="../4C8852041E81B360.png"  transform="matrix(0.4132 0 0 0.4132 9533.7207 1397.5321)">
		</image>
	</g>
	<path class="st8" d="M9272.5,1507.3c17.2-5.4,34.5-10.4,51.9-15.1h-85c-28.3,0-56.7-0.3-85-0.3
		C9193.5,1499.5,9232.9,1504.7,9272.5,1507.3z"/>
	<path class="st8" d="M9343.8,1509.2c12.7-3.9,25.4-7.7,38.1-11.6c-8.9-1-17.9-2-26.8-2.9c-17.8,4.3-35.4,9-52.9,14.1
		C9316.1,1509.2,9330,1509.4,9343.8,1509.2z"/>
	<path class="st8" d="M9407.7,1506.2c7.8-0.7,15.6-1.4,23.4-2.3c-4.4-0.6-8.8-1.2-13.3-1.8
		C9414.5,1503.4,9411.1,1504.8,9407.7,1506.2z"/>
	<path class="st8" d="M9066.9,1470.5c14.3,4.2,28.7,8.1,43.2,11.6c13.3,0,26.6,0.1,40,0.1h57.3c-47.5-3.6-94.9-7.3-142.3-12.3
		C9065.7,1470.1,9066.3,1470.3,9066.9,1470.5z"/>
	<path class="st8" d="M9672.8,1413.7c6.3-1.6,8.9,8.1,2.7,9.6c-21.9,5.5-43.8,11.3-65.6,17.2c64,0.4,128.1,1,192.1,1.6
		c30.1,0.3,60.2,0.6,90.4,0.9c20.4-4.6,40.8-9.3,61-14.4l-26.4-28.2l-33.5,31.4l-34.8-37.2l-43.3,40.5l-41.2-44.1l-47.4,44.3
		l-42.4-45.2l-30.1,28.2C9660.5,1416.8,9666.7,1415.2,9672.8,1413.7z"/>
	<path class="st8" d="M9005.5,1394.5l-42.1,39.4c3.7,1.5,7.5,3,11.3,4.5c18.3-6.1,36.6-11.9,54.8-18.4L9005.5,1394.5z"/>
	<path class="st8" d="M9078.5,1411l-30.6,28.7l-11.1-11.8c-15.8,5.7-31.8,10.9-47.8,16.1c0.7,0.3,1.5,0.6,2.2,0.9
		c89.9-2.4,179.8-3.8,269.8-4.5c103.4-0.8,206.8-0.7,310.2-0.1c22.8-6.4,45.7-12.4,68.6-18.3l-28.3-30.2l-43.3,40.5l-30.5-32.6
		l-40.3,37.8l-35.3-37.8l-37.8,35.4l-32.9-35.2l-36.7,34.4l-34.5-36.9l-42,39.3l-30-32l-33.5,31.4l-34.8-37.2l-43.3,40.5l-36.7-39.2
		C9092.8,1404.1,9085.7,1407.7,9078.5,1411z"/>
	<path class="st8" d="M10290.5,1387.5l-43.3,40.5l-30.5-32.6l-40.3,37.8l-35.3-37.8l-37.8,35.4l-32.9-35.2l-36.7,34.4L9999,1393
		l-35.1,32.9c2.2-0.6,4.4-1.1,6.5-1.7c12.7-3.6,25.5-7.2,38.3-10.5c6.2-1.6,8.8,7.9,2.7,9.6c-12.7,3.7-25.4,7.2-38.1,10.5
		c-10.8,3.1-21.6,6.3-32.3,9.6c129.3,1.2,258.7,2.3,388,2.4l0.6-16.8L10290.5,1387.5z"/>
	<path class="st8" d="M8931.7,1477.5c1.5-3.4,3.1-6.7,4.8-10c-1.8-0.8-3.6-1.7-5.4-2.6c-5.4,2.2-10.8,4.6-16.1,7
		C8920.4,1474.1,8926,1475.9,8931.7,1477.5z"/>
	<path class="st8" d="M8946.7,1448.2c2.6-4.5,5.2-8.9,8-13.3c1.1-1.7,3.6-3.2,5.6-2.3c1,0.4,1.9,0.8,2.9,1.2l0-0.4l-39-41.6
		l-37.8,35.4c14.2,10.1,29.3,19,45,26.8C8936.5,1452,8941.6,1450.1,8946.7,1448.2z"/>
	<path class="st8" d="M8713.4,1624.5c0.6,7.7,1.3,15.5,2,23.3l8.6,0.3C8720.2,1640.3,8716.7,1632.5,8713.4,1624.5z"/>
	<path class="st8" d="M8735.2,1648.4l146.7,4.8c1.2-6.5,2.4-13,3.7-19.5c9.8-49.9,21.8-100.4,42-147.2c-9.3-2.5-18.3-5.8-26.9-10.3
		c-3.2-1.7-3.3-7,0-8.6c6.2-3.1,12.4-5.9,18.7-8.6c-27.3-14.3-52.7-31.8-74.8-53.9l-34.6,32.4l-35.3-37.8l-37.8,35.4l-27.3-29.2
		c-1.8,61.4-1.9,122.8,1.5,184.1C8717.9,1609.9,8725.8,1629.5,8735.2,1648.4z"/>
	<path class="st8" d="M9221.7,1555.6c-45.6,12.9-91.5,24.9-137.7,35.6c-5.3,1.2-9.2-6.7-3.9-9.1c31.9-14.6,64.1-28.4,96.7-41.1
		c-47-13.9-95.1-24.6-142.1-38.1c-9.1-2.6-18.2-5.4-27.3-8.3c-12,0-24.1-0.3-36.1-1.2c-11.3-0.8-22.7-2.2-33.9-4.5
		c-8.4,19.2-15.3,39-21.3,59.2c-10.2,34.6-17.7,69.9-24.4,105.4l64,2.1l3.4-103.7l2.4,81.3l382.3,12.5c3.7-4.2,7.3-8.5,10.6-13
		c-29-27.9-63.7-48.5-100.5-64.4C9243.4,1563.8,9232.6,1559.6,9221.7,1555.6z"/>
	<path class="st8" d="M9205.1,1549.9c-4.3-1.4-8.5-2.8-12.8-4.2c-18.8,7.2-37.5,14.7-56,22.5
		C9159.3,1562.4,9182.2,1556.2,9205.1,1549.9z"/>
	<path class="st8" d="M9039.1,1494c43.3,12.4,87.4,22.4,130.6,34.7c7.3,2.1,14.7,4.3,22,6.5c18.4-7,37-13.6,55.6-19.9
		c-46.6-4.4-92.8-12.3-138.2-23.4c-17.7,0.2-35.4,0.6-53.1,1.3C9050.4,1493.6,9044.8,1493.8,9039.1,1494z"/>
	<path class="st8" d="M9596.5,1585.4c7.9-2.8,15.9-5.6,23.9-8.2c-6.7,0.2-13.4,0.4-20.1,0.6c-14.3,6.7-28.6,13.5-42.9,20.3
		c-34.6,16.7-69,33.8-103.2,51.3l32.8,1.1c69-25.5,138.2-50.3,207.3-75.4c-12.2,0.4-24.5,0.7-36.8,1c-19.5,6.3-39,12.7-58.4,18.9
		C9593,1597,9590.5,1587.6,9596.5,1585.4z"/>
	<path class="st8" d="M8950.1,1462.8c0.3,0.1,0.7,0.3,1,0.4c18.7,8.2,37.8,15.1,57.1,21.4c20.5,0,41.1-1,61.6-1.9
		c1.3-0.1,2.5-0.1,3.8-0.1c-19.9-5.6-39.6-11.9-59.1-18.7c-19-2.5-37.9-5.2-56.8-8.3c-0.5-0.1-0.9-0.2-1.3-0.4
		c-0.9,0.3-1.7,0.6-2.6,0.9C8952.5,1458.3,8951.3,1460.6,8950.1,1462.8z"/>
	<path class="st8" d="M9356.8,1646.3l76.8,2.5c46.8-24.1,93.9-47.6,141.5-70.1c-14.7,0.5-29.4,1.1-44.1,1.7
		c-28.2,1.2-56.2,4.2-84.3,6.5c-48.1,3.8-100.8,7.7-147.7-7.2c23.8,13.5,46,29.5,65.8,49.1c1.5,1.5,2,4.3,0.8,6.1
		C9362.8,1638.7,9359.8,1642.5,9356.8,1646.3z"/>
	<path class="st8" d="M8945.6,1471.6c-1.3,2.7-2.6,5.4-3.9,8.2c11.2,2.2,22.7,3.4,34,4C8965.6,1480,8955.5,1476,8945.6,1471.6z"/>
	<path class="st8" d="M9071.6,1460.5c86.3,8.8,173.1,13.5,259.6,21.7h33.9c2.6,0,4.2,1.8,4.7,3.9c11.9,1.3,23.9,2.7,35.8,4.2
		c30.3-9.3,60.7-18.5,91-27.6c13.4-4.4,26.9-8.5,40.4-12.6c-13.9-0.1-27.9-0.1-41.8-0.2c-159.4-0.5-318.8,0.4-478.1,4.3
		C9035.2,1456.6,9053.4,1458.6,9071.6,1460.5z"/>
	<path class="st8" d="M9353,1519.2c-2.7,0.1-5.5,0.1-8.2,0.1c-35.6,10.8-71.3,21.5-107.1,31.7c13,5,25.9,10.5,38.4,16.6
		c0-1.8,1-3.6,2.4-4.6c23.9-16.8,49.5-31.1,75.7-43.8C9353.8,1519.2,9353.4,1519.2,9353,1519.2z"/>
	<path class="st8" d="M9802.7,1535.3c-16.1,3.4-32.1,7.3-48,11.5c-19.2,5.6-38.4,11.2-57.6,16.8c10.3-0.3,20.7-0.6,31-0.8
		C9753.1,1553.7,9777.9,1544.6,9802.7,1535.3z"/>
	<path class="st8" d="M10038.8,1454.3c-42.9-0.4-85.8-0.8-128.7-1.2c-20.9,6.8-41.7,13.9-62.4,21.4
		c-75.4,27.2-149.4,58.2-222.3,91.6c10.9-0.3,21.7-0.7,32.6-1.1c3.4-1,6.7-2.1,10.1-3.1c10.7-3.3,21.4-6.5,32.1-9.6
		c13.6-4.2,27.3-8.2,41-12c51.9-15.1,103.8-30.3,154.3-49.5c-25.2-0.4-50.4,2.8-75,8.8c-6.3,1.5-8.9-8.1-2.7-9.6
		c32.9-8.1,66.8-11.4,100.6-7.8c5.8,0.6,6.6,7.7,1.3,9.8c-22.1,9-44.5,17.1-67,24.6c0.3,0,0.6-0.1,0.8-0.1c6-0.8,6.1,8,1.3,9.8
		c-32.1,12.2-64.3,24.2-96.5,36c2.5,0,4.9,0,7.4,0c6.5,0,6.4,9.7,0,10c-13.1,0.7-26.2,1.2-39.3,1.7c-70.9,25.9-142,51.3-212.9,77.3
		l129.7,4.2l0.9-26.6l678.1,22.2l6.4-195.4C10232,1455.7,10135.4,1455.1,10038.8,1454.3z"/>
	<path class="st8" d="M9221.8,1545.2c29.7-8.4,59.4-17.1,89-26c-12.5-0.3-25-0.9-37.5-1.7c-22.3,7-44.4,14.6-66.3,22.7
		C9212,1541.8,9216.9,1543.5,9221.8,1545.2z"/>
	<path class="st8" d="M9545.3,1458.8c-9.6,2.8-19.2,5.6-28.8,8.4c-26.8,8.4-53.4,17.5-79.6,27.4c10.3,1.5,20.6,3.1,30.8,4.8
		c4.7,0.8,4.8,8.9,0,9.6c-29.2,4.4-58.5,7.5-88,9.1c-30.7,13.8-60.5,29.5-88.4,48.2c26,10.3,54.7,13,82.4,13.5
		c32.7,0.6,65.1-2.5,97.6-5.4c-7.5-0.6-14.9-1.3-22.4-2.1c-5.1-0.6-6.5-6.2-2.5-9.3c27.8-21.4,61.8-33.9,95.2-43.6
		c63.6-18.5,129.6-25.2,194-40.4c37.9-9,75.8-17.9,113.8-26.5c-91.6-0.9-183.2-1.7-274.7-2.2
		C9564.9,1453.1,9555.1,1455.9,9545.3,1458.8z"/>
	<path class="st8" d="M9853.8,1461.7c-21.7,4.8-43.5,9.6-65.1,14.6c-19.8,4.6-39.4,10-59.3,14.4c-31,6.7-62.5,11.7-93.7,17.6
		c-33.8,6.3-67.6,13.4-100.5,23.5c-25.2,7.8-50.3,17.5-72.5,31.9c45.7,4.2,91.5,4.3,137.4,3.2c38.4-17.9,77.1-35.1,116.1-51.6
		C9761.6,1496.2,9807.5,1478.2,9853.8,1461.7z"/>
	<path class="st8" d="M8699.3,1550.7c-1.5-48.6-0.9-97.3,0.4-145.6c0-0.4,0-0.7,0-1.1l-22.1,20.7
		C8681.2,1467.2,8688.3,1509.5,8699.3,1550.7z"/>
	<path class="st8" d="M8684.2,1531.7c-7.4-32.3-12.7-65.2-15.9-98.3l-1,1l-34.5-36.9l-42,39.3l-30-32l-33.5,31.4l-34.8-37.2
		l-42.4,39.7h-1.8l-40.4-43.2l-46.1,43.2h-2.3l-41.3-44.1l-45.9,43.1l0.5-15.5l-39-41.6l-43.3,40.5l-30.5-32.6l-40.3,37.8
		l-35.3-37.8l-37.8,35.4l-32.9-35.2l-36.7,34.4l-34.5-36.9l-42,39.3l-30-32l-33.5,31.4l-34.8-37.2l-43.3,40.5l-41.2-44.1l-47.4,44.3
		l-42.4-45.2l-39.7,37.2l-33.2-35.5l-43.3,40.5l-30.5-32.6l-40.3,37.8l-35.3-37.8l-37.8,35.4l-32.9-35.2l-36.7,34.4l-34.5-36.9
		l-42,39.3l-30-32l-33.5,31.4l-34.8-37.2l-43.3,40.5l-41.2-44.1l-47.4,44.3l-42.4-45.2l-42.3,39.7l0-0.7l-39-41.6l-43.3,40.5
		l-30.5-32.6l-40.3,37.8l-35.3-37.8l-37.8,35.4l-32.9-35.2l-36.7,34.4l-34.5-36.9l-42,39.3l-30-32l-33.5,31.4l-34.8-37.2l-43.3,40.5
		l-41.2-44.1l-47.4,44.3l-42.4-45.2l-37.8,35.5l-38.7-41.3l-43.3,40.5l-30.5-32.6l-40.3,37.8l-35.3-37.8l-37.8,35.4l-32.9-35.2
		l-36.7,34.4l-34.5-36.9l-42,39.3l-30-32l-33.5,31.4l-34.8-37.2l-43.3,40.5l-41.2-44.1l-47.4,44.3l-42.4-45.2l-39.7,37.2l-33.2-35.5
		l-43.3,40.5l-30.5-32.6l-40.3,37.8l-35.3-37.8l-37.8,35.4l-32.9-35.2l-36.7,34.4l-34.5-36.9l-42,39.3l-30-32l-33.5,31.4l-34.8-37.2
		l-43.3,40.5l-41.2-44.1l-47.4,44.3l-42.4-45.2l-42.3,39.7l0-0.7l-39-41.6l-43.3,40.5L4745,1394l-40.3,37.8l-35.3-37.8l-37.8,35.4
		l-32.9-35.2l-36.7,34.4l-34.5-36.9l-42,39.3l-30-32l-33.5,31.4l-34.8-37.2l-43.3,40.5l-41.2-44.1l-47.4,44.3l-42.4-45.2l-36.9,34.6
		l0-0.1l-39-41.6l-43.3,40.5l-30.5-32.6l-40.3,37.8l-35.3-37.8l-37.8,35.4l-32.9-35.2l-36.7,34.4l-34.5-36.9l-42,39.3l-30-32
		L3740,1426l-34.8-37.2l-43.3,40.5l-41.2-44.1l-47.4,44.3l-42.4-45.2l-39.7,37.2l-33.2-35.5l-43.3,40.5l-30.5-32.6l-40.3,37.8
		l-35.3-37.8l-37.8,35.4l-32.9-35.2l-36.7,34.4l-34.5-36.9l-42,39.3l-30-32l-33.5,31.4l-34.8-37.2l-43.3,40.5l-41.2-44.1l-47.4,44.3
		l-42.4-45.2l-42.3,39.7l0-0.7l-39-41.6l-43.3,40.5l-30.5-32.6l-40.3,37.8l-35.3-37.8l-37.8,35.4l-32.9-35.2l-36.7,34.4l-34.5-36.9
		l-42,39.3l-30-32l-33.5,31.4l-34.8-37.2l-43.3,40.5l-41.2-44.1l-47.4,44.3l-42.4-45.2l-36.3,34l-36.4-38.9l-43.3,40.5l-30.5-32.6
		l-40.3,37.8l-35.3-37.8l-37.8,35.4l-32.9-35.2l-36.7,34.4l-34.5-36.9l-42,39.3l-30-32l-33.5,31.4l-34.8-37.2l-43.3,40.5l-41.2-44.1
		l-47.4,44.3l-42.4-45.2l-39.7,37.2l-33.2-35.5l-43.3,40.5l-30.5-32.6l-40.3,37.8l-35.3-37.8l-37.8,35.4l-32.9-35.2l-36.7,34.4
		l-34.5-36.9l-42,39.3l-30-32l-33.5,31.4l-34.8-37.2l-43.3,40.5l-41.2-44.1l-47.4,44.3L807,1391l-42.3,39.7l0-0.7l-39-41.6
		l-43.3,40.5l-30.5-32.6l-40.3,37.8l-35.3-37.8l-37.8,35.4l-32.9-35.2l-36.7,34.4l-34.5-36.9l-42,39.3l-30-32l-33.5,31.4l-34.8-37.2
		l-43.3,40.5l-41.2-44.1l-47.4,44.3l-42.4-45.2l-49.5,46.4l0,1.2H-6.2v3463h8700V1647.1l11.3,0.4c-1.8-18.6-3.2-37.3-4.2-56.1
		C8694.4,1571.7,8688.8,1551.7,8684.2,1531.7z"/>
	<rect x="9575.1" y="-133.3" class="st2" width="0" height="139.1"/>
	<rect x="-3.2" y="4843.6" class="st8" width="8459.2" height="396.4"/>
</g>
</svg>
