<?xml version="1.0" encoding="utf-8"?>
<!-- Generator: Adobe Illustrator 21.1.0, SVG Export Plug-In . SVG Version: 6.00 Build 0)  -->
<svg version="1.1" id="Layer_1" xmlns="http://www.w3.org/2000/svg" xmlns:xlink="http://www.w3.org/1999/xlink" x="0px" y="0px"
	 viewBox="0 0 8456 5240" style="enable-background:new 0 0 8456 5240;" xml:space="preserve">
<style type="text/css">
	.st0{opacity:0.5;}
	.st1{fill:#7785AC;}
</style>
<g class="st0">
	<path class="st1" d="M136,4135.9c-42.1,42.1-84.1,84.1-126.2,126.2c-3.9,3.9-8.4,9.3-13.7,5.6c-4.5-3.2-7-9.5-9.6-14.8
		c-0.9-1.9-0.1-5.2,0.8-7.5c10.9-29.9,19.4-60.9,37.6-87.7c16.2-23.8,34.6-45.5,58.5-61.8c12-8.2,24.8-13.9,40.3-13.5
		c5.4,0.1,11.6-4.8,16.4-8.8c21.1-17.6,41.5-36.1,62.9-53.5c13.1-10.7,27.2-20.2,41.2-29.6c6.5-4.4,13.7-3.7,20.2,1.4
		c5.1,3.9,5.6,8.5,2,13.4c-2.3,3.1-5.3,5.6-8,8.3C217.6,4054.3,176.8,4095.1,136,4135.9C136,4135.9,136,4135.9,136,4135.9z
		 M204.4,4042.4c-0.4-0.4-0.7-0.8-1.1-1.2c-6.5,5.6-13,11.3-19.6,16.9c-14.5,12.3-28.9,24.7-43.8,36.6c-3.6,2.9-9,5.8-13.1,5.2
		c-13.8-2.1-24.9,3.4-35.2,10.9c-31,22.8-53.8,52.3-69.2,87.3c-5.4,12.3-9.3,25.3-13.8,38c0.4,0.2,0.9,0.5,1.3,0.7
		C74.7,4172.1,139.5,4107.3,204.4,4042.4z"/>
	<path class="st1" d="M624.3,3523.9c-2.6-4.9-4.1-11-7.9-14.6c-17.1-16.1-34.9-31.6-52.5-47.2c-2-1.8-4.3-3.3-6.3-5.1
		c-3.7-3.3-5.5-7.3-1.9-11.6c3.5-4.3,8-3.3,11.9-0.5c5.6,4,11.2,8.1,16.2,12.7c15.3,13.8,30.5,27.7,45.3,42
		c7.4,7.1,10.1,16.5,10.5,26.7c0.1,2.7,1.7,6.1,3.7,7.9c43.5,40.9,87.1,81.6,130.6,122.3c11.3,10.6,22.4,21.3,33.6,32
		c3,2.9,6.1,5.8,8.5,9.1c6.5,8.8,6.8,17.4,1.1,23.6c-6,6.6-16.5,8.4-24.9,3c-8.5-5.4-16.8-11.3-24.1-18
		c-45.6-41.5-90.8-83.3-136.2-124.9c-1.1-1-2.3-1.8-3.4-2.8c-9.6-9.4-18.4-14.4-33.7-8.4c-16.8,6.6-34.1,1.6-48-11.9
		c-14.6-14.1-30.1-27.4-45.1-41.2c-1.8-1.6-4.1-3.7-4.3-5.8c-0.4-3-0.1-7.4,1.8-9c1.8-1.6,6.7-1.6,9.1-0.3c4.4,2.5,8,6.4,11.9,9.8
		c14.2,12.8,28.3,25.7,42.6,38.4c6.5,5.8,18,7.4,26.7,4.2c-0.1-0.4,0.1-1.1-0.2-1.3c-20.4-19.2-40.7-38.4-61.1-57.5
		c-0.7-0.7-1.5-1.3-2.2-2c-4-3.8-7.3-8.2-2.9-13.4c4.5-5.3,9.2-2.6,13.3,1.3c18.1,17,36.1,34,54.2,50.9c5,4.7,10.1,9.2,16.1,14.6
		c1.6-1.5,4.4-3,5.3-5.2c0.5-1.1-2.1-3.9-3.8-5.5c-19.6-18.2-39.4-36.2-59.1-54.3c-2.3-2.2-4.5-4.5-6.8-6.8c-3.7-3.9-5-8.2-0.7-12.3
		c4-3.8,8.2-2.3,11.8,1c10.2,9.5,20.4,19.2,30.6,28.7c10.6,9.8,21.3,19.6,32.1,29.3c1.6,1.4,3.5,2.5,5.3,3.7
		C622.4,3525,623.3,3524.5,624.3,3523.9z M623.9,3553.8c7,5.8,13.3,10.8,19.3,16.2c45.1,41.3,90,82.6,135.1,123.9
		c5.4,5,11.4,9.3,17.3,13.6c2.2,1.6,4.9,2.3,8.3,3.8c-3.1-9.6-160.8-159.1-173.2-165C628.7,3548.5,626.6,3550.8,623.9,3553.8z"/>
	<path class="st1" d="M1272.1,4164.8c17.5-17.5,35.1-34.8,52.3-52.6c3.3-3.5,5-8.8,6.6-13.5c4.2-12.2,6.8-25.1,12.2-36.8
		c8.7-18.9,36.2-37.1,60.8-27.4c17.6,7,29.8,20,36.5,37.5c4.3,11.2,1.5,22.8-6.3,31.6c-8.1,9-17.5,16.9-27.1,24.4
		c-8.3,6.5-18.1,9-28.9,7.7c-2.6-0.3-6.3,1.3-8.4,3.3c-31.2,30.2-62.3,60.5-93.2,91.1c-29.4,29.1-58.2,58.9-87.9,87.7
		c-5.8,5.6-14.2,9.5-22,11.7c-13.7,3.8-24.2-6.7-19.5-20c3.7-10.5,10.1-20.6,17-29.5c10.1-13,21.5-24.9,32.8-36.9
		c24.8-26.4,49.8-52.5,74.8-78.7C1271.8,4164.5,1272,4164.7,1272.1,4164.8z M1161.9,4311.5c0.9,0.9,1.8,1.8,2.8,2.7
		c5-3.3,10.7-5.9,14.9-10c23.8-23.9,46.8-48.5,70.7-72.1c32.9-32.4,66.4-64.2,99.6-96.2c2.1-2,3.9-4.3,5.9-6.4
		c-3.6-5.1-7.9-9.9-2.7-15.2c4.9-5,9.2-0.6,14,1.6c8.5,3.9,18.2,6.5,26.5,0.9c9.7-6.4,19-13.8,26.7-22.4c3.7-4.1,5.8-12.9,4-17.8
		c-4.9-13.1-14.3-23.6-28.6-27.2c-5-1.3-11.1-0.7-16,1c-16.7,5.9-31.8,28.9-31.5,46.5c0,1.2,0.4,2.5,0.9,3.6
		c2.6,4.9,0.7,8.6-2.7,12.1c-9.2,9.5-18.1,19.3-27.5,28.6c-48.1,47.5-96.1,95.1-140.3,146.4
		C1172.3,4295,1167.4,4303.5,1161.9,4311.5z"/>
	<path class="st1" d="M2779.9,4172.5c4.8-2.5,10.7-4,14.2-7.7c15.7-16.7,30.8-34,46-51.1c1.7-2,3.2-4.2,5-6.1
		c3.2-3.6,7.1-5.3,11.3-1.8c4.2,3.4,3.2,7.8,0.4,11.6c-3.9,5.4-7.9,10.9-12.3,15.8c-13.5,14.9-27,29.7-40.9,44.2
		c-6.9,7.2-16,9.9-26,10.2c-2.6,0.1-5.9,1.6-7.7,3.6c-39.8,42.3-79.4,84.8-119.2,127.3c-10.3,11-20.7,21.8-31.2,32.7
		c-2.8,2.9-5.6,5.9-8.9,8.3c-8.6,6.4-17,6.6-22.9,1.1c-6.4-5.9-8.1-16.1-2.9-24.3c5.2-8.2,11-16.3,17.5-23.5
		c40.4-44.4,81.1-88.5,121.7-132.7c1-1.1,1.8-2.3,2.8-3.3c9.2-9.3,14.1-17.9,8.2-32.8c-6.5-16.4-1.5-33.2,11.6-46.8
		c13.8-14.2,26.7-29.3,40.1-43.9c1.6-1.7,3.6-3.9,5.6-4.2c2.9-0.4,7.2-0.1,8.8,1.7c1.6,1.8,1.6,6.5,0.3,8.8
		c-2.4,4.3-6.2,7.8-9.6,11.6c-12.5,13.9-25,27.6-37.4,41.5c-5.7,6.4-7.2,17.6-4.1,26.1c0.4-0.1,1,0.1,1.3-0.2
		c18.7-19.8,37.4-39.7,56-59.5c0.7-0.7,1.3-1.4,1.9-2.1c3.7-3.9,8-7.1,13-2.8c5.1,4.4,2.6,9-1.2,13c-16.5,17.6-33.1,35.2-49.6,52.8
		c-4.5,4.9-8.9,9.8-14.2,15.7c1.4,1.6,2.9,4.2,5.1,5.2c1.1,0.5,3.8-2,5.3-3.7c17.7-19.1,35.3-38.4,52.9-57.5
		c2.1-2.3,4.4-4.4,6.6-6.6c3.8-3.6,7.9-4.9,11.9-0.7c3.7,3.9,2.2,8-1,11.5c-9.3,10-18.7,19.8-28,29.8c-9.6,10.3-19.1,20.8-28.5,31.3
		c-1.4,1.5-2.4,3.4-3.6,5.1C2778.9,4170.7,2779.4,4171.6,2779.9,4172.5z M2750.8,4172.1c-5.7,6.8-10.5,13-15.8,18.8
		c-40.2,43.9-80.5,87.7-120.7,131.6c-4.8,5.3-9.1,11.1-13.3,16.9c-1.5,2.1-2.2,4.8-3.7,8.1c9.3-3,155-156.6,160.7-168.7
		C2756,4176.9,2753.7,4174.8,2750.8,4172.1z"/>
	<path class="st1" d="M1959.3,3594.2c-43.3-43.3-86.5-86.6-129.9-129.8c-4-4-9.5-8.7-5.7-14c3.3-4.6,9.7-7.2,15.2-9.9
		c2-1,5.3-0.1,7.7,0.8c30.8,11.2,62.6,20,90.2,38.7c24.5,16.6,46.9,35.6,63.6,60.2c8.4,12.3,14.3,25.5,13.9,41.4
		c-0.1,5.6,5,12,9,16.9c18.1,21.7,37.2,42.7,55.1,64.7c11,13.5,20.8,28,30.5,42.4c4.5,6.7,3.8,14.1-1.4,20.7
		c-4,5.2-8.8,5.8-13.8,2.1c-3.2-2.3-5.7-5.5-8.5-8.3C2043.3,3678.1,2001.3,3636.1,1959.3,3594.2
		C1959.3,3594.1,1959.3,3594.1,1959.3,3594.2z M2055.5,3664.5c0.4-0.4,0.8-0.7,1.3-1.1c-5.8-6.7-11.7-13.4-17.4-20.2
		c-12.6-14.9-25.5-29.8-37.7-45.1c-3-3.7-6-9.3-5.4-13.5c2.1-14.2-3.5-25.6-11.2-36.2c-23.4-31.9-53.8-55.3-89.8-71.2
		c-12.7-5.6-26.1-9.5-39.1-14.2c-0.2,0.4-0.5,0.9-0.7,1.3C1922.1,3531.1,1988.8,3597.8,2055.5,3664.5z"/>
	<path class="st1" d="M3340.9,3608.4c-18.1-18.1-36-36.4-54.4-54.1c-3.6-3.4-9.1-5.1-14-6.8c-12.6-4.4-26-7-38.1-12.6
		c-19.6-9-38.4-37.5-28.3-62.9c7.2-18.2,20.7-30.8,38.8-37.7c11.6-4.5,23.6-1.5,32.7,6.6c9.3,8.3,17.5,18.2,25.3,28.1
		c6.7,8.6,9.3,18.7,7.9,30c-0.3,2.7,1.4,6.6,3.4,8.6c31.3,32.3,62.6,64.5,94.2,96.4c30.2,30.4,61,60.3,90.8,91
		c5.8,6,9.8,14.7,12.1,22.8c3.9,14.2-7,25.1-20.7,20.2c-10.9-3.9-21.3-10.4-30.5-17.6c-13.4-10.5-25.8-22.3-38.2-34
		c-27.3-25.7-54.3-51.6-81.4-77.4C3340.5,3608.8,3340.7,3608.6,3340.9,3608.4z M3492.7,3722.5c0.9-1,1.9-1.9,2.8-2.9
		c-3.4-5.2-6.1-11.1-10.4-15.4c-24.7-24.6-50.2-48.4-74.6-73.2c-33.5-34-66.4-68.7-99.6-103c-2.1-2.2-4.4-4.1-6.7-6.1
		c-5.3,3.7-10.2,8.1-15.7,2.8c-5.2-5.1-0.7-9.5,1.6-14.5c4.1-8.8,6.7-18.8,1-27.5c-6.6-10-14.3-19.7-23.1-27.7
		c-4.2-3.8-13.3-6.1-18.4-4.2c-13.6,5.1-24.4,14.8-28.1,29.6c-1.3,5.1-0.7,11.5,1,16.6c6.1,17.3,29.9,33,48.1,32.6
		c1.2,0,2.6-0.4,3.7-1c5-2.7,8.9-0.7,12.5,2.8c9.8,9.5,20,18.7,29.6,28.5c49.2,49.8,98.4,99.5,151.5,145.2
		C3475.5,3711.7,3484.4,3716.8,3492.7,3722.5z"/>
	<path class="st1" d="M657.4,4887.1c2.5,4.8,4,10.6,7.7,14.1c16.6,15.6,33.8,30.6,50.8,45.7c1.9,1.7,4.1,3.2,6.1,5
		c3.5,3.2,5.3,7.1,1.8,11.2c-3.4,4.1-7.7,3.2-11.5,0.4c-5.4-3.9-10.8-7.8-15.7-12.3c-14.8-13.4-29.5-26.8-43.9-40.6
		c-7.2-6.9-9.8-15.9-10.1-25.9c-0.1-2.6-1.6-5.9-3.6-7.7c-42.1-39.6-84.3-79-126.5-118.4c-10.9-10.2-21.7-20.6-32.5-31
		c-2.9-2.8-5.9-5.6-8.3-8.8c-6.3-8.6-6.6-16.8-1.1-22.8c5.9-6.4,16-8.1,24.2-2.9c8.2,5.2,16.2,10.9,23.4,17.4
		c44.1,40.2,87.9,80.6,131.9,121c1,1,2.3,1.8,3.3,2.8c9.3,9.1,17.8,14,32.6,8.2c16.3-6.4,33-1.5,46.5,11.5
		c14.2,13.7,29.1,26.6,43.7,39.9c1.7,1.6,3.9,3.6,4.2,5.6c0.4,2.9,0.1,7.2-1.7,8.7c-1.8,1.5-6.5,1.6-8.8,0.3
		c-4.3-2.4-7.8-6.2-11.5-9.5c-13.8-12.4-27.4-24.9-41.3-37.2c-6.3-5.6-17.5-7.2-25.9-4c0.1,0.4-0.1,1,0.2,1.3
		c19.7,18.6,39.4,37.1,59.2,55.7c0.7,0.7,1.4,1.3,2.1,1.9c3.9,3.7,7.1,7.9,2.8,12.9c-4.4,5.1-8.9,2.5-12.9-1.2
		c-17.5-16.4-35-32.9-52.5-49.3c-4.8-4.5-9.8-8.9-15.6-14.1c-1.6,1.4-4.2,2.9-5.1,5.1c-0.5,1.1,2,3.8,3.6,5.3
		c19,17.6,38.1,35.1,57.2,52.6c2.3,2.1,4.4,4.3,6.5,6.6c3.6,3.7,4.9,7.9,0.7,11.9c-3.9,3.7-7.9,2.2-11.4-1
		c-9.9-9.2-19.7-18.6-29.7-27.8c-10.3-9.5-20.7-18.9-31.1-28.3c-1.5-1.4-3.4-2.4-5.1-3.6C659.2,4886,658.3,4886.6,657.4,4887.1z
		 M657.8,4858.1c-6.7-5.7-12.9-10.5-18.7-15.7c-43.6-39.9-87.1-80-130.8-119.9c-5.2-4.8-11-9-16.8-13.2c-2.1-1.5-4.8-2.2-8.1-3.7
		c3,9.3,155.7,154,167.7,159.7C653.1,4863.3,655.2,4861,657.8,4858.1z"/>
	<path class="st1" d="M3291.4,4778.3c-42.2-42.2-84.4-84.4-126.6-126.6c-3.9-3.9-9.3-8.5-5.6-13.7c3.2-4.5,9.5-7,14.8-9.6
		c1.9-1,5.2-0.1,7.5,0.8c30,10.9,61.1,19.5,88,37.8c23.9,16.2,45.7,34.7,62.1,58.7c8.2,12,13.9,24.9,13.6,40.4
		c-0.1,5.4,4.8,11.7,8.8,16.4c17.7,21.2,36.3,41.7,53.7,63.1c10.7,13.1,20.3,27.3,29.7,41.4c4.4,6.5,3.7,13.7-1.4,20.2
		c-3.9,5.1-8.5,5.7-13.5,2c-3.1-2.3-5.6-5.3-8.3-8.1C3373.3,4860.2,3332.4,4819.2,3291.4,4778.3
		C3291.4,4778.3,3291.4,4778.3,3291.4,4778.3z M3385.2,4846.9c0.4-0.4,0.8-0.7,1.2-1.1c-5.7-6.6-11.4-13.1-17-19.7
		c-12.3-14.6-24.8-29-36.7-43.9c-2.9-3.6-5.9-9.1-5.2-13.2c2.1-13.9-3.4-25-11-35.3c-22.8-31.1-52.4-54-87.6-69.5
		c-12.4-5.4-25.4-9.3-38.2-13.9c-0.2,0.4-0.5,0.9-0.7,1.3C3255.1,4716.8,3320.2,4781.9,3385.2,4846.9z"/>
	<path class="st1" d="M1833.7,4823.8c-18.5-18.5-36.9-37.3-55.8-55.4c-3.7-3.5-9.3-5.3-14.3-7c-13-4.5-26.7-7.2-39-12.9
		c-20-9.2-39.4-38.4-29-64.5c7.4-18.7,21.3-31.6,39.7-38.7c11.9-4.6,24.2-1.6,33.5,6.7c9.6,8.6,18,18.6,25.9,28.8
		c6.9,8.8,9.6,19.2,8.1,30.7c-0.4,2.8,1.4,6.7,3.5,8.9c32.1,33.1,64.2,66.1,96.6,98.9c30.9,31.2,62.5,61.8,93,93.3
		c5.9,6.1,10,15,12.4,23.4c4,14.5-7.1,25.7-21.3,20.7c-11.2-4-21.8-10.7-31.3-18.1c-13.7-10.7-26.4-22.8-39.1-34.8
		c-28-26.3-55.6-52.9-83.4-79.3C1833.4,4824.2,1833.5,4824,1833.7,4823.8z M1989.3,4940.7c1-1,1.9-2,2.9-2.9
		c-3.5-5.3-6.2-11.4-10.6-15.8c-25.3-25.2-51.4-49.6-76.5-75c-34.4-34.9-68-70.4-102.1-105.6c-2.1-2.2-4.5-4.2-6.8-6.3
		c-5.4,3.8-10.5,8.3-16.1,2.9c-5.3-5.2-0.7-9.8,1.6-14.8c4.2-9.1,6.9-19.3,1-28.1c-6.8-10.2-14.6-20.2-23.7-28.4
		c-4.3-3.9-13.6-6.2-18.8-4.3c-13.9,5.2-25,15.1-28.8,30.3c-1.3,5.3-0.8,11.8,1.1,17c6.2,17.7,30.6,33.8,49.3,33.4
		c1.3,0,2.7-0.4,3.8-1c5.2-2.8,9.1-0.7,12.8,2.9c10.1,9.7,20.5,19.2,30.3,29.2c50.4,51,100.9,102,155.3,148.8
		C1971.7,4929.7,1980.8,4934.8,1989.3,4940.7z"/>
	<path class="st1" d="M4073,4197.8c-45.1,45.1-90.1,90.1-135.2,135.2c-4.2,4.2-9,9.9-14.6,6c-4.8-3.4-7.5-10.1-10.3-15.8
		c-1-2.1-0.1-5.5,0.8-8.1c11.7-32.1,20.8-65.2,40.3-93.9c17.3-25.5,37-48.8,62.7-66.2c12.9-8.7,26.6-14.9,43.1-14.5
		c5.8,0.1,12.5-5.2,17.5-9.4c22.6-18.9,44.5-38.7,67.3-57.3c14-11.4,29.1-21.6,44.1-31.7c7-4.7,14.6-3.9,21.6,1.5
		c5.4,4.2,6.1,9.1,2.2,14.4c-2.4,3.3-5.7,6-8.6,8.9C4160.4,4110.4,4116.7,4154.1,4073,4197.8C4073,4197.8,4073,4197.8,4073,4197.8z
		 M4146.2,4097.6c-0.4-0.4-0.8-0.9-1.2-1.3c-7,6-14,12.1-21,18.1c-15.6,13.2-31,26.5-46.9,39.2c-3.8,3.1-9.7,6.2-14,5.6
		c-14.8-2.2-26.7,3.6-37.7,11.7c-33.2,24.4-57.6,56-74.2,93.5c-5.8,13.2-9.9,27.1-14.8,40.7c0.5,0.3,0.9,0.5,1.4,0.8
		C4007.3,4236.5,4076.8,4167.1,4146.2,4097.6z"/>
	<path class="st1" d="M4569.2,3520.5c-2.9-5.5-4.6-12.3-8.9-16.4c-19.2-18.1-39.1-35.4-58.8-53c-2.3-2-4.8-3.7-7-5.7
		c-4.1-3.7-6.1-8.2-2.1-13c4-4.8,9-3.7,13.3-0.5c6.2,4.5,12.5,9.1,18.2,14.2c17.1,15.5,34.2,31.1,50.9,47.1c8.3,8,11.4,18.5,11.8,30
		c0.1,3,1.9,6.8,4.1,8.9c48.7,45.8,97.7,91.4,146.5,137.2c12.7,11.9,25.1,23.9,37.6,35.9c3.4,3.2,6.8,6.5,9.6,10.2
		c7.3,9.9,7.6,19.5,1.3,26.4c-6.8,7.4-18.5,9.4-28,3.3c-9.5-6-18.8-12.6-27.1-20.2c-51.1-46.5-101.8-93.4-152.7-140.1
		c-1.2-1.1-2.6-2-3.8-3.2c-10.7-10.5-20.6-16.2-37.8-9.4c-18.9,7.4-38.2,1.8-53.9-13.4c-16.4-15.9-33.7-30.8-50.6-46.2
		c-2-1.8-4.5-4.1-4.8-6.5c-0.4-3.4-0.1-8.3,2-10.1c2.1-1.8,7.5-1.8,10.2-0.3c4.9,2.8,9,7.2,13.3,11c16,14.3,31.8,28.8,47.8,43.1
		c7.3,6.5,20.2,8.3,30,4.7c-0.1-0.5,0.1-1.2-0.2-1.5c-22.8-21.5-45.7-43-68.5-64.5c-0.8-0.8-1.6-1.5-2.4-2.2
		c-4.5-4.3-8.2-9.2-3.3-15c5.1-5.9,10.3-2.9,15,1.4c20.3,19,40.5,38.1,60.8,57.1c5.6,5.2,11.3,10.3,18,16.3c1.8-1.6,4.9-3.3,6-5.9
		c0.5-1.2-2.3-4.4-4.2-6.1c-22-20.4-44.2-40.6-66.2-60.9c-2.6-2.4-5.1-5-7.6-7.6c-4.1-4.3-5.6-9.1-0.8-13.7
		c4.5-4.3,9.2-2.6,13.2,1.2c11.5,10.7,22.8,21.5,34.3,32.2c11.9,11,23.9,21.9,36,32.8c1.8,1.6,3.9,2.8,5.9,4.1
		C4567.1,3521.7,4568.1,3521.1,4569.2,3520.5z M4568.7,3554c7.8,6.5,14.9,12.1,21.6,18.2c50.5,46.3,100.9,92.7,151.5,138.9
		c6.1,5.6,12.8,10.4,19.4,15.3c2.4,1.8,5.5,2.6,9.3,4.2c-3.5-10.7-180.3-178.4-194.2-185C4574.1,3548,4571.8,3550.6,4568.7,3554z"/>
	<path class="st1" d="M5192.1,4173.5c17.4-17.4,34.9-34.5,51.9-52.2c3.3-3.4,4.9-8.7,6.6-13.4c4.2-12.1,6.8-25,12.1-36.5
		c8.6-18.8,36-36.9,60.4-27.2c17.5,6.9,29.6,19.9,36.2,37.2c4.3,11.2,1.5,22.7-6.3,31.4c-8,9-17.4,16.8-26.9,24.3
		c-8.2,6.4-18,9-28.8,7.6c-2.6-0.3-6.3,1.3-8.3,3.3c-31,30-61.9,60.1-92.6,90.5c-29.2,28.9-57.8,58.5-87.4,87.1
		c-5.7,5.6-14.1,9.4-21.9,11.6c-13.6,3.8-24-6.7-19.4-19.9c3.7-10.5,10-20.5,16.9-29.3c10-12.9,21.4-24.7,32.6-36.7
		c24.6-26.2,49.5-52.1,74.3-78.1C5191.8,4173.2,5192,4173.3,5192.1,4173.5z M5082.6,4319.2c0.9,0.9,1.8,1.8,2.8,2.7
		c5-3.3,10.6-5.8,14.8-10c23.6-23.7,46.5-48.2,70.3-71.6c32.6-32.2,65.9-63.7,98.9-95.6c2.1-2,3.9-4.3,5.9-6.4
		c-3.6-5.1-7.8-9.8-2.7-15.1c4.9-5,9.1-0.6,13.9,1.5c8.5,3.9,18.1,6.4,26.4,0.9c9.6-6.4,18.9-13.7,26.6-22.2c3.6-4,5.8-12.8,4-17.6
		c-4.9-13-14.2-23.4-28.4-27c-4.9-1.2-11-0.7-15.9,1c-16.6,5.8-31.6,28.7-31.3,46.2c0,1.2,0.4,2.5,0.9,3.5c2.6,4.8,0.7,8.5-2.7,12
		c-9.1,9.5-18,19.2-27.3,28.4c-47.8,47.2-95.5,94.5-139.3,145.5C5093,4302.8,5088.1,4311.3,5082.6,4319.2z"/>
	<path class="st1" d="M6639,4195.3c5.1-2.7,11.4-4.3,15.1-8.2c16.7-17.8,32.7-36.2,49-54.4c1.9-2.1,3.4-4.4,5.3-6.5
		c3.5-3.8,7.6-5.7,12-2c4.4,3.7,3.4,8.3,0.5,12.3c-4.2,5.8-8.4,11.6-13.1,16.8c-14.3,15.8-28.7,31.6-43.5,47
		c-7.4,7.7-17.1,10.5-27.7,10.9c-2.8,0.1-6.3,1.7-8.2,3.8c-42.4,45.1-84.6,90.3-126.8,135.5c-11,11.7-22.1,23.3-33.2,34.8
		c-3,3.1-6,6.3-9.5,8.9c-9.2,6.8-18,7-24.4,1.2c-6.9-6.3-8.7-17.1-3.1-25.9c5.6-8.8,11.7-17.4,18.6-25
		c43-47.2,86.3-94.2,129.6-141.2c1-1.1,1.9-2.4,2.9-3.5c9.8-9.9,15-19.1,8.7-34.9c-6.9-17.5-1.6-35.3,12.4-49.8
		c14.7-15.2,28.4-31.2,42.7-46.8c1.7-1.8,3.8-4.2,6-4.5c3.1-0.4,7.7-0.1,9.4,1.8c1.7,1.9,1.7,6.9,0.3,9.4
		c-2.6,4.6-6.6,8.3-10.2,12.3c-13.3,14.8-26.7,29.4-39.9,44.2c-6,6.8-7.7,18.7-4.3,27.7c0.5-0.1,1.1,0.1,1.4-0.2
		c19.9-21.1,39.8-42.2,59.7-63.4c0.7-0.7,1.4-1.5,2.1-2.3c4-4.1,8.5-7.6,13.8-3c5.4,4.7,2.7,9.5-1.3,13.8
		c-17.6,18.7-35.2,37.5-52.8,56.2c-4.8,5.2-9.5,10.5-15.1,16.7c1.5,1.7,3.1,4.5,5.4,5.5c1.1,0.5,4.1-2.2,5.7-3.9
		c18.8-20.4,37.6-40.8,56.3-61.2c2.2-2.4,4.6-4.7,7-7c4-3.8,8.5-5.2,12.7-0.8c4,4.2,2.4,8.5-1.1,12.2c-9.9,10.6-19.9,21.1-29.8,31.8
		c-10.2,11-20.3,22.1-30.3,33.3c-1.5,1.6-2.6,3.6-3.8,5.5C6637.9,4193.4,6638.4,4194.3,6639,4195.3z M6608,4194.9
		c-6.1,7.2-11.2,13.8-16.8,20c-42.8,46.7-85.7,93.3-128.4,140.1c-5.1,5.6-9.6,11.8-14.1,18c-1.6,2.2-2.4,5.1-3.9,8.6
		c9.9-3.2,165-166.7,171.1-179.6C6613.5,4199.9,6611.1,4197.7,6608,4194.9z"/>
	<path class="st1" d="M5890.8,3596.5c-49.5-49.5-98.9-98.9-148.4-148.4c-4.6-4.6-10.9-9.9-6.5-16.1c3.7-5.3,11.1-8.2,17.4-11.3
		c2.3-1.1,6.1-0.1,8.8,0.9c35.2,12.8,71.6,22.9,103.1,44.3c28,19,53.6,40.7,72.7,68.8c9.6,14.1,16.3,29.2,15.9,47.3
		c-0.1,6.4,5.7,13.7,10.3,19.3c20.7,24.8,42.5,48.8,62.9,73.9c12.6,15.4,23.8,32,34.8,48.5c5.1,7.7,4.3,16.1-1.6,23.7
		c-4.6,5.9-10,6.6-15.8,2.4c-3.6-2.7-6.6-6.3-9.8-9.5C5986.8,3692.5,5938.8,3644.5,5890.8,3596.5
		C5890.8,3596.5,5890.8,3596.5,5890.8,3596.5z M6000.8,3676.9c0.5-0.4,1-0.9,1.4-1.3c-6.6-7.7-13.3-15.3-19.9-23.1
		c-14.5-17.1-29.1-34-43.1-51.5c-3.4-4.2-6.9-10.6-6.1-15.4c2.4-16.2-4-29.3-12.8-41.3c-26.8-36.4-61.5-63.2-102.7-81.4
		c-14.5-6.4-29.8-10.9-44.7-16.3c-0.3,0.5-0.6,1-0.8,1.5C5848.3,3524.4,5924.5,3600.7,6000.8,3676.9z"/>
	<path class="st1" d="M7105.6,3605c-18.7-18.7-37.2-37.6-56.3-56c-3.7-3.6-9.4-5.3-14.5-7.1c-13.1-4.5-26.9-7.3-39.4-13
		c-20.2-9.3-39.7-38.8-29.3-65.1c7.5-18.9,21.5-31.9,40.1-39c12-4.6,24.5-1.6,33.9,6.8c9.7,8.6,18.1,18.8,26.2,29
		c6.9,8.9,9.7,19.4,8.2,31c-0.4,2.8,1.4,6.8,3.5,8.9c32.4,33.4,64.8,66.8,97.5,99.8c31.2,31.5,63.1,62.3,93.9,94.2
		c6,6.2,10.1,15.2,12.5,23.6c4.1,14.6-7.2,25.9-21.5,20.9c-11.3-4-22-10.8-31.6-18.2c-13.9-10.8-26.7-23.1-39.5-35.1
		c-28.2-26.5-56.2-53.4-84.2-80.1C7105.2,3605.4,7105.4,3605.2,7105.6,3605z M7262.7,3723.1c1-1,2-2,2.9-3
		c-3.5-5.3-6.3-11.5-10.7-15.9c-25.5-25.4-51.9-50.1-77.2-75.8c-34.7-35.2-68.7-71.1-103-106.6c-2.2-2.2-4.6-4.2-6.9-6.3
		c-5.5,3.9-10.6,8.4-16.2,2.9c-5.4-5.2-0.7-9.9,1.7-15c4.2-9.1,6.9-19.5,1-28.4c-6.9-10.3-14.8-20.4-23.9-28.6
		c-4.3-3.9-13.8-6.3-19-4.3c-14,5.3-25.3,15.3-29.1,30.6c-1.3,5.3-0.8,11.9,1.1,17.1c6.3,17.9,30.9,34.1,49.8,33.7
		c1.3,0,2.7-0.4,3.8-1c5.2-2.8,9.2-0.7,12.9,2.9c10.2,9.8,20.6,19.4,30.6,29.5c50.9,51.5,101.9,102.9,156.8,150.2
		C7244.9,3711.9,7254.1,3717.1,7262.7,3723.1z"/>
	<path class="st1" d="M4674.3,4892.5c2.5,4.7,3.9,10.4,7.6,13.9c16.3,15.3,33.2,30,49.9,44.9c1.9,1.7,4.1,3.2,6,4.9
		c3.5,3.2,5.2,7,1.8,11c-3.4,4.1-7.6,3.1-11.3,0.4c-5.3-3.8-10.6-7.7-15.5-12c-14.5-13.1-29-26.4-43.1-39.9
		c-7.1-6.8-9.7-15.7-10-25.4c-0.1-2.6-1.6-5.8-3.5-7.6c-41.3-38.9-82.8-77.6-124.3-116.4c-10.7-10.1-21.3-20.3-31.9-30.5
		c-2.9-2.7-5.8-5.5-8.1-8.7c-6.2-8.4-6.4-16.6-1.1-22.4c5.8-6.3,15.7-8,23.7-2.8c8,5.1,15.9,10.7,23,17.1
		c43.3,39.5,86.4,79.2,129.6,118.9c1,0.9,2.2,1.7,3.2,2.7c9.1,8.9,17.5,13.7,32,8c16-6.3,32.4-1.5,45.7,11.3
		c13.9,13.5,28.6,26.1,42.9,39.2c1.7,1.5,3.9,3.5,4.1,5.5c0.3,2.9,0.1,7-1.7,8.6c-1.7,1.5-6.4,1.5-8.6,0.3
		c-4.2-2.4-7.6-6.1-11.3-9.4c-13.5-12.2-27-24.5-40.5-36.6c-6.2-5.5-17.1-7.1-25.4-4c0.1,0.4-0.1,1,0.2,1.2
		c19.4,18.3,38.8,36.5,58.1,54.7c0.7,0.6,1.4,1.2,2.1,1.9c3.8,3.6,7,7.8,2.8,12.7c-4.3,5-8.7,2.5-12.7-1.2
		c-17.2-16.2-34.4-32.3-51.6-48.4c-4.7-4.4-9.6-8.7-15.3-13.9c-1.5,1.4-4.1,2.8-5.1,5c-0.4,1.1,2,3.7,3.6,5.2
		c18.7,17.3,37.5,34.5,56.2,51.7c2.2,2.1,4.3,4.3,6.4,6.5c3.5,3.7,4.8,7.8,0.7,11.7c-3.8,3.7-7.8,2.2-11.2-1
		c-9.7-9.1-19.4-18.3-29.1-27.3c-10.1-9.4-20.3-18.6-30.5-27.8c-1.5-1.4-3.3-2.4-5-3.5C4676.1,4891.4,4675.2,4892,4674.3,4892.5z
		 M4674.7,4864c-6.6-5.6-12.7-10.3-18.3-15.4c-42.9-39.2-85.6-78.6-128.5-117.8c-5.1-4.7-10.8-8.8-16.5-13c-2-1.5-4.7-2.2-7.9-3.6
		c3,9.1,152.9,151.3,164.7,156.9C4670.1,4869.1,4672.1,4866.9,4674.7,4864z"/>
	<path class="st1" d="M7101.7,4778.8c-40-40-80-80.1-120.1-120.1c-3.7-3.7-8.8-8-5.3-13c3-4.3,9-6.7,14-9.1c1.8-0.9,4.9-0.1,7.2,0.7
		c28.5,10.4,57.9,18.5,83.4,35.8c22.6,15.4,43.3,32.9,58.8,55.7c7.8,11.4,13.2,23.6,12.9,38.3c-0.1,5.2,4.6,11.1,8.4,15.6
		c16.8,20.1,34.4,39.5,50.9,59.8c10.2,12.5,19.2,25.9,28.2,39.2c4.2,6.2,3.5,13-1.3,19.2c-3.7,4.8-8.1,5.4-12.8,1.9
		c-2.9-2.2-5.3-5.1-7.9-7.7C7179.3,4856.5,7140.5,4817.6,7101.7,4778.8C7101.7,4778.8,7101.7,4778.8,7101.7,4778.8z M7190.7,4843.9
		c0.4-0.3,0.8-0.7,1.2-1c-5.4-6.2-10.8-12.4-16.1-18.7c-11.7-13.8-23.5-27.5-34.8-41.7c-2.7-3.4-5.5-8.6-5-12.5
		c2-13.1-3.2-23.7-10.4-33.4c-21.7-29.5-49.7-51.2-83.1-65.9c-11.7-5.2-24.1-8.8-36.2-13.2c-0.2,0.4-0.4,0.8-0.7,1.2
		C7067.3,4720.5,7129,4782.2,7190.7,4843.9z"/>
	<path class="st1" d="M5890.8,4839.1c-18.3-18.3-36.4-36.8-55.1-54.7c-3.6-3.5-9.3-5.1-14.3-6.7c-13-4.2-26.8-6.6-39.2-12.1
		c-20.1-8.8-38.9-37.9-27.8-64.5c8-19.1,22.3-32.5,41.2-40.1c12.2-4.9,24.6-2.2,33.8,6c9.5,8.4,17.7,18.4,25.5,28.5
		c6.7,8.7,9.2,19.2,7.5,30.9c-0.4,2.9,1.2,6.8,3.3,8.9c31.6,32.7,63.3,65.4,95.3,97.7c30.5,30.8,61.7,61,91.9,92.1
		c5.9,6,9.8,15,11.9,23.4c3.7,14.6-7.9,26.2-22,21.4c-11.2-3.7-21.8-10.3-31.2-17.5c-13.6-10.5-26.2-22.5-38.8-34.3
		c-27.6-25.9-55-52.1-82.5-78.2C5890.4,4839.4,5890.6,4839.3,5890.8,4839.1z M6045.4,4953.6c1-1,2-2,3-3.1
		c-3.4-5.3-6-11.4-10.4-15.7c-25-24.9-50.8-49-75.6-74.1c-33.9-34.4-67.1-69.6-100.7-104.4c-2.1-2.2-4.5-4.1-6.8-6.2
		c-5.6,4-10.8,8.7-16.3,3.3c-5.3-5.1-0.5-9.9,2-15.1c4.4-9.3,7.4-19.7,1.7-28.5c-6.6-10.2-14.3-20.1-23.3-28.1
		c-4.3-3.8-13.7-5.9-19-3.8c-14.2,5.6-25.7,15.9-30,31.4c-1.5,5.4-1.1,11.9,0.7,17.2c5.8,17.8,30.2,33.4,49.1,32.6
		c1.3-0.1,2.7-0.5,3.9-1.1c5.3-2.9,9.2-0.9,12.9,2.6c10,9.6,20.2,18.9,30,28.8c49.8,50.4,99.6,100.7,153.5,146.8
		C6027.9,4942.8,6037,4947.8,6045.4,4953.6z"/>
	<path class="st1" d="M7053,2274.8c-44.8-44.8-89.7-89.7-134.5-134.5c-3-3-6.3-5.8-8.8-9.1c-4-5.4-3.3-10.4,2.2-14.7
		c7.1-5.5,15-6.3,22.1-1.5c15.4,10.4,30.9,20.8,45.3,32.6c23.4,19.1,45.8,39.4,69.1,58.8c5.2,4.4,12,9.8,18,9.7
		c17-0.4,31,5.9,44.2,14.9c26.3,17.9,46.6,41.8,64.3,68c20,29.4,29.4,63.5,41.4,96.3c0.9,2.6,1.9,6.1,0.8,8.3
		c-2.8,5.8-5.6,12.7-10.5,16.2c-5.7,4-10.7-1.8-15-6.1C7145.5,2367.3,7099.2,2321,7053,2274.8C7053,2274.8,7053,2274.8,7053,2274.8z
		 M7191.7,2385.8c0.5-0.3,1-0.5,1.4-0.8c-5-14-9.2-28.3-15.2-41.8c-17-38.5-42-70.9-76.1-96c-11.3-8.3-23.5-14.3-38.6-12
		c-4.5,0.7-10.5-2.6-14.4-5.7c-16.3-13.1-32.2-26.7-48.1-40.2c-7.2-6.1-14.4-12.4-21.6-18.6c-0.4,0.4-0.8,0.9-1.2,1.3
		C7049.2,2243.3,7120.4,2314.6,7191.7,2385.8z"/>
	<path class="st1" d="M6577.3,1616c1.9-1.3,4.1-2.5,5.8-4.1c11.8-10.7,23.6-21.4,35.3-32.2c11.3-10.5,22.4-21.1,33.7-31.6
		c3.9-3.7,8.5-5.4,12.9-1.1c4.7,4.5,3.2,9.2-0.8,13.5c-2.4,2.5-4.8,5.1-7.4,7.5c-21.6,19.9-43.3,39.8-64.9,59.7
		c-1.8,1.7-4.6,4.8-4.1,6c1.1,2.5,4.1,4.2,5.8,5.8c6.6-5.9,12.2-10.9,17.7-16c19.9-18.6,39.8-37.3,59.6-56c4.5-4.3,9.7-7.2,14.7-1.4
		c4.9,5.7,1.2,10.5-3.2,14.7c-0.8,0.7-1.6,1.5-2.4,2.2c-22.4,21.1-44.8,42.2-67.2,63.3c-0.3,0.3-0.1,0.9-0.2,1.4
		c9.6,3.6,22.2,1.8,29.4-4.6c15.7-14,31.2-28.2,46.9-42.3c4.2-3.8,8.2-8.1,13-10.8c2.6-1.5,7.9-1.5,10,0.3c2.1,1.8,2.3,6.6,1.9,9.9
		c-0.3,2.3-2.8,4.5-4.7,6.3c-16.5,15.1-33.5,29.7-49.6,45.3c-15.4,14.9-34.3,20.4-52.8,13.1c-16.8-6.6-26.5-1.1-37,9.3
		c-1.2,1.1-2.5,2-3.7,3.1c-49.9,45.8-99.7,91.8-149.8,137.4c-8.1,7.4-17.3,13.9-26.6,19.8c-9.3,5.9-20.8,4-27.4-3.3
		c-6.2-6.8-5.9-16.2,1.3-25.9c2.7-3.7,6.1-6.9,9.4-10c12.2-11.8,24.5-23.6,36.9-35.2c47.9-44.8,95.9-89.6,143.6-134.5
		c2.2-2.1,3.9-5.7,4-8.7c0.4-11.3,3.4-21.6,11.5-29.4c16.4-15.7,33.1-31,49.9-46.2c5.6-5.1,11.7-9.5,17.9-13.9
		c4.3-3.1,9.2-4.2,13.1,0.5c3.9,4.7,1.9,9.1-2.1,12.8c-2.2,2-4.7,3.7-6.9,5.6c-19.3,17.2-38.9,34.2-57.7,51.9
		c-4.2,4-5.9,10.6-8.7,16C6575.3,1614.8,6576.3,1615.4,6577.3,1616z M6567.2,1638.9c-13.6,6.5-187,170.9-190.4,181.4
		c3.7-1.6,6.8-2.4,9.1-4.2c6.5-4.8,13.1-9.5,19.1-15c49.6-45.3,99-90.8,148.5-136.2c6.5-6,13.5-11.4,21.2-17.9
		C6571.7,1643.8,6569.4,1641.3,6567.2,1638.9z"/>
	<path class="st1" d="M5991.3,2274.8c24.3,25.6,48.8,51,73,76.8c11,11.7,22.2,23.4,32,36c6.8,8.7,13,18.5,16.6,28.8
		c4.6,13-5.7,23.3-19,19.6c-7.7-2.1-15.9-5.9-21.5-11.4c-29-28.1-57.1-57.2-85.8-85.6c-30.1-29.8-60.5-59.4-90.9-88.8
		c-2-1.9-5.6-3.5-8.2-3.2c-10.6,1.3-20.2-1.1-28.2-7.5c-9.3-7.3-18.6-15-26.5-23.8c-7.7-8.6-10.4-19.9-6.2-30.9
		c6.5-17,18.4-29.7,35.6-36.5c24-9.5,50.8,8.3,59.3,26.7c5.2,11.4,7.8,24,11.9,35.9c1.6,4.6,3.2,9.8,6.4,13.2
		c16.7,17.4,33.9,34.3,51,51.3C5990.9,2275.1,5991.1,2275,5991.3,2274.8z M6082,2395.1c-43.1-50.1-89.9-96.5-136.9-142.9
		c-9.2-9.1-17.9-18.6-26.9-27.9c-3.3-3.4-5.2-7-2.6-11.8c0.6-1,0.9-2.3,0.9-3.5c0.3-17.2-14.5-39.7-30.7-45.4
		c-4.8-1.7-10.8-2.2-15.6-1c-14,3.5-23.1,13.7-27.9,26.5c-1.8,4.8,0.4,13.4,3.9,17.3c7.5,8.4,16.7,15.6,26.1,21.8
		c8.1,5.4,17.6,2.9,25.9-0.9c4.7-2.1,8.9-6.4,13.6-1.5c5,5.2,0.9,9.8-2.7,14.8c1.9,2.1,3.7,4.3,5.8,6.3
		c32.4,31.3,65.1,62.3,97.1,93.9c23.4,23.1,45.8,47.1,69,70.4c4,4.1,9.6,6.6,14.5,9.8c0.9-0.9,1.8-1.8,2.7-2.7
		C6092.9,2410.6,6088.1,2402.3,6082,2395.1z"/>
	<path class="st1" d="M4534.1,2272.9c-1.2-1.8-2.3-3.8-3.8-5.4c-9.9-11-19.9-21.9-29.9-32.8c-9.7-10.5-19.6-20.8-29.3-31.3
		c-3.4-3.7-5-7.9-1.1-12c4.2-4.4,8.6-3,12.5,0.8c2.4,2.3,4.7,4.5,6.9,6.9c18.5,20.1,37,40.3,55.5,60.4c1.6,1.7,4.4,4.3,5.6,3.8
		c2.3-1,3.9-3.8,5.4-5.4c-5.5-6.1-10.1-11.3-14.9-16.4c-17.3-18.5-34.7-36.9-52-55.4c-4-4.2-6.7-9-1.3-13.6c5.3-4.5,9.8-1.1,13.6,3
		c0.7,0.7,1.3,1.5,2,2.2c19.6,20.8,39.2,41.7,58.8,62.5c0.2,0.3,0.9,0.1,1.3,0.2c3.3-8.9,1.7-20.7-4.3-27.3
		c-13-14.6-26.2-29-39.3-43.6c-3.5-3.9-7.5-7.6-10-12.1c-1.4-2.4-1.4-7.4,0.3-9.3c1.7-1.9,6.1-2.2,9.2-1.8c2.1,0.3,4.2,2.6,5.9,4.4
		c14,15.3,27.6,31.1,42.1,46.1c13.8,14.3,19,31.9,12.2,49.1c-6.2,15.6-1,24.6,8.6,34.4c1.1,1.1,1.9,2.3,2.9,3.5
		c42.6,46.4,85.3,92.6,127.7,139.2c6.9,7.6,12.9,16,18.4,24.7c5.5,8.7,3.7,19.3-3,25.5c-6.3,5.8-15,5.5-24.1-1.2
		c-3.4-2.5-6.4-5.7-9.3-8.7c-11-11.4-21.9-22.8-32.7-34.3c-41.7-44.5-83.2-89.1-125-133.5c-1.9-2-5.3-3.7-8.1-3.8
		c-10.5-0.3-20-3.1-27.3-10.7c-14.6-15.2-28.8-30.7-42.9-46.3c-4.7-5.2-8.8-10.9-12.9-16.6c-2.9-4-3.9-8.5,0.5-12.1
		c4.4-3.6,8.5-1.8,11.9,1.9c1.9,2,3.4,4.3,5.2,6.4c16,18,31.8,36.1,48.3,53.6c3.7,3.9,9.9,5.5,14.9,8.1
		C4533,2274.8,4533.6,2273.9,4534.1,2272.9z M4555.4,2282.3c6,12.7,158.8,173.8,168.6,176.9c-1.5-3.5-2.3-6.3-3.9-8.5
		c-4.4-6.1-8.9-12.2-13.9-17.7c-42.1-46.1-84.4-92-126.6-138c-5.6-6.1-10.6-12.6-16.6-19.7C4560,2278.2,4557.6,2280.3,4555.4,2282.3
		z"/>
	<path class="st1" d="M5244.6,1687.2c-46.3,46.3-92.7,92.7-139,139c-3.1,3.1-5.9,6.6-9.4,9.1c-5.6,4.1-10.8,3.4-15.2-2.3
		c-5.7-7.4-6.5-15.5-1.6-22.9c10.7-16,21.5-31.9,33.7-46.8c19.7-24.2,40.8-47.4,60.8-71.4c4.5-5.4,10.1-12.4,10-18.6
		c-0.4-17.5,6.1-32.1,15.4-45.7c18.5-27.2,43.2-48.1,70.3-66.5c30.4-20.7,65.6-30.4,99.6-42.8c2.7-1,6.3-1.9,8.5-0.9
		c6,2.9,13.2,5.8,16.8,10.9c4.2,5.9-1.9,11.1-6.3,15.5C5340.2,1591.6,5292.4,1639.4,5244.6,1687.2
		C5244.6,1687.2,5244.6,1687.2,5244.6,1687.2z M5359.4,1543.9c-0.3-0.5-0.5-1-0.8-1.5c-14.4,5.2-29.2,9.5-43.2,15.7
		c-39.8,17.5-73.3,43.5-99.2,78.6c-8.6,11.7-14.7,24.3-12.4,39.9c0.7,4.6-2.7,10.8-5.9,14.9c-13.5,16.9-27.6,33.2-41.6,49.8
		c-6.3,7.5-12.8,14.9-19.2,22.3c0.5,0.4,0.9,0.8,1.4,1.2C5212,1691.2,5285.7,1617.6,5359.4,1543.9z"/>
	<path class="st1" d="M4005.6,1703.3c-28.1,26.7-56,53.6-84.3,80.1c-12.8,12.1-25.6,24.3-39.5,35.2c-9.5,7.4-20.3,14.2-31.6,18.3
		c-14.3,5.1-25.5-6.2-21.5-20.9c2.3-8.4,6.5-17.4,12.5-23.6c30.9-31.8,62.8-62.7,94-94.2c32.7-33.1,65.2-66.4,97.5-99.8
		c2.1-2.2,3.9-6.1,3.5-9c-1.5-11.6,1.3-22.1,8.2-31c8-10.3,16.5-20.4,26.2-29.1c9.4-8.4,21.8-11.4,33.9-6.8
		c18.6,7.2,32.6,20.2,40.1,39.1c10.4,26.3-9.1,55.8-29.3,65.1c-12.5,5.8-26.3,8.5-39.4,13c-5.1,1.7-10.8,3.5-14.5,7.1
		c-19.1,18.3-37.6,37.3-56.3,56C4005.2,1702.9,4005.4,1703.1,4005.6,1703.3z M3873.5,1802.8c55-47.3,106-98.7,156.8-150.3
		c9.9-10.1,20.4-19.6,30.6-29.5c3.7-3.6,7.7-5.7,12.9-2.9c1.1,0.6,2.5,1,3.8,1c18.9,0.4,43.6-15.9,49.8-33.7
		c1.8-5.2,2.4-11.8,1.1-17.1c-3.9-15.3-15.1-25.4-29.1-30.6c-5.2-2-14.7,0.4-19,4.3c-9.2,8.3-17.1,18.3-23.9,28.6
		c-5.9,8.9-3.2,19.3,1,28.4c2.4,5.1,7.1,9.7,1.7,15c-5.7,5.5-10.8,0.9-16.2-2.9c-2.3,2.1-4.7,4.1-6.9,6.3
		c-34.3,35.6-68.4,71.4-103.1,106.6c-25.3,25.7-51.7,50.3-77.2,75.8c-4.5,4.4-7.2,10.6-10.7,15.9c1,1,2,2,2.9,3
		C3856.5,1814.8,3865.6,1809.6,3873.5,1802.8z"/>
	<path class="st1" d="M6497.4,3052.7c-2.1,1.4-4.3,2.7-6.2,4.3c-12.6,11.4-25.2,22.8-37.6,34.3c-12,11.1-23.9,22.5-35.9,33.6
		c-4.2,3.9-9.1,5.7-13.8,1.2c-5-4.8-3.5-9.8,0.9-14.4c2.6-2.7,5.2-5.4,7.9-8c23.1-21.2,46.2-42.4,69.2-63.7c1.9-1.8,5-5.1,4.4-6.4
		c-1.1-2.7-4.3-4.4-6.2-6.2c-7,6.3-13,11.6-18.9,17.1c-21.2,19.9-42.4,39.8-63.6,59.7c-4.8,4.6-10.3,7.6-15.6,1.5
		c-5.2-6-1.3-11.2,3.4-15.7c0.8-0.8,1.7-1.5,2.5-2.3c23.9-22.5,47.8-44.9,71.6-67.4c0.3-0.3,0.2-1,0.2-1.5
		c-10.2-3.8-23.7-1.9-31.3,4.9c-16.7,14.9-33.3,30.1-50,45.1c-4.5,4-8.7,8.6-13.9,11.5c-2.8,1.6-8.5,1.6-10.6-0.3
		c-2.2-1.9-2.5-7-2.1-10.6c0.3-2.4,3-4.8,5-6.7c17.6-16.1,35.7-31.7,52.8-48.3c16.4-15.8,36.6-21.7,56.3-14
		c17.9,7.1,28.3,1.2,39.5-9.9c1.2-1.2,2.7-2.2,4-3.3c53.2-48.8,106.2-97.8,159.6-146.4c8.7-7.9,18.4-14.8,28.3-21.1
		c9.9-6.3,22.1-4.3,29.2,3.5c6.6,7.2,6.3,17.2-1.3,27.6c-2.9,3.9-6.5,7.3-10,10.7c-13.1,12.6-26.1,25.1-39.3,37.5
		c-51,47.8-102.2,95.5-153.1,143.4c-2.3,2.2-4.2,6.1-4.3,9.3c-0.4,12-3.6,23-12.3,31.3c-17.4,16.7-35.2,33-53.1,49.2
		c-6,5.4-12.5,10.1-19,14.8c-4.6,3.3-9.8,4.5-13.9-0.5c-4.2-5-2.1-9.7,2.2-13.6c2.3-2.1,5-3.9,7.3-6c20.6-18.4,41.4-36.5,61.5-55.4
		c4.5-4.2,6.3-11.3,9.3-17.1C6499.5,3053.9,6498.5,3053.3,6497.4,3052.7z M6508.2,3028.3c14.5-6.9,199.3-182.1,202.9-193.4
		c-4,1.8-7.2,2.6-9.8,4.4c-7,5.1-14,10.2-20.3,16c-52.8,48.3-105.5,96.8-158.3,145.2c-7,6.4-14.4,12.2-22.6,19
		C6503.4,3023,6505.8,3025.7,6508.2,3028.3z"/>
	<path class="st1" d="M3986.4,2997.9c-46.8,46.8-93.6,93.6-140.5,140.4c-3.1,3.1-6,6.6-9.5,9.2c-5.6,4.2-10.9,3.5-15.4-2.3
		c-5.8-7.4-6.6-15.6-1.6-23.1c10.8-16.1,21.8-32.3,34-47.3c19.9-24.5,41.2-47.9,61.4-72.1c4.5-5.4,10.2-12.6,10.1-18.8
		c-0.4-17.7,6.2-32.4,15.5-46.2c18.7-27.5,43.7-48.6,71-67.2c30.8-20.9,66.3-30.7,100.6-43.2c2.7-1,6.4-2,8.6-0.9
		c6.1,3,13.3,5.9,16.9,11c4.2,6-1.9,11.2-6.4,15.7C4083,2901.4,4034.7,2949.7,3986.4,2997.9
		C3986.4,2998,3986.4,2997.9,3986.4,2997.9z M4102.4,2853.2c-0.3-0.5-0.5-1-0.8-1.5c-14.6,5.2-29.5,9.6-43.6,15.9
		c-40.2,17.7-74.1,43.9-100.2,79.5c-8.7,11.8-14.9,24.5-12.5,40.3c0.7,4.7-2.7,10.9-6,15c-13.6,17.1-27.9,33.6-42,50.3
		c-6.4,7.6-12.9,15-19.4,22.5c0.5,0.4,0.9,0.8,1.4,1.2C3953.5,3002,4028,2927.6,4102.4,2853.2z"/>
	<path class="st1" d="M5333.7,3000.8c-28.8,27.4-57.4,54.8-86.3,82c-13.2,12.4-26.3,24.9-40.5,36c-9.8,7.6-20.8,14.6-32.4,18.7
		c-14.6,5.2-26.2-6.4-22-21.4c2.4-8.6,6.7-17.9,12.8-24.2c31.6-32.6,64.3-64.2,96.2-96.5c33.5-33.9,66.7-68,99.9-102.2
		c2.2-2.2,4-6.3,3.6-9.2c-1.5-11.9,1.3-22.7,8.4-31.8c8.2-10.5,16.9-20.9,26.8-29.8c9.6-8.6,22.4-11.7,34.7-7
		c19.1,7.3,33.4,20.7,41.1,40c10.7,27-9.3,57.1-30,66.7c-12.8,5.9-26.9,8.7-40.4,13.4c-5.2,1.8-11,3.6-14.8,7.2
		c-19.5,18.8-38.5,38.2-57.7,57.3C5333.3,3000.5,5333.5,3000.7,5333.7,3000.8z M5198.4,3102.8c56.3-48.4,108.5-101.1,160.6-153.9
		c10.2-10.3,20.9-20.1,31.3-30.2c3.8-3.7,7.9-5.8,13.2-3c1.2,0.6,2.6,1,3.9,1c19.4,0.4,44.6-16.3,51-34.6c1.9-5.4,2.5-12.1,1.1-17.6
		c-4-15.7-15.4-26-29.8-31.4c-5.4-2-15,0.4-19.5,4.4c-9.4,8.5-17.5,18.7-24.5,29.3c-6.1,9.2-3.3,19.8,1,29.1
		c2.4,5.2,7.2,10,1.7,15.3c-5.8,5.6-11,1-16.6-3c-2.4,2.2-4.9,4.2-7.1,6.5c-35.2,36.4-70,73.2-105.6,109.2
		c-25.9,26.3-52.9,51.5-79.1,77.6c-4.6,4.5-7.4,10.8-11,16.3c1,1,2,2,3,3C5180.9,3115.1,5190.3,3109.8,5198.4,3102.8z"/>
	<path class="st1" d="M3284.1,2330.6c-44.9-44.9-89.8-89.8-134.7-134.7c-3-3-6.4-5.8-8.9-9.1c-4-5.4-3.3-10.5,2.2-14.8
		c7.1-5.5,15-6.3,22.2-1.5c15.5,10.4,30.9,20.9,45.4,32.6c23.5,19.1,45.9,39.5,69.2,58.9c5.2,4.4,12.1,9.8,18,9.7
		c17-0.4,31.1,5.9,44.3,14.9c26.4,17.9,46.6,41.9,64.4,68.1c20,29.5,29.4,63.6,41.4,96.5c0.9,2.6,1.9,6.1,0.8,8.3
		c-2.9,5.8-5.6,12.8-10.5,16.2c-5.7,4.1-10.7-1.8-15-6.1C3376.7,2423.2,3330.4,2376.9,3284.1,2330.6
		C3284.1,2330.6,3284.1,2330.6,3284.1,2330.6z M3422.9,2441.8c0.5-0.3,1-0.5,1.4-0.8c-5-14-9.2-28.3-15.2-41.9
		c-17-38.6-42.1-71.1-76.2-96.1c-11.3-8.3-23.5-14.3-38.7-12c-4.5,0.7-10.5-2.6-14.4-5.8c-16.4-13.1-32.2-26.8-48.2-40.3
		c-7.3-6.1-14.4-12.4-21.6-18.6c-0.4,0.4-0.8,0.9-1.2,1.3C3280.2,2299.1,3351.6,2370.4,3422.9,2441.8z"/>
	<path class="st1" d="M2715.3,1622.9c1.9-1.3,3.9-2.4,5.6-3.9c11.4-10.3,22.9-20.7,34.2-31.2c10.9-10.1,21.7-20.4,32.6-30.6
		c3.8-3.6,8.3-5.2,12.5-1.1c4.6,4.4,3.1,8.9-0.8,13.1c-2.3,2.5-4.7,4.9-7.2,7.2c-21,19.3-42,38.5-62.9,57.9c-1.8,1.6-4.5,4.6-4,5.8
		c1,2.4,4,4,5.7,5.6c6.4-5.8,11.8-10.6,17.1-15.5c19.3-18.1,38.5-36.2,57.8-54.3c4.4-4.1,9.4-6.9,14.2-1.3
		c4.7,5.5,1.1,10.2-3.1,14.2c-0.8,0.7-1.6,1.4-2.3,2.1c-21.7,20.4-43.4,40.8-65.1,61.3c-0.3,0.3-0.1,0.9-0.2,1.4
		c9.3,3.4,21.5,1.7,28.5-4.5c15.2-13.6,30.3-27.3,45.4-41c4.1-3.7,8-7.8,12.6-10.5c2.5-1.4,7.7-1.4,9.6,0.3c2,1.7,2.3,6.4,1.9,9.6
		c-0.3,2.2-2.7,4.4-4.6,6.1c-16,14.7-32.5,28.8-48,43.9c-14.9,14.4-33.3,19.8-51.2,12.7c-16.3-6.4-25.7-1.1-35.9,9
		c-1.1,1.1-2.4,2-3.6,3c-48.3,44.4-96.6,88.9-145.1,133.1c-7.9,7.2-16.7,13.4-25.7,19.2c-9,5.7-20.1,3.9-26.6-3.2
		c-6-6.6-5.7-15.7,1.2-25.1c2.6-3.6,5.9-6.7,9.1-9.7c11.9-11.4,23.7-22.9,35.8-34.1c46.4-43.4,92.9-86.8,139.2-130.3
		c2.1-2,3.8-5.6,3.9-8.5c0.4-10.9,3.2-20.9,11.2-28.5c15.8-15.2,32-30,48.3-44.7c5.4-4.9,11.4-9.2,17.3-13.5c4.2-3,8.9-4.1,12.7,0.5
		c3.8,4.6,1.9,8.8-2,12.4c-2.1,1.9-4.5,3.6-6.7,5.5c-18.7,16.7-37.7,33.2-55.9,50.3c-4.1,3.8-5.7,10.3-8.5,15.5
		C2713.3,1621.7,2714.3,1622.3,2715.3,1622.9z M2705.5,1645.1c-13.2,6.3-181.2,165.6-184.5,175.8c3.6-1.6,6.6-2.4,8.9-4
		c6.3-4.6,12.7-9.3,18.5-14.5c48-43.9,95.9-88,143.9-132c6.3-5.8,13.1-11.1,20.5-17.3C2709.9,1649.8,2707.6,1647.4,2705.5,1645.1z"
		/>
	<path class="st1" d="M2087.8,2351.3c27.1,28.5,54.4,56.9,81.3,85.6c12.3,13,24.7,26,35.7,40.1c7.6,9.7,14.5,20.6,18.5,32.1
		c5.1,14.5-6.3,25.9-21.2,21.8c-8.6-2.4-17.7-6.6-24-12.7c-32.3-31.3-63.7-63.7-95.7-95.4c-33.6-33.2-67.4-66.2-101.4-99
		c-2.2-2.1-6.2-3.9-9.1-3.6c-11.8,1.5-22.5-1.3-31.5-8.3c-10.4-8.1-20.7-16.7-29.5-26.6c-8.5-9.5-11.6-22.2-6.9-34.4
		c7.3-18.9,20.5-33.1,39.7-40.7c26.7-10.6,56.6,9.2,66.1,29.8c5.8,12.7,8.7,26.7,13.2,40c1.8,5.2,3.6,10.9,7.2,14.7
		c18.6,19.4,37.8,38.2,56.9,57.2C2087.4,2351.7,2087.6,2351.5,2087.8,2351.3z M2188.9,2485.5c-48-55.8-100.2-107.6-152.6-159.3
		c-10.2-10.1-19.9-20.7-29.9-31.1c-3.7-3.8-5.8-7.8-3-13.1c0.6-1.2,1-2.6,1-3.9c0.4-19.2-16.1-44.2-34.3-50.6
		c-5.3-1.9-12-2.5-17.4-1.1c-15.6,3.9-25.8,15.3-31.1,29.6c-2,5.3,0.4,14.9,4.4,19.3c8.4,9.3,18.6,17.4,29.1,24.3
		c9.1,6,19.6,3.3,28.9-1c5.2-2.4,9.9-7.2,15.2-1.7c5.6,5.8,0.9,10.9-3,16.5c2.2,2.4,4.2,4.8,6.4,7c36.1,34.9,72.5,69.4,108.3,104.7
		c26.1,25.7,51.1,52.5,77,78.4c4.5,4.5,10.7,7.3,16.2,10.9c1-1,2-2,3-3C2201.1,2502.7,2195.8,2493.4,2188.9,2485.5z"/>
	<path class="st1" d="M586.2,2367c-1.4-2-2.6-4.2-4.2-6c-11-12.2-22-24.3-33.2-36.4c-10.8-11.6-21.7-23.1-32.5-34.7
		c-3.8-4.1-5.5-8.8-1.2-13.4c4.6-4.9,9.5-3.3,13.9,0.8c2.6,2.5,5.3,5,7.7,7.7c20.5,22.3,41,44.7,61.6,67c1.7,1.9,4.9,4.8,6.2,4.3
		c2.6-1.1,4.3-4.2,6-6c-6.1-6.8-11.2-12.6-16.5-18.2c-19.2-20.5-38.5-41-57.7-61.5c-4.4-4.7-7.4-10-1.4-15.1
		c5.8-5,10.8-1.2,15.1,3.3c0.8,0.8,1.5,1.7,2.3,2.5c21.7,23.1,43.5,46.2,65.2,69.3c0.3,0.3,1,0.2,1.5,0.2c3.7-9.9,1.8-22.9-4.7-30.3
		c-14.4-16.2-29.1-32.2-43.6-48.3c-3.9-4.3-8.3-8.5-11.1-13.5c-1.5-2.7-1.5-8.2,0.3-10.3c1.8-2.1,6.8-2.4,10.2-2
		c2.3,0.3,4.7,2.9,6.5,4.9c15.6,17,30.7,34.5,46.7,51.1c15.3,15.8,21,35.4,13.5,54.5c-6.8,17.3-1.1,27.3,9.5,38.2
		c1.2,1.2,2.1,2.6,3.2,3.8c47.2,51.4,94.6,102.8,141.6,154.4c7.6,8.4,14.3,17.8,20.4,27.4c6.1,9.6,4.1,21.4-3.4,28.3
		c-7,6.4-16.7,6.1-26.7-1.3c-3.8-2.8-7.1-6.3-10.4-9.7c-12.2-12.6-24.3-25.3-36.3-38.1c-46.2-49.4-92.3-98.8-138.7-148.1
		c-2.1-2.3-5.9-4.1-9-4.2c-11.6-0.4-22.2-3.5-30.3-11.9c-16.2-16.9-31.9-34.1-47.6-51.4c-5.2-5.8-9.8-12.1-14.4-18.4
		c-3.2-4.4-4.3-9.5,0.5-13.5c4.9-4,9.4-2,13.2,2.1c2.1,2.3,3.8,4.8,5.8,7.1c17.8,19.9,35.3,40.1,53.6,59.5c4.1,4.3,11,6.1,16.5,9
		C584.9,2369.1,585.5,2368,586.2,2367z M609.8,2377.4c6.7,14,176.2,192.8,187,196.3c-1.7-3.8-2.5-7-4.3-9.4
		c-4.9-6.7-9.8-13.5-15.5-19.7c-46.7-51.1-93.7-102.1-140.4-153.1c-6.2-6.7-11.8-14-18.4-21.8
		C614.8,2372.8,612.2,2375.1,609.8,2377.4z"/>
	<path class="st1" d="M1307.7,1679c-41.5,41.5-83,83-124.4,124.4c-2.8,2.8-5.3,5.9-8.4,8.2c-5,3.7-9.7,3.1-13.6-2.1
		c-5.1-6.6-5.8-13.9-1.4-20.5c9.6-14.3,19.3-28.6,30.1-41.9c17.7-21.7,36.5-42.4,54.4-63.9c4-4.8,9.1-11.1,8.9-16.7
		c-0.4-15.7,5.5-28.7,13.8-40.9c16.6-24.4,38.7-43.1,62.9-59.5c27.2-18.5,58.7-27.2,89.1-38.3c2.4-0.9,5.7-1.7,7.6-0.8
		c5.4,2.6,11.8,5.2,15,9.7c3.7,5.3-1.7,9.9-5.7,13.9C1393.2,1593.5,1350.5,1636.3,1307.7,1679C1307.7,1679,1307.7,1679,1307.7,1679z
		 M1410.4,1550.7c-0.2-0.4-0.5-0.9-0.7-1.3c-12.9,4.6-26.1,8.5-38.7,14.1c-35.6,15.7-65.7,38.9-88.8,70.4
		c-7.7,10.4-13.2,21.7-11.1,35.7c0.6,4.1-2.4,9.7-5.3,13.3c-12.1,15.1-24.7,29.8-37.2,44.5c-5.7,6.7-11.5,13.3-17.2,20
		c0.4,0.4,0.8,0.7,1.2,1.1C1278.6,1682.6,1344.5,1616.7,1410.4,1550.7z"/>
	<path class="st1" d="M16.3,1693.3c-25.1,23.9-50,47.8-75.2,71.5c-11.5,10.8-22.9,21.7-35.3,31.4c-8.5,6.6-18.1,12.7-28.2,16.3
		c-12.7,4.5-22.8-5.6-19.2-18.6c2.1-7.5,5.8-15.6,11.2-21.1c27.6-28.4,56-56,83.9-84.1c29.2-29.5,58.2-59.3,87.1-89.1
		c1.9-1.9,3.4-5.5,3.1-8c-1.3-10.4,1.1-19.8,7.3-27.7c7.2-9.2,14.7-18.2,23.4-25.9c8.4-7.5,19.5-10.2,30.2-6.1
		c16.6,6.4,29.1,18,35.8,34.9c9.3,23.5-8.1,49.8-26.2,58.1c-11.1,5.1-23.5,7.6-35.2,11.6c-4.5,1.6-9.6,3.1-12.9,6.3
		c-17,16.4-33.6,33.3-50.3,50C16,1693,16.2,1693.1,16.3,1693.3z M-101.6,1782.2c49.1-42.2,94.6-88.1,140-134.1
		c8.9-9,18.2-17.5,27.3-26.3c3.3-3.2,6.9-5.1,11.5-2.6c1,0.5,2.3,0.9,3.4,0.9c16.9,0.3,38.9-14.2,44.5-30.1c1.6-4.7,2.2-10.5,1-15.3
		c-3.4-13.7-13.5-22.7-26-27.4c-4.7-1.8-13.1,0.3-17,3.8c-8.2,7.4-15.3,16.3-21.4,25.6c-5.3,8-2.9,17.2,0.9,25.4
		c2.1,4.6,6.3,8.7,1.5,13.4c-5.1,4.9-9.6,0.8-14.5-2.6c-2.1,1.9-4.2,3.7-6.2,5.7c-30.7,31.7-61,63.8-92,95.2
		c-22.6,22.9-46.1,44.9-69,67.7c-4,4-6.4,9.4-9.6,14.2c0.9,0.9,1.7,1.8,2.6,2.7C-116.8,1792.9-108.6,1788.3-101.6,1782.2z"/>
	<path class="st1" d="M2656,3048.4c-2,1.3-4.1,2.5-5.8,4.1c-11.8,10.7-23.7,21.4-35.4,32.3c-11.3,10.5-22.5,21.1-33.8,31.7
		c-4,3.7-8.6,5.4-13,1.1c-4.7-4.5-3.3-9.3,0.8-13.5c2.4-2.5,4.9-5.1,7.4-7.5c21.7-20,43.5-39.9,65.1-59.9c1.8-1.7,4.7-4.8,4.1-6
		c-1.1-2.5-4.1-4.2-5.9-5.8c-6.6,6-12.2,10.9-17.7,16.1c-20,18.7-39.9,37.4-59.8,56.1c-4.6,4.3-9.7,7.2-14.7,1.4
		c-4.9-5.7-1.2-10.5,3.2-14.7c0.8-0.7,1.6-1.5,2.4-2.2c22.5-21.1,44.9-42.3,67.4-63.4c0.3-0.3,0.1-0.9,0.2-1.4
		c-9.6-3.6-22.3-1.8-29.5,4.6c-15.8,14-31.3,28.3-47,42.4c-4.2,3.8-8.2,8.1-13.1,10.8c-2.6,1.5-8,1.5-10-0.3
		c-2.1-1.8-2.3-6.6-1.9-10c0.3-2.3,2.8-4.6,4.7-6.3c16.6-15.2,33.6-29.8,49.7-45.4c15.4-14.9,34.4-20.5,53-13.1
		c16.8,6.6,26.6,1.1,37.1-9.3c1.2-1.1,2.5-2,3.7-3.1c50-46,100-92,150.2-137.8c8.1-7.4,17.3-13.9,26.6-19.8c9.3-5.9,20.8-4,27.5,3.3
		c6.2,6.8,5.9,16.2-1.3,26c-2.7,3.7-6.1,6.9-9.4,10.1c-12.3,11.8-24.6,23.7-37,35.3c-48,45-96.1,89.8-144,134.9
		c-2.2,2.1-4,5.8-4.1,8.8c-0.4,11.3-3.4,21.6-11.6,29.5c-16.4,15.7-33.2,31-50,46.3c-5.6,5.1-11.8,9.5-17.9,14
		c-4.3,3.1-9.2,4.2-13.1-0.5c-3.9-4.7-2-9.1,2.1-12.8c2.2-2,4.7-3.7,6.9-5.7c19.4-17.3,39-34.3,57.9-52.1c4.2-4,5.9-10.7,8.8-16.1
		C2658,3049.5,2657,3049,2656,3048.4z M2666.1,3025.4c13.7-6.5,187.5-171.4,191-181.9c-3.7,1.7-6.8,2.4-9.2,4.2
		c-6.5,4.8-13.2,9.6-19.1,15c-49.7,45.5-99.3,91.1-149,136.6c-6.5,6-13.6,11.5-21.2,17.9C2661.6,3020.5,2663.9,3023,2666.1,3025.4z"
		/>
	<path class="st1" d="M2.6,3019.8c-43.1,43.1-86.1,86.1-129.2,129.2c-2.9,2.9-5.5,6.1-8.8,8.5c-5.2,3.8-10,3.2-14.2-2.1
		c-5.3-6.8-6.1-14.4-1.4-21.3c10-14.8,20-29.7,31.3-43.5c18.3-22.5,37.9-44,56.5-66.4c4.2-5,9.4-11.6,9.3-17.3
		c-0.4-16.3,5.7-29.8,14.3-42.5c17.2-25.3,40.2-44.7,65.3-61.8c28.3-19.2,61-28.2,92.5-39.7c2.5-0.9,5.9-1.8,7.9-0.8
		c5.6,2.7,12.2,5.4,15.6,10.1c3.9,5.5-1.8,10.3-5.9,14.4C91.4,2931,47,2975.4,2.6,3019.8C2.6,3019.8,2.6,3019.8,2.6,3019.8z
		 M109.2,2886.7c-0.2-0.5-0.5-0.9-0.7-1.4c-13.4,4.8-27.1,8.9-40.1,14.6c-37,16.3-68.2,40.4-92.2,73.1c-8,10.8-13.7,22.5-11.5,37.1
		c0.6,4.3-2.5,10.1-5.5,13.8c-12.5,15.7-25.7,30.9-38.7,46.2c-5.9,7-11.9,13.8-17.9,20.7c0.4,0.4,0.9,0.8,1.3,1.1
		C-27.7,3023.6,40.8,2955.1,109.2,2886.7z"/>
	<path class="st1" d="M1401.8,3022.1c-26.8,25.5-53.4,51-80.3,76.3c-12.2,11.5-24.4,23.2-37.7,33.5c-9.1,7.1-19.3,13.6-30.1,17.4
		c-13.6,4.8-24.3-5.9-20.5-19.9c2.2-8,6.2-16.6,11.9-22.5c29.4-30.3,59.8-59.7,89.5-89.8c31.2-31.5,62.1-63.3,92.9-95.1
		c2-2.1,3.7-5.8,3.3-8.5c-1.4-11,1.2-21.1,7.8-29.5c7.6-9.8,15.7-19.5,24.9-27.7c9-8,20.8-10.9,32.3-6.5
		c17.8,6.8,31.1,19.2,38.2,37.2c10,25.1-8.6,53.2-27.9,62c-11.9,5.5-25.1,8.1-37.5,12.4c-4.8,1.7-10.3,3.4-13.8,6.7
		c-18.2,17.5-35.8,35.5-53.7,53.3C1401.4,3021.8,1401.6,3021.9,1401.8,3022.1z M1275.9,3117c52.4-45,101-94.1,149.5-143.2
		c9.5-9.6,19.5-18.7,29.2-28.1c3.6-3.4,7.4-5.4,12.3-2.8c1.1,0.6,2.4,0.9,3.6,1c18,0.4,41.5-15.1,47.5-32.2c1.8-5,2.3-11.3,1-16.3
		c-3.7-14.6-14.4-24.2-27.8-29.2c-5-1.9-14,0.4-18.1,4.1c-8.7,7.9-16.3,17.4-22.8,27.3c-5.6,8.5-3.1,18.4,0.9,27.1
		c2.2,4.9,6.7,9.3,1.6,14.3c-5.4,5.2-10.3,0.9-15.5-2.8c-2.2,2-4.5,3.9-6.6,6c-32.7,33.9-65.1,68.1-98.2,101.6
		c-24.1,24.5-49.3,48-73.6,72.2c-4.2,4.2-6.9,10.1-10.2,15.2c0.9,0.9,1.9,1.9,2.8,2.8C1259.7,3128.5,1268.4,3123.5,1275.9,3117z"/>
	<path class="st1" d="M110,356.9C67.9,399,25.9,441.1-16.2,483.2c-3.9,3.9-8.4,9.3-13.7,5.6c-4.5-3.2-7-9.5-9.6-14.8
		c-0.9-1.9-0.1-5.2,0.8-7.5c10.9-29.9,19.4-60.9,37.6-87.7c16.2-23.8,34.6-45.5,58.5-61.8c12-8.2,24.8-13.9,40.3-13.5
		c5.4,0.1,11.6-4.8,16.4-8.8c21.1-17.6,41.5-36.1,62.9-53.5c13.1-10.7,27.2-20.2,41.2-29.6c6.5-4.4,13.7-3.7,20.2,1.4
		c5.1,3.9,5.6,8.5,2,13.4c-2.3,3.1-5.3,5.6-8,8.3C191.6,275.3,150.8,316.1,110,356.9C110,356.9,110,356.9,110,356.9z M178.4,263.4
		c-0.4-0.4-0.7-0.8-1.1-1.2c-6.5,5.6-13,11.3-19.6,16.9c-14.5,12.3-28.9,24.7-43.8,36.6c-3.6,2.9-9,5.8-13.1,5.2
		c-13.8-2.1-24.9,3.4-35.2,10.9c-31,22.8-53.8,52.3-69.2,87.3c-5.4,12.3-9.3,25.3-13.8,38c0.4,0.2,0.9,0.5,1.3,0.7
		C48.7,393.1,113.5,328.3,178.4,263.4z"/>
	<path class="st1" d="M1246.1,385.8c17.5-17.5,35.1-34.8,52.3-52.6c3.3-3.5,5-8.8,6.6-13.5c4.2-12.2,6.8-25.1,12.2-36.8
		c8.7-18.9,36.2-37.1,60.8-27.4c17.6,7,29.8,20,36.5,37.5c4.3,11.2,1.5,22.8-6.3,31.6c-8.1,9-17.5,16.9-27.1,24.4
		c-8.3,6.5-18.1,9-28.9,7.7c-2.6-0.3-6.3,1.3-8.4,3.3c-31.2,30.2-62.3,60.5-93.2,91.1c-29.4,29.1-58.2,58.9-87.9,87.7
		c-5.8,5.6-14.2,9.5-22,11.7c-13.7,3.8-24.2-6.7-19.5-20c3.7-10.5,10.1-20.6,17-29.5c10.1-13,21.5-24.9,32.8-36.9
		c24.8-26.4,49.8-52.5,74.8-78.7C1245.8,385.5,1246,385.7,1246.1,385.8z M1135.9,532.5c0.9,0.9,1.8,1.8,2.8,2.7
		c5-3.3,10.7-5.9,14.9-10c23.8-23.9,46.8-48.5,70.7-72.1c32.9-32.4,66.4-64.2,99.6-96.2c2.1-2,3.9-4.3,5.9-6.4
		c-3.6-5.1-7.9-9.9-2.7-15.2c4.9-5,9.2-0.6,14,1.6c8.5,3.9,18.2,6.5,26.5,0.9c9.7-6.4,19-13.8,26.7-22.4c3.7-4.1,5.8-12.9,4-17.8
		c-4.9-13.1-14.3-23.6-28.6-27.2c-5-1.3-11.1-0.7-16,1c-16.7,5.9-31.8,28.9-31.5,46.5c0,1.2,0.4,2.5,0.9,3.6
		c2.6,4.9,0.7,8.6-2.7,12.1c-9.2,9.5-18.1,19.3-27.5,28.6c-48.1,47.5-96.1,95.1-140.3,146.4C1146.3,516,1141.4,524.5,1135.9,532.5z"
		/>
	<path class="st1" d="M2753.9,393.5c4.8-2.5,10.7-4,14.2-7.7c15.7-16.7,30.8-34,46-51.1c1.7-2,3.2-4.2,5-6.1
		c3.2-3.6,7.1-5.3,11.3-1.8c4.2,3.4,3.2,7.8,0.4,11.6c-3.9,5.4-7.9,10.9-12.3,15.8c-13.5,14.9-27,29.7-40.9,44.2
		c-6.9,7.2-16,9.9-26,10.2c-2.6,0.1-5.9,1.6-7.7,3.6c-39.8,42.3-79.4,84.8-119.2,127.3c-10.3,11-20.7,21.8-31.2,32.7
		c-2.8,2.9-5.6,5.9-8.9,8.3c-8.6,6.4-17,6.6-22.9,1.1c-6.4-5.9-8.1-16-2.9-24.3c5.2-8.2,11-16.3,17.5-23.5
		c40.4-44.4,81.1-88.5,121.7-132.7c1-1.1,1.8-2.3,2.8-3.3c9.2-9.3,14.1-17.9,8.2-32.8c-6.5-16.4-1.5-33.2,11.6-46.8
		c13.8-14.2,26.7-29.3,40.1-43.9c1.6-1.7,3.6-3.9,5.6-4.2c2.9-0.4,7.2-0.1,8.8,1.7c1.6,1.8,1.6,6.5,0.3,8.8
		c-2.4,4.3-6.2,7.8-9.6,11.6c-12.5,13.9-25,27.6-37.4,41.5c-5.7,6.4-7.2,17.6-4.1,26.1c0.4-0.1,1,0.1,1.3-0.2
		c18.7-19.8,37.4-39.7,56-59.5c0.7-0.7,1.3-1.4,1.9-2.1c3.7-3.9,8-7.1,13-2.8c5.1,4.4,2.6,9-1.2,13c-16.5,17.6-33.1,35.2-49.6,52.8
		c-4.5,4.9-8.9,9.8-14.2,15.7c1.4,1.6,2.9,4.2,5.1,5.2c1.1,0.5,3.8-2,5.3-3.7c17.7-19.1,35.3-38.4,52.9-57.5
		c2.1-2.3,4.4-4.4,6.6-6.6c3.8-3.6,7.9-4.9,11.9-0.7c3.7,3.9,2.2,8-1,11.5c-9.3,10-18.7,19.8-28,29.8c-9.6,10.3-19.1,20.8-28.5,31.3
		c-1.4,1.5-2.4,3.4-3.6,5.1C2752.9,391.7,2753.4,392.6,2753.9,393.5z M2724.8,393.1c-5.7,6.8-10.5,13-15.8,18.8
		c-40.2,43.9-80.5,87.7-120.7,131.6c-4.8,5.3-9.1,11.1-13.3,16.9c-1.5,2.1-2.2,4.8-3.7,8.1c9.3-3,155-156.6,160.7-168.7
		C2730,397.9,2727.7,395.8,2724.8,393.1z"/>
	<path class="st1" d="M631.4,1108.1c2.5,4.8,4,10.6,7.7,14.1c16.6,15.6,33.8,30.6,50.8,45.7c1.9,1.7,4.1,3.2,6.1,5
		c3.5,3.2,5.3,7.1,1.8,11.2c-3.4,4.1-7.7,3.2-11.5,0.4c-5.4-3.9-10.8-7.8-15.7-12.3c-14.8-13.4-29.5-26.8-43.9-40.6
		c-7.2-6.9-9.8-15.9-10.1-25.9c-0.1-2.6-1.6-5.9-3.6-7.7c-42.1-39.6-84.3-79-126.5-118.4c-10.9-10.2-21.7-20.6-32.5-31
		c-2.9-2.8-5.9-5.6-8.3-8.8c-6.3-8.6-6.6-16.8-1.1-22.8c5.9-6.4,16-8.1,24.2-2.9c8.2,5.2,16.2,10.9,23.4,17.4
		c44.1,40.2,87.9,80.6,131.9,121c1,1,2.3,1.8,3.3,2.8c9.3,9.1,17.8,14,32.6,8.2c16.3-6.4,33-1.5,46.5,11.5
		c14.2,13.7,29.1,26.6,43.7,39.9c1.7,1.6,3.9,3.6,4.2,5.6c0.4,2.9,0.1,7.2-1.7,8.7c-1.8,1.5-6.5,1.6-8.8,0.3
		c-4.3-2.4-7.8-6.2-11.5-9.5c-13.8-12.4-27.4-24.9-41.3-37.2c-6.3-5.6-17.5-7.2-25.9-4c0.1,0.4-0.1,1,0.2,1.3
		c19.7,18.6,39.4,37.1,59.2,55.7c0.7,0.7,1.4,1.3,2.1,1.9c3.9,3.7,7.1,7.9,2.8,12.9c-4.4,5.1-8.9,2.5-12.9-1.2
		c-17.5-16.4-35-32.9-52.5-49.3c-4.8-4.5-9.8-8.9-15.6-14.1c-1.6,1.4-4.2,2.9-5.1,5.1c-0.5,1.1,2,3.8,3.6,5.3
		c19,17.6,38.1,35.1,57.2,52.6c2.3,2.1,4.4,4.3,6.5,6.6c3.6,3.7,4.9,7.9,0.7,11.9c-3.9,3.7-7.9,2.2-11.4-1
		c-9.9-9.2-19.7-18.6-29.7-27.8c-10.3-9.5-20.7-18.9-31.1-28.3c-1.5-1.4-3.4-2.4-5.1-3.6C633.2,1107,632.3,1107.6,631.4,1108.1z
		 M631.8,1079.1c-6.7-5.7-12.9-10.5-18.7-15.7c-43.6-39.9-87.1-80-130.8-119.9c-5.2-4.8-11-9-16.8-13.2c-2.1-1.5-4.8-2.2-8.1-3.7
		c3,9.3,155.7,154,167.7,159.7C627.1,1084.3,629.2,1082,631.8,1079.1z"/>
	<path class="st1" d="M3265.4,999.3c-42.2-42.2-84.4-84.4-126.6-126.6c-3.9-3.9-9.3-8.5-5.6-13.7c3.2-4.5,9.5-7,14.8-9.6
		c1.9-1,5.2-0.1,7.5,0.8c30,10.9,61.1,19.5,88,37.8c23.9,16.2,45.7,34.7,62.1,58.7c8.2,12,13.9,24.9,13.6,40.4
		c-0.1,5.4,4.8,11.7,8.8,16.4c17.7,21.2,36.3,41.7,53.7,63.1c10.7,13.1,20.3,27.3,29.7,41.4c4.4,6.5,3.7,13.7-1.4,20.2
		c-3.9,5.1-8.5,5.7-13.5,2c-3.1-2.3-5.6-5.3-8.3-8.1C3347.3,1081.2,3306.4,1040.2,3265.4,999.3
		C3265.4,999.3,3265.4,999.3,3265.4,999.3z M3359.2,1067.9c0.4-0.4,0.8-0.7,1.2-1.1c-5.7-6.6-11.4-13.1-17-19.7
		c-12.3-14.6-24.8-29-36.7-43.9c-2.9-3.6-5.9-9.1-5.2-13.2c2.1-13.9-3.4-25-11-35.3c-22.8-31.1-52.4-54-87.6-69.5
		c-12.4-5.4-25.4-9.3-38.2-13.9c-0.2,0.4-0.5,0.9-0.7,1.3C3229.1,937.8,3294.2,1002.9,3359.2,1067.9z"/>
	<path class="st1" d="M1807.7,1044.8c-18.5-18.5-36.9-37.3-55.8-55.4c-3.7-3.5-9.3-5.3-14.3-7c-13-4.5-26.7-7.2-39-12.9
		c-20-9.2-39.4-38.4-29-64.5c7.4-18.7,21.3-31.6,39.7-38.7c11.9-4.6,24.2-1.6,33.5,6.7c9.6,8.6,18,18.6,25.9,28.8
		c6.9,8.8,9.6,19.2,8.1,30.7c-0.4,2.8,1.4,6.7,3.5,8.9c32.1,33.1,64.2,66.1,96.6,98.9c30.9,31.2,62.5,61.8,93,93.3
		c5.9,6.1,10,15,12.4,23.4c4,14.5-7.1,25.7-21.3,20.7c-11.2-4-21.8-10.7-31.3-18.1c-13.7-10.7-26.4-22.8-39.1-34.8
		c-28-26.3-55.6-52.9-83.4-79.3C1807.4,1045.2,1807.5,1045,1807.7,1044.8z M1963.3,1161.7c1-1,1.9-2,2.9-2.9
		c-3.5-5.3-6.2-11.4-10.6-15.8c-25.3-25.2-51.4-49.6-76.5-75c-34.4-34.9-68-70.4-102.1-105.6c-2.1-2.2-4.5-4.2-6.8-6.3
		c-5.4,3.8-10.5,8.3-16.1,2.9c-5.3-5.2-0.7-9.8,1.6-14.8c4.2-9.1,6.9-19.3,1-28.1c-6.8-10.2-14.6-20.2-23.7-28.4
		c-4.3-3.9-13.6-6.2-18.8-4.3c-13.9,5.2-25,15.1-28.8,30.3c-1.3,5.3-0.8,11.8,1.1,17c6.2,17.7,30.6,33.8,49.3,33.4
		c1.3,0,2.7-0.4,3.8-1c5.2-2.8,9.1-0.7,12.8,2.9c10.1,9.7,20.5,19.2,30.3,29.2c50.4,51,100.9,102,155.3,148.8
		C1945.7,1150.7,1954.8,1155.8,1963.3,1161.7z"/>
	<path class="st1" d="M4047,418.8c-45.1,45.1-90.1,90.1-135.2,135.2c-4.2,4.2-9,9.9-14.6,6c-4.8-3.4-7.5-10.1-10.3-15.8
		c-1-2.1-0.1-5.5,0.8-8.1c11.7-32.1,20.8-65.2,40.3-93.9c17.3-25.5,37-48.8,62.7-66.2c12.9-8.7,26.6-14.9,43.1-14.5
		c5.8,0.1,12.5-5.2,17.5-9.4c22.6-18.9,44.5-38.7,67.3-57.3c14-11.4,29.1-21.6,44.1-31.7c7-4.7,14.6-3.9,21.6,1.5
		c5.4,4.2,6.1,9.1,2.2,14.4c-2.4,3.3-5.7,6-8.6,8.9C4134.4,331.4,4090.7,375.1,4047,418.8C4047,418.8,4047,418.8,4047,418.8z
		 M4120.2,318.6c-0.4-0.4-0.8-0.9-1.2-1.3c-7,6-14,12.1-21,18.1c-15.6,13.2-31,26.5-46.9,39.2c-3.8,3.1-9.7,6.2-14,5.6
		c-14.8-2.2-26.7,3.6-37.7,11.7c-33.2,24.4-57.6,56-74.2,93.5c-5.8,13.2-9.9,27.1-14.8,40.7c0.5,0.3,0.9,0.5,1.4,0.8
		C3981.3,457.5,4050.8,388.1,4120.2,318.6z"/>
	<path class="st1" d="M5166.1,394.5c17.4-17.4,34.9-34.5,51.9-52.2c3.3-3.4,4.9-8.7,6.6-13.4c4.2-12.1,6.8-25,12.1-36.5
		c8.6-18.8,36-36.9,60.4-27.2c17.5,6.9,29.6,19.9,36.2,37.2c4.3,11.2,1.5,22.7-6.3,31.4c-8,9-17.4,16.8-26.9,24.3
		c-8.2,6.4-18,9-28.8,7.6c-2.6-0.3-6.3,1.3-8.3,3.3c-31,30-61.9,60.1-92.6,90.5c-29.2,28.9-57.8,58.5-87.4,87.1
		c-5.7,5.6-14.1,9.4-21.9,11.6c-13.6,3.8-24-6.7-19.4-19.9c3.7-10.5,10-20.5,16.9-29.3c10-12.9,21.4-24.7,32.6-36.7
		c24.6-26.2,49.5-52.1,74.3-78.1C5165.8,394.2,5166,394.3,5166.1,394.5z M5056.6,540.2c0.9,0.9,1.8,1.8,2.8,2.7
		c5-3.3,10.6-5.8,14.8-10c23.6-23.7,46.5-48.2,70.3-71.6c32.6-32.2,65.9-63.7,98.9-95.6c2.1-2,3.9-4.3,5.9-6.4
		c-3.6-5.1-7.8-9.8-2.7-15.1c4.9-5,9.1-0.6,13.9,1.5c8.5,3.9,18.1,6.4,26.4,0.9c9.6-6.4,18.9-13.7,26.6-22.2c3.6-4,5.8-12.8,4-17.6
		c-4.9-13-14.2-23.4-28.4-27c-4.9-1.2-11-0.7-15.9,1c-16.6,5.8-31.6,28.7-31.3,46.2c0,1.2,0.4,2.5,0.9,3.5c2.6,4.8,0.7,8.5-2.7,12
		c-9.1,9.5-18,19.2-27.3,28.4c-47.8,47.2-95.5,94.5-139.3,145.5C5067,523.8,5062.1,532.3,5056.6,540.2z"/>
	<path class="st1" d="M6613,416.3c5.1-2.7,11.4-4.3,15.1-8.2c16.7-17.8,32.7-36.2,49-54.4c1.9-2.1,3.4-4.4,5.3-6.5
		c3.5-3.8,7.6-5.7,12-2c4.4,3.7,3.4,8.3,0.5,12.3c-4.2,5.8-8.4,11.6-13.1,16.8c-14.3,15.8-28.7,31.6-43.5,47
		c-7.4,7.7-17.1,10.5-27.7,10.9c-2.8,0.1-6.3,1.7-8.2,3.8c-42.4,45.1-84.6,90.3-126.8,135.5c-11,11.7-22.1,23.3-33.2,34.8
		c-3,3.1-6,6.3-9.5,8.8c-9.2,6.8-18,7-24.4,1.2c-6.9-6.3-8.7-17.1-3.1-25.9c5.6-8.8,11.7-17.4,18.6-25
		c43-47.2,86.3-94.2,129.6-141.2c1-1.1,1.9-2.4,2.9-3.5c9.8-9.9,15-19.1,8.7-34.9c-6.9-17.5-1.6-35.3,12.4-49.8
		c14.7-15.2,28.4-31.2,42.7-46.8c1.7-1.8,3.8-4.2,6-4.5c3.1-0.4,7.7-0.1,9.4,1.8c1.7,1.9,1.7,6.9,0.3,9.4
		c-2.6,4.6-6.6,8.3-10.2,12.3c-13.3,14.8-26.7,29.4-39.9,44.2c-6,6.8-7.7,18.7-4.3,27.7c0.5-0.1,1.1,0.1,1.4-0.2
		c19.9-21.1,39.8-42.2,59.7-63.4c0.7-0.7,1.4-1.5,2.1-2.3c4-4.1,8.5-7.6,13.8-3c5.4,4.7,2.7,9.5-1.3,13.8
		c-17.6,18.7-35.2,37.5-52.8,56.2c-4.8,5.2-9.5,10.5-15.1,16.7c1.5,1.7,3.1,4.5,5.4,5.5c1.1,0.5,4.1-2.2,5.7-3.9
		c18.8-20.4,37.6-40.8,56.3-61.2c2.2-2.4,4.6-4.7,7-7c4-3.8,8.5-5.2,12.7-0.8c4,4.2,2.4,8.5-1.1,12.2c-9.9,10.6-19.9,21.1-29.8,31.8
		c-10.2,11-20.3,22.1-30.3,33.3c-1.5,1.6-2.6,3.6-3.8,5.5C6611.9,414.4,6612.4,415.3,6613,416.3z M6582,415.9
		c-6.1,7.2-11.2,13.8-16.8,20c-42.8,46.7-85.7,93.3-128.4,140.1c-5.1,5.6-9.6,11.8-14.1,18c-1.6,2.2-2.4,5.1-3.9,8.6
		c9.9-3.2,165-166.7,171.1-179.6C6587.5,420.9,6585.1,418.7,6582,415.9z"/>
	<path class="st1" d="M4648.3,1113.5c2.5,4.7,3.9,10.4,7.6,13.9c16.3,15.3,33.2,30,49.9,44.9c1.9,1.7,4.1,3.2,6,4.9
		c3.5,3.2,5.2,7,1.8,11c-3.4,4.1-7.6,3.1-11.3,0.4c-5.3-3.8-10.6-7.7-15.5-12c-14.5-13.1-29-26.4-43.1-39.9
		c-7.1-6.8-9.7-15.7-10-25.4c-0.1-2.6-1.6-5.8-3.5-7.6c-41.3-38.9-82.8-77.6-124.3-116.4c-10.7-10.1-21.3-20.3-31.9-30.5
		c-2.9-2.7-5.8-5.5-8.1-8.7c-6.2-8.4-6.4-16.6-1.1-22.4c5.8-6.3,15.7-8,23.7-2.8c8,5.1,15.9,10.7,23,17.1
		c43.3,39.5,86.4,79.2,129.6,118.9c1,0.9,2.2,1.7,3.2,2.7c9.1,8.9,17.5,13.7,32,8c16-6.3,32.4-1.5,45.7,11.3
		c13.9,13.5,28.6,26.1,42.9,39.2c1.7,1.5,3.9,3.5,4.1,5.5c0.3,2.9,0.1,7-1.7,8.6c-1.7,1.5-6.4,1.5-8.6,0.3
		c-4.2-2.4-7.6-6.1-11.3-9.4c-13.5-12.2-27-24.5-40.5-36.6c-6.2-5.5-17.1-7.1-25.4-4c0.1,0.4-0.1,1,0.2,1.2
		c19.4,18.3,38.8,36.5,58.1,54.7c0.7,0.6,1.4,1.2,2.1,1.9c3.8,3.6,7,7.8,2.8,12.7c-4.3,5-8.7,2.5-12.7-1.2
		c-17.2-16.2-34.4-32.3-51.6-48.4c-4.7-4.4-9.6-8.7-15.3-13.9c-1.5,1.4-4.1,2.8-5.1,5c-0.4,1.1,2,3.7,3.6,5.2
		c18.7,17.3,37.5,34.5,56.2,51.7c2.2,2.1,4.3,4.3,6.4,6.5c3.5,3.7,4.8,7.8,0.7,11.7c-3.8,3.7-7.8,2.2-11.2-1
		c-9.7-9.1-19.4-18.3-29.1-27.3c-10.1-9.4-20.3-18.6-30.5-27.8c-1.5-1.4-3.3-2.4-5-3.5C4650.1,1112.4,4649.2,1113,4648.3,1113.5z
		 M4648.7,1085c-6.6-5.6-12.7-10.3-18.3-15.4c-42.9-39.2-85.6-78.6-128.5-117.8c-5.1-4.7-10.8-8.8-16.5-13c-2-1.5-4.7-2.2-7.9-3.6
		c3,9.1,152.9,151.3,164.7,156.9C4644.1,1090.1,4646.1,1087.9,4648.7,1085z"/>
	<path class="st1" d="M7075.7,999.8c-40-40-80-80.1-120.1-120.1c-3.7-3.7-8.8-8-5.3-13c3-4.3,9-6.7,14-9.1c1.8-0.9,4.9-0.1,7.2,0.7
		c28.5,10.4,57.9,18.5,83.4,35.8c22.6,15.4,43.3,32.9,58.8,55.7c7.8,11.4,13.2,23.6,12.9,38.3c-0.1,5.2,4.6,11.1,8.4,15.6
		c16.8,20.1,34.4,39.5,50.9,59.8c10.2,12.5,19.2,25.9,28.2,39.2c4.2,6.2,3.5,13-1.3,19.2c-3.7,4.8-8.1,5.4-12.8,1.9
		c-2.9-2.2-5.3-5.1-7.9-7.7C7153.3,1077.5,7114.5,1038.6,7075.7,999.8C7075.7,999.8,7075.7,999.8,7075.7,999.8z M7164.7,1064.9
		c0.4-0.3,0.8-0.7,1.2-1c-5.4-6.2-10.8-12.4-16.1-18.7c-11.7-13.8-23.5-27.5-34.8-41.7c-2.7-3.4-5.5-8.6-5-12.5
		c2-13.1-3.2-23.7-10.4-33.4c-21.7-29.5-49.7-51.2-83.1-65.9c-11.7-5.2-24.1-8.8-36.2-13.2c-0.2,0.4-0.4,0.8-0.7,1.2
		C7041.3,941.5,7103,1003.2,7164.7,1064.9z"/>
	<path class="st1" d="M5864.8,1060.1c-18.3-18.3-36.4-36.8-55.1-54.7c-3.6-3.5-9.3-5.1-14.3-6.7c-13-4.2-26.8-6.6-39.2-12.1
		c-20.1-8.8-38.9-37.9-27.8-64.5c8-19.1,22.3-32.5,41.2-40.1c12.2-4.9,24.6-2.2,33.8,6c9.5,8.4,17.7,18.4,25.5,28.5
		c6.7,8.7,9.2,19.2,7.5,30.9c-0.4,2.9,1.2,6.8,3.3,8.9c31.6,32.7,63.3,65.4,95.3,97.7c30.5,30.8,61.7,61,91.9,92.1
		c5.9,6,9.8,15,11.9,23.4c3.7,14.6-7.9,26.2-22,21.4c-11.2-3.7-21.8-10.3-31.2-17.5c-13.6-10.5-26.2-22.5-38.8-34.3
		c-27.6-25.9-55-52.1-82.5-78.2C5864.4,1060.4,5864.6,1060.3,5864.8,1060.1z M6019.4,1174.6c1-1,2-2,3-3.1
		c-3.4-5.3-6-11.4-10.4-15.7c-25-24.9-50.8-49-75.6-74.1c-33.9-34.4-67.1-69.6-100.7-104.4c-2.1-2.2-4.5-4.1-6.8-6.2
		c-5.6,4-10.8,8.7-16.3,3.3c-5.3-5.1-0.5-9.9,2-15.1c4.4-9.3,7.4-19.7,1.7-28.5c-6.6-10.2-14.3-20.1-23.3-28.1
		c-4.3-3.8-13.7-5.9-19-3.8c-14.2,5.6-25.7,15.9-30,31.4c-1.5,5.4-1.1,11.9,0.7,17.2c5.8,17.8,30.2,33.4,49.1,32.6
		c1.3-0.1,2.7-0.5,3.9-1.1c5.3-2.9,9.2-0.9,12.9,2.6c10,9.6,20.2,18.9,30,28.8c49.8,50.4,99.6,100.7,153.5,146.8
		C6001.9,1163.8,6011,1168.8,6019.4,1174.6z"/>
	<path class="st1" d="M7933,4187.9c-42.1,42.1-84.1,84.1-126.2,126.2c-3.9,3.9-8.4,9.3-13.7,5.6c-4.5-3.2-7-9.5-9.6-14.8
		c-0.9-1.9-0.1-5.2,0.8-7.5c10.9-29.9,19.4-60.9,37.6-87.7c16.2-23.8,34.6-45.5,58.5-61.8c12-8.2,24.8-13.9,40.3-13.5
		c5.4,0.1,11.6-4.8,16.4-8.8c21.1-17.6,41.5-36.1,62.9-53.5c13.1-10.7,27.2-20.2,41.2-29.6c6.5-4.4,13.7-3.7,20.2,1.4
		c5.1,3.9,5.6,8.5,2,13.4c-2.3,3.1-5.3,5.6-8,8.3C8014.6,4106.3,7973.8,4147.1,7933,4187.9C7933,4187.9,7933,4187.9,7933,4187.9z
		 M8001.4,4094.4c-0.4-0.4-0.7-0.8-1.1-1.2c-6.5,5.6-13,11.3-19.6,16.9c-14.5,12.3-28.9,24.7-43.8,36.6c-3.6,2.9-9,5.8-13.1,5.2
		c-13.8-2.1-24.9,3.4-35.2,10.9c-31,22.8-53.8,52.3-69.2,87.3c-5.4,12.3-9.3,25.3-13.8,38c0.4,0.2,0.9,0.5,1.3,0.7
		C7871.7,4224.1,7936.5,4159.3,8001.4,4094.4z"/>
	<path class="st1" d="M8421.3,3575.9c-2.6-4.9-4.1-11-7.9-14.6c-17.1-16.1-34.9-31.6-52.5-47.2c-2-1.8-4.3-3.3-6.3-5.1
		c-3.7-3.3-5.5-7.3-1.9-11.6c3.5-4.3,8-3.3,11.9-0.5c5.6,4,11.2,8.1,16.2,12.7c15.3,13.8,30.5,27.7,45.3,42
		c7.4,7.1,10.1,16.5,10.5,26.7c0.1,2.7,1.7,6.1,3.7,7.9c43.5,40.9,87.1,81.6,130.6,122.3c11.3,10.6,22.4,21.3,33.6,32
		c3,2.9,6.1,5.8,8.5,9.1c6.5,8.8,6.8,17.4,1.1,23.6c-6,6.6-16.5,8.4-24.9,3c-8.5-5.4-16.8-11.3-24.1-18
		c-45.6-41.5-90.8-83.3-136.2-124.9c-1.1-1-2.3-1.8-3.4-2.8c-9.6-9.4-18.4-14.4-33.7-8.4c-16.8,6.6-34.1,1.6-48-11.9
		c-14.6-14.1-30.1-27.4-45.1-41.2c-1.8-1.6-4.1-3.7-4.3-5.8c-0.4-3-0.1-7.4,1.8-9c1.8-1.6,6.7-1.6,9.1-0.3c4.4,2.5,8,6.4,11.9,9.8
		c14.2,12.8,28.3,25.7,42.6,38.4c6.5,5.8,18,7.4,26.7,4.2c-0.1-0.4,0.1-1.1-0.2-1.3c-20.4-19.2-40.7-38.4-61.1-57.5
		c-0.7-0.7-1.5-1.3-2.2-2c-4-3.8-7.3-8.2-2.9-13.4c4.5-5.3,9.2-2.6,13.3,1.3c18.1,17,36.1,34,54.2,50.9c5,4.7,10.1,9.2,16.1,14.6
		c1.6-1.5,4.4-3,5.3-5.2c0.5-1.1-2.1-3.9-3.8-5.5c-19.6-18.2-39.4-36.2-59.1-54.3c-2.3-2.2-4.5-4.5-6.8-6.8c-3.7-3.9-5-8.2-0.7-12.3
		c4-3.8,8.2-2.3,11.8,1c10.2,9.5,20.4,19.2,30.6,28.7c10.6,9.8,21.3,19.6,32.1,29.3c1.6,1.4,3.5,2.5,5.3,3.7
		C8419.4,3577,8420.3,3576.5,8421.3,3575.9z M8420.9,3605.8c7,5.8,13.3,10.8,19.3,16.2c45.1,41.3,90,82.6,135.1,123.9
		c5.4,5,11.4,9.3,17.3,13.6c2.2,1.6,4.9,2.3,8.3,3.8c-3.1-9.6-160.8-159.1-173.2-165C8425.7,3600.5,8423.6,3602.8,8420.9,3605.8z"/>
	<path class="st1" d="M9069.1,4216.8c17.5-17.5,35.1-34.8,52.3-52.6c3.3-3.5,5-8.8,6.6-13.5c4.2-12.2,6.8-25.1,12.2-36.8
		c8.7-18.9,36.2-37.1,60.8-27.4c17.6,7,29.8,20,36.5,37.5c4.3,11.2,1.5,22.8-6.3,31.6c-8.1,9-17.5,16.9-27.1,24.4
		c-8.3,6.5-18.1,9-28.9,7.7c-2.6-0.3-6.3,1.3-8.4,3.3c-31.2,30.2-62.3,60.5-93.2,91.1c-29.4,29.1-58.2,58.9-87.9,87.7
		c-5.8,5.6-14.2,9.5-22,11.7c-13.7,3.8-24.2-6.7-19.5-20c3.7-10.5,10.1-20.6,17-29.5c10.1-13,21.5-24.9,32.8-36.9
		c24.8-26.4,49.8-52.5,74.8-78.7C9068.8,4216.5,9069,4216.7,9069.1,4216.8z M8958.9,4363.5c0.9,0.9,1.8,1.8,2.8,2.7
		c5-3.3,10.7-5.9,14.9-10c23.8-23.9,46.8-48.5,70.7-72.1c32.9-32.4,66.4-64.2,99.6-96.2c2.1-2,3.9-4.3,5.9-6.4
		c-3.6-5.1-7.9-9.9-2.7-15.2c4.9-5,9.2-0.6,14,1.6c8.5,3.9,18.2,6.5,26.5,0.9c9.7-6.4,19-13.8,26.7-22.4c3.7-4.1,5.8-12.9,4-17.8
		c-4.9-13.1-14.3-23.6-28.6-27.2c-5-1.3-11.1-0.7-16,1c-16.7,5.9-31.8,28.9-31.5,46.5c0,1.2,0.4,2.5,0.9,3.6
		c2.6,4.9,0.7,8.6-2.7,12.1c-9.2,9.5-18.1,19.3-27.5,28.6c-48.1,47.5-96.1,95.1-140.3,146.4
		C8969.3,4347,8964.4,4355.5,8958.9,4363.5z"/>
	<path class="st1" d="M8454.4,4939.1c2.5,4.8,4,10.6,7.7,14.1c16.6,15.6,33.8,30.6,50.8,45.7c1.9,1.7,4.1,3.2,6.1,5
		c3.5,3.2,5.3,7.1,1.8,11.2c-3.4,4.1-7.7,3.2-11.5,0.4c-5.4-3.9-10.8-7.8-15.7-12.3c-14.8-13.4-29.5-26.8-43.9-40.6
		c-7.2-6.9-9.8-15.9-10.1-25.9c-0.1-2.6-1.6-5.9-3.6-7.7c-42.1-39.6-84.3-79-126.5-118.4c-10.9-10.2-21.7-20.6-32.5-31
		c-2.9-2.8-5.9-5.6-8.3-8.8c-6.3-8.6-6.6-16.8-1.1-22.8c5.9-6.4,16-8.1,24.2-2.9c8.2,5.2,16.2,10.9,23.4,17.4
		c44.1,40.2,87.9,80.6,131.9,121c1,1,2.3,1.8,3.3,2.8c9.3,9.1,17.8,14,32.6,8.2c16.3-6.4,33-1.5,46.5,11.5
		c14.2,13.7,29.1,26.6,43.7,39.9c1.7,1.6,3.9,3.6,4.2,5.6c0.4,2.9,0.1,7.2-1.7,8.7c-1.8,1.5-6.5,1.6-8.8,0.3
		c-4.3-2.4-7.8-6.2-11.5-9.5c-13.8-12.4-27.4-24.9-41.3-37.2c-6.3-5.6-17.5-7.2-25.9-4c0.1,0.4-0.1,1,0.2,1.3
		c19.7,18.6,39.4,37.1,59.2,55.7c0.7,0.7,1.4,1.3,2.1,1.9c3.9,3.7,7.1,7.9,2.8,12.9c-4.4,5.1-8.9,2.5-12.9-1.2
		c-17.5-16.4-35-32.9-52.5-49.3c-4.8-4.5-9.8-8.9-15.6-14.1c-1.6,1.4-4.2,2.9-5.1,5.1c-0.5,1.1,2,3.8,3.6,5.3
		c19,17.6,38.1,35.1,57.2,52.6c2.3,2.1,4.4,4.3,6.5,6.6c3.6,3.7,4.9,7.9,0.7,11.9c-3.9,3.7-7.9,2.2-11.4-1
		c-9.9-9.2-19.7-18.6-29.7-27.8c-10.3-9.5-20.7-18.9-31.1-28.3c-1.5-1.4-3.4-2.4-5.1-3.6C8456.2,4938,8455.3,4938.6,8454.4,4939.1z
		 M8454.8,4910.1c-6.7-5.7-12.9-10.5-18.7-15.7c-43.6-39.9-87.1-80-130.8-119.9c-5.2-4.8-11-9-16.8-13.2c-2.1-1.5-4.8-2.2-8.1-3.7
		c3,9.3,155.7,154,167.7,159.7C8450.1,4915.3,8452.2,4913,8454.8,4910.1z"/>
	<path class="st1" d="M8383.2,2419c-1.4-2-2.6-4.2-4.2-6c-11-12.2-22-24.3-33.2-36.4c-10.8-11.6-21.7-23.1-32.5-34.7
		c-3.8-4.1-5.5-8.8-1.2-13.4c4.6-4.9,9.5-3.3,13.9,0.8c2.6,2.5,5.3,5,7.7,7.7c20.5,22.3,41,44.7,61.6,67c1.7,1.9,4.9,4.8,6.2,4.3
		c2.6-1.1,4.3-4.2,6-6c-6.1-6.8-11.2-12.6-16.5-18.2c-19.2-20.5-38.5-41-57.7-61.5c-4.4-4.7-7.4-10-1.4-15.1
		c5.8-5,10.8-1.2,15.1,3.3c0.8,0.8,1.5,1.7,2.3,2.5c21.7,23.1,43.5,46.2,65.2,69.3c0.3,0.3,1,0.2,1.5,0.2c3.7-9.9,1.8-22.9-4.7-30.3
		c-14.4-16.2-29.1-32.2-43.6-48.3c-3.9-4.3-8.3-8.5-11.1-13.5c-1.5-2.7-1.5-8.2,0.3-10.3c1.8-2.1,6.8-2.4,10.2-2
		c2.3,0.3,4.7,2.9,6.5,4.9c15.6,17,30.7,34.5,46.7,51.1c15.3,15.8,21,35.4,13.5,54.5c-6.8,17.3-1.1,27.3,9.5,38.2
		c1.2,1.2,2.1,2.6,3.2,3.8c47.2,51.4,94.6,102.8,141.6,154.4c7.6,8.4,14.3,17.8,20.4,27.4c6.1,9.6,4.1,21.4-3.4,28.3
		c-7,6.4-16.7,6.1-26.7-1.3c-3.8-2.8-7.1-6.3-10.4-9.7c-12.2-12.6-24.3-25.3-36.3-38.1c-46.2-49.4-92.3-98.8-138.7-148.1
		c-2.1-2.3-5.9-4.1-9-4.2c-11.6-0.4-22.2-3.5-30.3-11.9c-16.2-16.9-31.9-34.1-47.6-51.4c-5.2-5.8-9.8-12.1-14.4-18.4
		c-3.2-4.4-4.3-9.5,0.5-13.5c4.9-4,9.4-2,13.2,2.1c2.1,2.3,3.8,4.8,5.8,7.1c17.8,19.9,35.3,40.1,53.6,59.5c4.1,4.3,11,6.1,16.5,9
		C8381.9,2421.1,8382.5,2420,8383.2,2419z M8406.8,2429.4c6.7,14,176.2,192.8,187,196.3c-1.7-3.8-2.5-7-4.3-9.4
		c-4.9-6.7-9.8-13.5-15.5-19.7c-46.7-51.1-93.7-102.1-140.4-153.1c-6.2-6.7-11.8-14-18.4-21.8
		C8411.8,2424.8,8409.2,2427.1,8406.8,2429.4z"/>
	<path class="st1" d="M9104.7,1731c-41.5,41.5-83,83-124.4,124.4c-2.8,2.8-5.3,5.9-8.4,8.2c-5,3.7-9.7,3.1-13.6-2.1
		c-5.1-6.6-5.8-13.9-1.4-20.5c9.6-14.3,19.3-28.6,30.1-41.9c17.7-21.7,36.5-42.4,54.4-63.9c4-4.8,9.1-11.1,8.9-16.7
		c-0.4-15.7,5.5-28.7,13.8-40.9c16.6-24.4,38.7-43.1,62.9-59.5c27.2-18.5,58.7-27.2,89.1-38.3c2.4-0.9,5.7-1.7,7.6-0.8
		c5.4,2.6,11.8,5.2,15,9.7c3.7,5.3-1.7,9.9-5.7,13.9C9190.2,1645.5,9147.5,1688.3,9104.7,1731C9104.7,1731,9104.7,1731,9104.7,1731z
		 M9207.4,1602.7c-0.2-0.4-0.5-0.9-0.7-1.3c-12.9,4.6-26.1,8.5-38.7,14.1c-35.6,15.7-65.6,38.9-88.8,70.4
		c-7.7,10.4-13.2,21.7-11.1,35.7c0.6,4.1-2.4,9.7-5.3,13.3c-12.1,15.1-24.7,29.8-37.2,44.5c-5.7,6.7-11.5,13.3-17.2,20
		c0.4,0.4,0.8,0.7,1.2,1.1C9075.6,1734.6,9141.5,1668.7,9207.4,1602.7z"/>
	<path class="st1" d="M7813.3,1745.3c-25.1,23.9-50,47.8-75.2,71.5c-11.5,10.8-22.9,21.7-35.3,31.4c-8.5,6.6-18.1,12.7-28.2,16.3
		c-12.7,4.5-22.8-5.6-19.2-18.6c2.1-7.5,5.8-15.6,11.2-21.1c27.6-28.4,56-56,83.9-84.1c29.2-29.5,58.2-59.3,87.1-89.1
		c1.9-1.9,3.4-5.5,3.1-8c-1.3-10.4,1.1-19.8,7.3-27.7c7.2-9.2,14.7-18.2,23.4-25.9c8.4-7.5,19.5-10.2,30.2-6.1
		c16.6,6.4,29.1,18,35.8,34.9c9.3,23.5-8.1,49.8-26.2,58.1c-11.1,5.1-23.5,7.6-35.2,11.6c-4.5,1.6-9.6,3.1-12.9,6.3
		c-17,16.4-33.6,33.3-50.3,50C7813,1745,7813.2,1745.1,7813.3,1745.3z M7695.4,1834.2c49.1-42.2,94.6-88.1,140-134.1
		c8.9-9,18.2-17.5,27.3-26.3c3.3-3.2,6.9-5.1,11.5-2.6c1,0.5,2.3,0.9,3.4,0.9c16.9,0.3,38.9-14.2,44.5-30.1c1.6-4.7,2.2-10.5,1-15.3
		c-3.4-13.7-13.5-22.7-26-27.4c-4.7-1.8-13.1,0.3-17,3.8c-8.2,7.4-15.3,16.3-21.4,25.6c-5.3,8-2.9,17.2,0.9,25.4
		c2.1,4.6,6.3,8.7,1.5,13.4c-5.1,4.9-9.6,0.8-14.5-2.6c-2.1,1.9-4.2,3.7-6.2,5.7c-30.7,31.7-61,63.8-92,95.2
		c-22.6,22.9-46.1,44.9-69,67.7c-4,4-6.4,9.4-9.6,14.2c0.9,0.9,1.7,1.8,2.6,2.7C7680.2,1844.9,7688.4,1840.3,7695.4,1834.2z"/>
	<path class="st1" d="M7799.6,3071.8c-43.1,43.1-86.1,86.1-129.2,129.2c-2.9,2.9-5.5,6.1-8.8,8.5c-5.2,3.8-10,3.2-14.2-2.1
		c-5.3-6.8-6.1-14.4-1.4-21.3c10-14.8,20-29.7,31.3-43.5c18.3-22.5,37.9-44,56.5-66.4c4.2-5,9.4-11.6,9.3-17.3
		c-0.4-16.3,5.7-29.8,14.3-42.5c17.2-25.3,40.2-44.7,65.3-61.8c28.3-19.2,61-28.2,92.5-39.7c2.5-0.9,5.9-1.8,7.9-0.8
		c5.6,2.7,12.2,5.4,15.6,10.1c3.9,5.5-1.8,10.3-5.9,14.4C7888.4,2983,7844,3027.4,7799.6,3071.8
		C7799.6,3071.8,7799.6,3071.8,7799.6,3071.8z M7906.2,2938.7c-0.2-0.5-0.5-0.9-0.7-1.4c-13.4,4.8-27.1,8.9-40.1,14.6
		c-37,16.3-68.2,40.4-92.2,73.1c-8,10.8-13.7,22.5-11.5,37.1c0.6,4.3-2.5,10.1-5.5,13.8c-12.5,15.7-25.7,30.9-38.7,46.2
		c-5.9,7-11.9,13.8-17.9,20.7c0.4,0.4,0.9,0.8,1.3,1.1C7769.3,3075.6,7837.8,3007.1,7906.2,2938.7z"/>
	<path class="st1" d="M9198.8,3074.1c-26.8,25.5-53.4,51-80.3,76.3c-12.2,11.5-24.4,23.2-37.7,33.5c-9.1,7.1-19.3,13.6-30.1,17.4
		c-13.6,4.8-24.3-5.9-20.5-19.9c2.2-8,6.2-16.6,11.9-22.5c29.4-30.3,59.8-59.7,89.5-89.8c31.2-31.5,62.1-63.3,92.9-95.1
		c2-2.1,3.7-5.8,3.3-8.5c-1.4-11,1.2-21.1,7.8-29.5c7.6-9.8,15.7-19.5,24.9-27.7c9-8,20.8-10.9,32.3-6.5
		c17.8,6.8,31.1,19.2,38.2,37.2c10,25.1-8.6,53.2-27.9,62c-11.9,5.5-25.1,8.1-37.5,12.4c-4.8,1.7-10.3,3.4-13.8,6.7
		c-18.2,17.5-35.8,35.5-53.7,53.3C9198.4,3073.8,9198.6,3073.9,9198.8,3074.1z M9072.9,3169c52.4-45,101-94.1,149.5-143.2
		c9.5-9.6,19.5-18.7,29.2-28.1c3.6-3.4,7.4-5.4,12.3-2.8c1.1,0.6,2.4,0.9,3.6,1c18,0.4,41.5-15.1,47.5-32.2c1.8-5,2.3-11.3,1-16.3
		c-3.7-14.6-14.4-24.2-27.8-29.2c-5-1.9-14,0.4-18.1,4.1c-8.7,7.9-16.3,17.4-22.8,27.3c-5.6,8.5-3.1,18.4,0.9,27.1
		c2.2,4.9,6.7,9.3,1.6,14.3c-5.4,5.2-10.3,0.9-15.5-2.8c-2.2,2-4.5,3.9-6.6,6c-32.7,33.9-65.1,68.1-98.2,101.6
		c-24.1,24.5-49.3,48-73.6,72.2c-4.2,4.2-6.9,10.1-10.2,15.2c0.9,0.9,1.9,1.9,2.8,2.8C9056.7,3180.5,9065.4,3175.5,9072.9,3169z"/>
	<path class="st1" d="M7907,408.9c-42.1,42.1-84.1,84.1-126.2,126.2c-3.9,3.9-8.4,9.3-13.7,5.6c-4.5-3.2-7-9.5-9.6-14.8
		c-0.9-1.9-0.1-5.2,0.8-7.5c10.9-29.9,19.4-60.9,37.6-87.7c16.2-23.8,34.6-45.5,58.5-61.8c12-8.2,24.8-13.9,40.3-13.5
		c5.4,0.1,11.6-4.8,16.4-8.8c21.1-17.6,41.5-36.1,62.9-53.5c13.1-10.7,27.2-20.2,41.2-29.6c6.5-4.4,13.7-3.7,20.2,1.4
		c5.1,3.9,5.6,8.5,2,13.4c-2.3,3.1-5.3,5.6-8,8.3C7988.6,327.3,7947.8,368.1,7907,408.9C7907,408.9,7907,408.9,7907,408.9z
		 M7975.4,315.4c-0.4-0.4-0.7-0.8-1.1-1.2c-6.5,5.6-13,11.3-19.6,16.9c-14.5,12.3-28.9,24.7-43.8,36.6c-3.6,2.9-9,5.8-13.1,5.2
		c-13.8-2.1-24.9,3.4-35.2,10.9c-31,22.8-53.8,52.3-69.2,87.3c-5.4,12.3-9.3,25.3-13.8,38c0.4,0.2,0.9,0.5,1.3,0.7
		C7845.7,445.1,7910.5,380.3,7975.4,315.4z"/>
	<path class="st1" d="M9043.1,437.8c17.5-17.5,35.1-34.8,52.3-52.6c3.3-3.5,5-8.8,6.6-13.5c4.2-12.2,6.8-25.1,12.2-36.8
		c8.7-18.9,36.2-37.1,60.8-27.4c17.6,7,29.8,20,36.5,37.5c4.3,11.2,1.5,22.8-6.3,31.6c-8.1,9-17.5,16.9-27.1,24.4
		c-8.3,6.5-18.1,9-28.9,7.7c-2.6-0.3-6.3,1.3-8.4,3.3c-31.2,30.2-62.3,60.5-93.2,91.1c-29.4,29.1-58.2,58.9-87.9,87.7
		c-5.8,5.6-14.2,9.5-22,11.7c-13.7,3.8-24.2-6.7-19.5-20c3.7-10.5,10.1-20.6,17-29.5c10.1-13,21.5-24.9,32.8-36.9
		c24.8-26.4,49.8-52.5,74.8-78.7C9042.8,437.5,9043,437.7,9043.1,437.8z M8932.9,584.5c0.9,0.9,1.8,1.8,2.8,2.7
		c5-3.3,10.7-5.9,14.9-10c23.8-23.9,46.8-48.5,70.7-72.1c32.9-32.4,66.4-64.2,99.6-96.2c2.1-2,3.9-4.3,5.9-6.4
		c-3.6-5.1-7.9-9.9-2.7-15.2c4.9-5,9.2-0.6,14,1.6c8.5,3.9,18.2,6.5,26.5,0.9c9.7-6.4,19-13.8,26.7-22.4c3.7-4.1,5.8-12.9,4-17.8
		c-4.9-13.1-14.3-23.6-28.6-27.2c-5-1.3-11.1-0.7-16,1c-16.7,5.9-31.8,28.9-31.5,46.5c0,1.2,0.4,2.5,0.9,3.6
		c2.6,4.9,0.7,8.6-2.7,12.1c-9.2,9.5-18.1,19.3-27.5,28.6c-48.1,47.5-96.1,95.1-140.3,146.4C8943.3,568,8938.4,576.5,8932.9,584.5z"
		/>
	<path class="st1" d="M8428.4,1160.1c2.5,4.8,4,10.6,7.7,14.1c16.6,15.6,33.8,30.6,50.8,45.7c1.9,1.7,4.1,3.2,6.1,5
		c3.5,3.2,5.3,7.1,1.8,11.2c-3.4,4.1-7.7,3.2-11.5,0.4c-5.4-3.9-10.8-7.8-15.7-12.3c-14.8-13.4-29.5-26.8-43.9-40.6
		c-7.2-6.9-9.8-15.9-10.1-25.9c-0.1-2.6-1.6-5.9-3.6-7.7c-42.1-39.6-84.3-79-126.5-118.4c-10.9-10.2-21.7-20.6-32.5-31
		c-2.9-2.8-5.9-5.6-8.3-8.8c-6.3-8.6-6.6-16.8-1.1-22.8c5.9-6.4,16-8.1,24.2-2.9c8.2,5.2,16.2,10.9,23.4,17.4
		c44.1,40.2,87.9,80.6,131.9,121c1,1,2.3,1.8,3.3,2.8c9.3,9.1,17.8,14,32.6,8.2c16.3-6.4,33-1.5,46.5,11.5
		c14.2,13.7,29.1,26.6,43.7,39.9c1.7,1.6,3.9,3.6,4.2,5.6c0.4,2.9,0.1,7.2-1.7,8.7c-1.8,1.5-6.5,1.6-8.8,0.3
		c-4.3-2.4-7.8-6.2-11.5-9.5c-13.8-12.4-27.4-24.9-41.3-37.2c-6.3-5.6-17.5-7.2-25.9-4c0.1,0.4-0.1,1,0.2,1.3
		c19.7,18.6,39.4,37.1,59.2,55.7c0.7,0.7,1.4,1.3,2.1,1.9c3.9,3.7,7.1,7.9,2.8,12.9c-4.4,5.1-8.9,2.5-12.9-1.2
		c-17.5-16.4-35-32.9-52.5-49.3c-4.8-4.5-9.8-8.9-15.6-14.1c-1.6,1.4-4.2,2.9-5.1,5.1c-0.5,1.1,2,3.8,3.6,5.3
		c19,17.6,38.1,35.1,57.2,52.6c2.3,2.1,4.4,4.3,6.5,6.6c3.6,3.7,4.9,7.9,0.7,11.9c-3.9,3.7-7.9,2.2-11.4-1
		c-9.9-9.2-19.7-18.6-29.7-27.8c-10.3-9.5-20.7-18.9-31.1-28.3c-1.5-1.4-3.4-2.4-5.1-3.6C8430.2,1159,8429.3,1159.6,8428.4,1160.1z
		 M8428.8,1131.1c-6.7-5.7-12.9-10.5-18.7-15.7c-43.6-39.9-87.1-80-130.8-119.9c-5.2-4.8-11-9-16.8-13.2c-2.1-1.5-4.8-2.2-8.1-3.7
		c3,9.3,155.7,154,167.7,159.7C8424.1,1136.3,8426.2,1134,8428.8,1131.1z"/>
</g>
<path class="st1" d="M10372,1003c40.7,455.7,81.3,911.3,122,1367"/>
</svg>
